<?xml version="1.0" standalone="no"?>
<!DOCTYPE svg PUBLIC "-//W3C//DTD SVG 1.1//EN" "http://www.w3.org/Graphics/SVG/1.1/DTD/svg11.dtd" >
<svg>
<metadata>
Created by FontForge 20090622 at Mon Feb 19 20:48:02 2018
 By ffonts
Anydore &#194;&#169; 7NTypes. 2017. All Rights Reserved
</metadata>
<defs>
<font id="Anydore" horiz-adv-x="590" >
  <font-face 
    font-family="Anydore"
    font-weight="400"
    font-stretch="normal"
    units-per-em="2048"
    panose-1="2 0 5 0 0 0 0 0 0 0"
    ascent="1638"
    descent="-410"
    x-height="840"
    cap-height="1422"
    bbox="-2750 -1883 9149 2709"
    underline-thickness="150"
    underline-position="-142"
    unicode-range="U+001D-U+FB06"
  />
<missing-glyph horiz-adv-x="1707" 
d="M980 1422q-124 -32 -202 -118q-26 -30 -71 -97q-49 -75 -71 -102q-66 -81 -107 -114q-67 -54 -141 -54q-60 0 -102 30q-47 34 -56 95q-2 14 -2 29q0 54 26 100q36 63 101 75q16 3 30 3q23 0 40 -7q34 -15 34 -56q-9 10 -22 10q-11 0 -20 -8q-9 -10 -9 -21q0 -29 29 -29h2
q30 0 47 34q8 18 8 36q0 17 -7 35q-14 36 -47 54q-37 19 -88 19q-13 0 -26 -1q-109 -9 -176 -91v178h830zM150 904q64 -65 172 -65q15 0 31 1q88 8 208 127q33 33 92 98q52 58 73 77q54 50 110 50q31 0 61 -14q90 -41 182 -41q61 0 123 18q121 37 227 135
q-13 -164 -120 -304q-21 -26 -227 -239h-54q-41 0 -68 32l-88 -87h158q-192 -214 -226 -380q-9 -46 -9 -86q0 -66 24 -117q38 -82 136 -113h-197v698l37 20v33h-645v157zM386 692q77 0 109 -32q33 -32 33 -109v-555h-378v696h236zM585 694h36v-698h-36v698zM1235 -4
q206 47 342 167v-167h-342zM1577 178q-131 -73 -246 -87q-24 -3 -46 -3q-82 0 -128 39q-45 38 -45 105q0 26 6 55q27 120 157 287q62 79 89 118h153v-48h60v-466zM1401 747q101 166 101 357q0 42 -5 87q-16 131 -18 131q6 51 98 79v-654h-176zM760 1039q-74 0 -123 -43
q-43 -38 -53 -94q-2 -14 -2 -27q0 -37 21 -64q25 -34 74 -34q8 0 16 1q59 6 77 61q5 14 5 27q0 36 -36 61q-29 22 -29 47q0 5 1 11q7 31 49 41v13z" />
    <glyph glyph-name="uniE17A" unicode="tt" horiz-adv-x="922" 
d="M203 1188q76 32 150 32q33 0 59 -8t40 -25q-24 -68 -66 -211l-14 -48q86 -5 181 -5h33l21 79q68 242 101 340q76 32 150 32q33 0 59 -8t40 -25q-45 -128 -114 -365q-6 -20 -11 -40q106 12 162 35q-40 -62 -179 -96q-61 -217 -97 -365q-56 -230 -56 -312q0 -16 4 -31
t20 -15q34 0 76.5 50t84.5 120t74 136t46 103q0 -22 -21 -88t-58.5 -148.5t-87.5 -161t-109 -131t-121 -52.5q-63 0 -96 29.5t-45 70.5t-12 76q0 99 61 352q30 126 86 334q-96 -6 -211 -6h-6q-39 -139 -62 -230l-24 -95q-56 -230 -56 -312q0 -16 4 -31t20 -15q36 0 72.5 44
t56.5 75q0 -46 -32.5 -115t-88 -122.5t-124.5 -53.5q-63 0 -96 30q-33 29 -45 70t-12 76q0 99 61 352l24 97q20 83 61 235l-68 2q-29 17 -33 60q-1 12 -1 23q0 28 9 50q58 -14 123 -24q7 24 25.5 96t41.5 140z" />
    <glyph glyph-name="uniE17B" unicode="th" horiz-adv-x="1307" 
d="M865 1054q115 107 115 238q-1 36 -8 53.5t-19 17.5q-35 0 -68 -87q-66 -194 -88 -280q39 31 68 58zM341 820q88 8 185 40l56 207q66 229 149.5 323t181.5 94q61 -1 101.5 -49t40.5 -143q-6 -163 -123 -275q-71 -68 -162 -121q-28 -97 -62.5 -237t-47.5 -206
q-36 -170 -36 -247q0 -18 6 -36t12 -18q31 108 71 210q41 104 88 195q46 86 96 154q47 66 108 108q44 31 99 31q41 0 75 -23q16 -12 25.5 -32.5t9.5 -50.5q0 -28 -31 -126q-4 -11 -7 -23q-34 -109 -61 -239q-17 -84 -17 -158q0 -17 4 -31.5t20 -14.5q27 0 66 44.5t78 112.5
q76 129 111 252q0 -36 -35 -145.5t-96 -223.5q-32 -59 -70 -106.5t-81 -76.5t-89 -29q-38 0 -64 11t-44 30q-26 29 -35.5 66t-9.5 69q0 96 24 208q33 153 86 281q-40 -31 -88 -118q-49 -93 -96 -210q-70 -180 -104 -308q-32 -16 -65.5 -22.5t-57.5 -6.5q-44 0 -72.5 14
t-45.5 37q-20 28 -27.5 62t-7.5 63q0 92 22 225q18 110 48 239l38 164q-34 -13 -63 -21q-57 -17 -125 -25q-10 -36 -18 -68l-40 -161q-56 -230 -56 -312q0 -15 4 -31q4 -15 20 -15q36 0 72.5 44t56.5 75q0 -46 -32.5 -114.5t-88 -122.5t-124.5 -54q-63 0 -96 30
q-33 29 -45 70q-12 42 -12 77q0 98 61 351l39 163l21 80q-65 21 -95 65q0 76 30 123q43 -50 94 -80l39 144q29 109 57 198q76 32 150 32q33 0 59 -8t40 -25q-45 -128 -86 -277z" />
    <glyph glyph-name="uniE17C" unicode="Th" horiz-adv-x="1662" 
d="M381 602q64 418 92 642q124 0 233 -87l-184 -1154q-45 -45 -127 -57q-19 -3 -36 -3q-57 0 -96 28q54 213 118 631zM963 1157q-199 150 -452 150q-26 0 -51 -2q-96 -5 -177 -41t-131 -108t-50 -189q0 -70 40 -109t97 -39q0 -50 -15.5 -78.5t-39.5 -40.5t-49 -12
q-79 0 -127 68.5t-48 166.5q0 80 38.5 166t124 160t224 120.5t338.5 46.5q263 0 550 -176q-25 -70 -48 -142q-46 -142 -86 -286q-30 -109 -56 -220q-17 -72 -30 -137q-35 -171 -35 -247q0 -19 5.5 -37t12.5 -18q30 109 70 210q41 104 89 195q46 86 96 154q46 67 107 109
q44 30 99 30q42 0 76 -23q16 -12 25.5 -32.5t9.5 -50.5q0 -28 -32 -126q-3 -11 -7 -23q-34 -108 -61 -238q-17 -85 -17 -159q0 -16 4.5 -31t19.5 -15q27 0 66 44.5t79 112.5q75 129 110 252q0 -36 -35 -145.5t-96 -223.5q-32 -58 -70 -106t-81 -77t-89 -29q-37 0 -63.5 11
t-43.5 30q-26 29 -36 66t-10 69q0 97 24 209q33 152 86 281q-40 -31 -87 -119q-50 -93 -96 -210q-71 -180 -105 -308q-32 -16 -65.5 -22.5t-57.5 -6.5q-44 0 -72.5 14t-45.5 37q-20 28 -27.5 62t-7.5 63q0 92 22 225q40 239 111 507q35 134 76 268z" />
    <glyph glyph-name="uniE196" unicode="Anydore" horiz-adv-x="9149" 
d="M1605 520q73 113 190 167q117 55 248 55l-31 -86.5t-57 -145.5t-80 -159q-46 -76 -104 -125q-59 -49 -132 -49q-41 0 -65 18q-23 17 -32 47q-9 29 -9 65q0 101 72 213zM6898 583q-16 -55 -47 -97q-30 -44 -64 -44q-18 0 -38 16q13 55 29 110q22 70 50 121q17 32 35 51
q19 18 39 18q18 0 18 -41q0 -50 -22 -134zM6710 -20q136 0 250 126q47 52 91 127q150 253 179 513q153 -116 390 -116q159 0 595 76t570 76q295 -7 364 -141q0 53 -27 117q-26 64 -93 118q-111 85 -284 85q-164 0 -574 -119t-608 -119q-177 0 -357 108q-13 -20 -13 -37
q0 -12 8 -24q-27 -231 -156 -435q-129 -205 -244 -205q-43 0 -67 51q-14 34 -14 94q0 40 21 145q34 -36 79 -36q71 0 129 48q47 38 77 93q34 64 34 128q0 54 -25 93q-24 39 -63 63q-67 37 -141 37q-103 0 -169 -62q-43 -38 -72 -92q-50 -96 -79 -204q-19 -25 -40 -48
q-28 -32 -47 -32q-16 0 -17 43q0 30 11 69q11 40 26 82q14 41 26 82q12 42 12 68q0 59 -34 83q-33 25 -77 25q-63 0 -113 -42q-50 -41 -91 -114q-40 -73 -70 -154q-29 -81 -52 -162q-22 -81 -38 -148q-13 -52 -23 -88q-10 0 -10 32v6q0 64 31 199t69 259q39 124 67 169
q-43 29 -105 29q-17 0 -35 -2q-86 -10 -119 -59q-61 -151 -97 -315q-44 -33 -103 -43q9 63 9 122q0 152 -54 233q-54 82 -154 82q-87 0 -148 -46t-82 -139q-61 -14 -87 -52q-36 -87 -61 -183q-17 -62 -23 -124q-31 -56 -64 -103q-45 -65 -74 -65q-18 0 -22 20q-2 13 -2 26
q0 70 32 219q50 216 122 467l36 124l12 36l25 74q3 8 5 17q71 241 185 461q116 -96 236 -171q120 -74 249 -118q129 -43 269 -43q170 0 293 56t199 148t104 203q16 63 16 125q0 47 -9 96q-22 109 -94 201t-195 148q-124 57 -299 57q-282 0 -492 -117q-211 -117 -369 -345
l-175 166l-277 256q-141 126 -290 227t-311 162q-161 62 -339 62q-220 0 -377 -65q-158 -65 -255 -170q-96 -105 -135 -228q-28 -91 -28 -180q0 -37 5 -72q15 -124 84 -229t187 -170q117 -65 281 -65q124 0 234 51q110 52 178 147q69 96 69 229q0 63 -31 113q-30 51 -92 51
q23 -62 23 -125q0 -21 -3 -43q-19 -131 -108 -218q-88 -86 -220 -86q-120 0 -204 51q-84 52 -130 136q-47 84 -56 184q-2 21 -2 42q0 78 24 159q31 99 102 184q72 84 185 136q114 52 270 52q165 0 314 -57q149 -58 287 -153q138 -96 268 -214l261 -246l196 -187
q-130 -226 -227 -498q-45 -126 -79 -230q-57 -165 -85 -275q-44 50 -103 81q-58 32 -123 32q-50 0 -92 -37q-41 -38 -73 -100q-63 -122 -96 -272q-20 -90 -30 -166t-10 -115q0 -27 9 -65q10 -38 37 -69q17 -19 43 -30q26 -12 64 -12q42 0 82 30t75 80q42 59 75 130
q31 66 49 115q-21 -109 -21 -179q0 -33 10 -71q11 -38 37 -67q19 -17 44 -27q26 -11 62 -11q54 0 106 51q65 61 118 159q15 26 28 51q2 -58 24 -114q25 -64 78 -105q53 -42 137 -42q96 0 170 61t122 157q48 94 67 200q58 11 100 37q-37 -182 -37 -279q0 -87 41 -131
q42 -45 112 -45h3q53 0 120 30l14 57l35 143q21 83 48 173q28 90 59 169q32 79 68 134q37 55 74 55q-53 -89 -74 -170q-20 -81 -20 -121q0 -60 39 -87q38 -27 91 -27h4q59 3 103 45q21 19 38 41q-21 -103 -21 -165q0 -70 17 -120q18 -51 48 -84q72 -73 170 -73zM5358 685
q23 34 47 45q23 12 52 12q63 0 88 -57t25 -128q0 -60 -9 -129q-132 20 -194 113q23 63 58 118q-26 20 -67 26zM5346 470q90 -60 211 -74q-12 -67 -34 -126q-23 -60 -54 -98t-68 -38q-35 0 -51 32q-17 31 -21 71q-5 39 -5 63q0 83 22 170zM4773 673q-14 -53 -55 -166
q-37 -103 -82 -200q-30 -67 -58 -111t-47 -44q-16 0 -19 17q-4 17 -4 34q0 18 7 70t20 120q22 124 60 232q19 52 41 85t48 33q41 0 89 -70zM5398 1701q79 129 184 232t234 163q131 60 289 60q146 0 244 -56q97 -57 146 -145q48 -88 48 -187q0 -100 -50 -188t-150 -145
q-100 -56 -251 -56q-124 0 -241 41q-117 42 -229 114q-113 73 -224 167zM3544 -874q-79 -129 -183 -232q-105 -103 -235 -163t-289 -60q-146 0 -243 56q-98 56 -146 145q-49 88 -49 187q0 100 50 188t150 145q101 56 251 56q124 0 241 -41q117 -42 230 -114
q112 -73 223 -167zM3815 -163q-97 -391 -210 -607q-115 96 -236 171q-120 74 -249 118q-129 43 -269 43q-170 0 -293 -56t-199 -148q-75 -92 -104 -203q-16 -63 -16 -125q0 -47 9 -96q23 -109 94 -201q72 -92 196 -148q124 -57 298 -57q282 0 492 117q211 117 370 345
l175 -166l277 -256q141 -126 290 -227q149 -102 310 -163q162 -61 340 -61q220 0 377 65q157 64 254 170q97 105 135 228q28 91 28 180q0 37 -5 72q-15 124 -84 229t-186 170q-118 65 -282 65q-124 0 -233 -51q-110 -52 -179 -147q-68 -96 -68 -230q0 -62 30 -112
q31 -51 93 -51q-23 62 -23 125q0 21 3 43q19 131 107 218q89 86 221 86q119 0 203 -51q84 -52 131 -136t55 -184q2 -21 2 -42q0 -78 -23 -159q-32 -99 -103 -184q-72 -84 -185 -136t-269 -52q-165 0 -314 57q-149 58 -287 153q-138 96 -269 214l-260 246l-197 187
q131 226 230 562q36 123 68 250q22 87 38 160q61 284 76 361q44 246 92 391q-42 28 -104 28q-128 -4 -155 -61q-11 -27 -22 -71q-43 -137 -83 -232q-43 -100 -85 -178q-41 -77 -63 -77q-11 0 -16 18q-5 17 -5 36v26q17 126 44 227q26 102 55 192l30 100q-56 36 -139 38
q-84 0 -115 -43q-40 -102 -82 -291q-22 -98 -32 -175l-16 -29q-39 -70 -76 -120q-38 -50 -63 -50q-23 0 -25 46q0 123 78 383q40 128 40 167q0 55 -34 78q-34 24 -77 24q-71 0 -134 -54q-63 -55 -116 -140q-50 -79 -90 -167q-48 -110 -77 -196t-45 -141q-19 0 -21 63
q4 112 61 307t116 295q-42 29 -104 29q-121 -2 -155 -61q-66 -166 -103 -348q-13 -66 -22 -121q-39 -66 -77 -114q-40 -50 -65 -50t-31 15q-7 15 -7 31q0 77 39 243q38 167 91 355l99 339q26 72 32 159v5q0 32 -11 59q-11 28 -42 45q-30 18 -83 18q-96 0 -171 -57t-135 -145
q-58 -88 -103 -186t-80 -184q-5 -14 -11 -28q-5 -12 -9 -23q-132 0 -238 -33q-130 -41 -243 -41q-198 0 -608 119t-574 119q-173 0 -284 -85q-67 -54 -93 -118q-27 -64 -27 -117q70 134 364 141q226 0 554 -71q329 -71 610 -71q41 0 79 4q-69 -58 -116 -127
q-52 -78 -77 -160q-24 -81 -24 -154q0 -64 23 -115q23 -50 69 -79q47 -30 118 -30q74 0 138 43q62 42 116 114q52 71 97 158q44 87 81 178q37 92 67 175q19 46 34 87q88 -6 177 -45q-43 -162 -71 -303q-32 -151 -32 -231q0 -35 12 -76q12 -42 45 -71t95 -29q64 0 123 53
t109 133q15 22 28 45q-3 -30 -3 -55q0 -83 39 -128q44 -48 117 -48q53 0 120 30q25 95 75 230q30 82 62 157l45 94q57 116 106 155q-110 -321 -110 -490q0 -78 39 -126q40 -50 113 -50q56 0 110 54q54 53 101 132q28 47 52 96q-1 -19 -1 -35q0 -33 11 -74q11 -42 44 -71
q33 -30 98 -31q63 3 123 72t112 169q29 57 55 114q-7 -38 -55 -323q-14 -82 -57 -246zM2154 786q54 137 106 248q54 112 107 178q53 67 110 67q-64 -200 -153 -533q-89 27 -170 40z" />
    <glyph glyph-name=".notdef" horiz-adv-x="1707" 
d="M980 1422q-124 -32 -202 -118q-26 -30 -71 -97q-49 -75 -71 -102q-66 -81 -107 -114q-67 -54 -141 -54q-60 0 -102 30q-47 34 -56 95q-2 14 -2 29q0 54 26 100q36 63 101 75q16 3 30 3q23 0 40 -7q34 -15 34 -56q-9 10 -22 10q-11 0 -20 -8q-9 -10 -9 -21q0 -29 29 -29h2
q30 0 47 34q8 18 8 36q0 17 -7 35q-14 36 -47 54q-37 19 -88 19q-13 0 -26 -1q-109 -9 -176 -91v178h830zM150 904q64 -65 172 -65q15 0 31 1q88 8 208 127q33 33 92 98q52 58 73 77q54 50 110 50q31 0 61 -14q90 -41 182 -41q61 0 123 18q121 37 227 135
q-13 -164 -120 -304q-21 -26 -227 -239h-54q-41 0 -68 32l-88 -87h158q-192 -214 -226 -380q-9 -46 -9 -86q0 -66 24 -117q38 -82 136 -113h-197v698l37 20v33h-645v157zM386 692q77 0 109 -32q33 -32 33 -109v-555h-378v696h236zM585 694h36v-698h-36v698zM1235 -4
q206 47 342 167v-167h-342zM1577 178q-131 -73 -246 -87q-24 -3 -46 -3q-82 0 -128 39q-45 38 -45 105q0 26 6 55q27 120 157 287q62 79 89 118h153v-48h60v-466zM1401 747q101 166 101 357q0 42 -5 87q-16 131 -18 131q6 51 98 79v-654h-176zM760 1039q-74 0 -123 -43
q-43 -38 -53 -94q-2 -14 -2 -27q0 -37 21 -64q25 -34 74 -34q8 0 16 1q59 6 77 61q5 14 5 27q0 36 -36 61q-29 22 -29 47q0 5 1 11q7 31 49 41v13z" />
    <glyph glyph-name=".null" horiz-adv-x="0" 
 />
    <glyph glyph-name=".null" horiz-adv-x="0" 
 />
    <glyph glyph-name="nonmarkingreturn" horiz-adv-x="508" 
 />
    <glyph glyph-name="space" unicode=" " horiz-adv-x="508" 
 />
    <glyph glyph-name="space" unicode="&#xa0;" horiz-adv-x="508" 
 />
    <glyph glyph-name="exclam" unicode="!" horiz-adv-x="619" 
d="M110 410q4 24 9 50q39 207 97 428q37 141 74 264l60 190q77 32 150 32q33 0 59.5 -8t39.5 -25q-43 -121 -82 -243q-46 -143 -86 -287q-30 -109 -56 -220q-17 -72 -30 -137q-18 -81 -59 -108q-37 -23 -89 -23q-56 3 -75 26q-13 15 -14 35q0 14 2 26zM66 36q-26 38 -26 85
q0 32 12 62.5t42 54.5q37 29 82 29q9 0 18 -1q57 -9 89 -55q26 -36 26 -82q0 -12 -2 -24q-9 -60 -53 -95q-37 -30 -84 -30q-33 0 -59 14.5t-45 41.5z" />
    <glyph glyph-name="quotedbl" unicode="&#x22;" horiz-adv-x="697" 
d="M251 1346q66 28 130 28q28 0 50.5 -7t34.5 -21q-55 -185 -128 -310t-186 -244q-12 44 -12 97q0 59 15 129q29 132 96 328zM562 1346q66 27 130 27q28 0 50.5 -6.5t34.5 -20.5q-55 -185 -128 -310t-186 -244q-12 44 -12 97q0 59 15 129q29 132 96 328z" />
    <glyph glyph-name="numbersign" unicode="#" horiz-adv-x="1098" 
d="M287 619l36 -2l29 90l14 44q-101 -4 -246 -19q-9 13 -9 32q0 13 4 28q11 44 38 80q128 0 215 -3l36 -2l61 178q58 166 125 320q35 12 92 12q36 -2 51 -25q-74 -163 -136 -341l-53 -152q74 -4 152 -5l65 191q58 166 125 320q35 12 82 12q46 -2 62 -25q-74 -163 -136 -341
l-53 -154q92 5 218 18q9 -13 9 -32q0 -13 -4 -28q-11 -45 -38 -80q-124 0 -208 4h-17l-29 -90l-14 -42q93 5 221 17q8 -12 8 -31q0 -13 -4 -29q-11 -44 -38 -80q-123 0 -207 4q-10 0 -19 1l-60 -176q-58 -167 -125 -322q-33 -11 -68 -11q-10 0 -20 1q-40 3 -56 24
q74 163 137 341l51 151q-73 4 -151 5l-65 -189q-58 -167 -125 -322q-33 -11 -68 -11q-10 0 -20 1q-40 3 -55 24q74 163 137 341l53 155q-100 -4 -245 -19q-9 13 -9 32q0 13 4 28q12 44 39 80q128 0 214 -3zM509 752l-34 -103q-6 -20 -13 -40q73 -4 152 -5l34 103q6 20 13 39
q-74 5 -152 6z" />
    <glyph glyph-name="dollar" unicode="$" horiz-adv-x="843" 
d="M777 977q-28 -26 -108 -30h-19q-69 0 -130 25q32 26 63.5 96t31.5 136q0 46 -20 77.5t-74 31.5q-56 0 -94 -28t-57.5 -72.5t-19.5 -94.5q0 -58 22.5 -114t58.5 -112.5t78 -115.5q52 -72 100.5 -151t80.5 -168.5t32 -193.5q0 -100 -48.5 -166.5t-126.5 -101t-170 -40.5
q-32 -160 -80 -273q-34 -12 -69 -12q-10 0 -19 1q-40 3 -55 24q49 112 82 272q-74 20 -119.5 62.5t-66 99.5t-20.5 119q0 77 35 151q28 26 108 30h19q69 0 130 -25q-32 -26 -63.5 -96.5t-31.5 -136.5q0 -45 20.5 -76.5t73.5 -31.5q57 0 95 28t57 72.5t19 94.5
q0 61 -25 125.5t-64.5 131.5t-85.5 136q-49 74 -94 151t-74 154.5t-29 156.5q0 100 48.5 166t126.5 101t170 40q24 99 57 175q33 11 68 11q10 0 20 -1q40 -3 56 -24q-34 -74 -59 -172q73 -20 118.5 -62.5t66.5 -100t21 -118.5q0 -77 -36 -151z" />
    <glyph glyph-name="percent" unicode="%" horiz-adv-x="1165" 
d="M868 1365q35 12 72 12q8 0 16 -1q40 -3 55 -24q-139 -297 -315 -630q-204 -383 -361 -731q-33 -11 -69 -11q-10 0 -20 1q-39 3 -55 24q140 297 315 629q178 337 325 650q-53 -47 -122 -92.5t-143 -72.5q-3 -66 -21.5 -136.5t-53 -132t-86.5 -100.5t-122 -39
q-65 0 -105 32t-59 80.5t-19 99.5q0 70 19 143t47 139q19 29 67 41q8 57 54 92.5t120 35.5q41 0 76.5 -21.5t58 -68.5t25.5 -124q96 42 178 104t123 101zM331 1167q49 -36 108 -36q17 0 36 3v18q0 48 -14.5 76t-36 40t-44.5 12q-22 0 -40 -8.5t-27 -21.5q31 -5 51 -20
q-19 -30 -33 -63zM472 1097q-12 -1 -24 -1q-70 0 -128 44q-15 -48 -24 -90t-9 -94q0 -19 3.5 -49t16 -54t39.5 -24q41 0 67 45t40.5 106.5t18.5 116.5zM767 -20q-65 0 -105 32t-59 80.5t-19 99.5q0 70 19 143t47 139q19 29 67 41q8 57 54 92.5t120 35.5q42 0 78.5 -23
t59 -73t22.5 -132q0 -65 -16.5 -140.5t-51.5 -142t-88.5 -109.5t-127.5 -43zM797 518q31 -4 51 -19q-27 -42 -44 -91q-15 -47 -24 -89t-9 -94q0 -19 3.5 -49t16 -54t39.5 -24q37 0 61.5 37t39.5 91t21.5 108t6.5 87q0 48 -14 76t-36 40t-45 12q-22 0 -40 -8.5t-27 -22.5z
" />
    <glyph glyph-name="ampersand" unicode="&#x26;" horiz-adv-x="1243" 
d="M349 657l64 54q-45 86 -79 168q-57 135 -57 234q0 106 41.5 174.5t115.5 101.5t171 33q114 0 182.5 -42.5t99.5 -110t31 -141.5q0 -88 -50.5 -162.5t-129.5 -141.5q-46 -40 -97 -79q27 -46 58 -93q63 -97 134 -186l28 43q69 109 110 199.5t41 131.5q68 0 108.5 -16
t40.5 -63q0 -54 -56 -161q-54 -100 -138 -211q-16 -22 -33 -42q67 -73 130 -128q88 -77 149 -94q0 -46 -28.5 -78t-68 -50.5t-76.5 -23.5q-10 -1 -19 -1q-24 0 -39 8q-51 31 -136 123q-33 35 -68 77l-1 -1q-106 -99 -224.5 -162t-241.5 -63q-108 0 -169.5 38t-86.5 97.5
t-25 124.5q0 86 45.5 160.5t118 144t155.5 138.5zM507 1118q0 -91 54 -214q7 -17 15 -34q14 15 27 31q53 66 85 141t32 162q0 46 -20 77.5t-73 31.5q-57 0 -82 -28t-31.5 -72.5t-6.5 -94.5zM692 286q-15 19 -29 39q-98 130 -185 274q-5 7 -9 14l-36 -29q-67 -54 -121 -113
t-86.5 -125.5t-32.5 -143.5q0 -46 21 -76.5t52.5 -45.5t64.5 -15q91 0 187 67q90 62 174 154z" />
    <glyph glyph-name="quotesingle" unicode="'" horiz-adv-x="386" 
d="M251 1346q66 28 130 28q28 0 50.5 -7t34.5 -21q-55 -185 -128 -310t-186 -244q-12 44 -12 97q0 59 15 129q29 132 96 328z" />
    <glyph glyph-name="parenleft" unicode="(" horiz-adv-x="658" 
d="M462 -60q-40 -60 -83 -96.5t-87 -36.5q-73 0 -116.5 47t-62.5 128q-18 77 -18 175q0 113 14.5 228t38.5 231q30 143 82.5 290.5t123 272.5t153.5 203t172 78q45 0 77 -19t38 -48q-19 8 -36 8q-63 0 -119.5 -76t-104.5 -196t-86 -259.5t-64 -270.5q-36 -185 -42 -376
q0 -119 24 -194q29 -89 96 -89z" />
    <glyph glyph-name="parenright" unicode=")" horiz-adv-x="639" 
d="M197 1327q40 60 83.5 96.5t87.5 36.5q73 0 116 -47t62 -127.5t19 -184.5q0 -103 -15 -218.5t-39 -230.5q-29 -143 -82 -290.5t-123.5 -273t-153 -203.5t-171.5 -78q-46 0 -78 19.5t-37 48.5q18 -8 35 -8q63 0 119.5 75.5t105 196t86.5 259.5t63 270q37 186 42 334
q1 25 1 49q0 115 -24 188q-29 88 -97 88z" />
    <glyph glyph-name="asterisk" unicode="*" horiz-adv-x="850" 
d="M470 1066q4 36 4 71q0 31 -3 61q-8 64 -32 106q14 30 57 49.5t90 19.5q36 0 60.5 -16t26.5 -52q-6 -58 -54.5 -124t-100.5 -122q66 13 125 40t91 63q33 -4 65 -39t47 -79q6 -20 6 -38q0 -13 -3 -25q-8 -28 -41 -41q-19 -4 -41 -4q-42 0 -94 17q-78 26 -147 58
q33 -59 77 -106.5t88 -67.5q1 -7 1 -14q0 -27 -18 -59q-24 -41 -61 -69q-30 -22 -59 -23h-2q-28 0 -50 27q-29 48 -29 127v5q1 83 10 158q-46 -50 -77.5 -106.5t-36.5 -104.5q-19 -10 -43 -10q-16 0 -33 4q-46 9 -84 37q-30 21 -40 48q-4 10 -4 20q0 18 13 38
q39 44 117.5 68.5t152.5 39.5q-61 28 -125 41q-35 7 -64 7q-25 0 -46 -5q-25 23 -30 70q-2 12 -2 25q0 34 11 67q11 35 34 53q15 12 36 12q10 0 22 -3q53 -23 101 -90t85 -134z" />
    <glyph glyph-name="plus" unicode="+" horiz-adv-x="1111" 
d="M1005 493q-242 0 -372 5h-13q-1 -5 -3 -11q-26 -131 -79 -366q-41 -18 -87 -19h-4q-37 0 -53 18q66 233 97 380q-30 1 -64 1q-134 0 -328 -10q-9 13 -9 32q0 12 4 28q11 44 39 80q249 0 374 -5h11q1 7 3 14q27 135 78 362q41 19 87 20h4q37 0 53 -18q-68 -241 -97 -380
q29 -1 61 -1q132 0 332 10q8 -12 8 -31q0 -13 -4 -29q-11 -44 -38 -80z" />
    <glyph glyph-name="comma" unicode="," horiz-adv-x="513" 
d="M82 120q4 68 41 107.5t96 39.5t95 -45t36 -101q0 -96 -87.5 -217.5t-209.5 -213.5t-233 -111q94 60 195 206t106 239q-39 40 -39 96z" />
    <glyph glyph-name="hyphen" unicode="-" horiz-adv-x="827" 
d="M721 344h-159.5t-206 -0.5t-177.5 -1t-79 -0.5q-9 13 -9 32q0 13 4 28q12 44 39 80q536 0 622 2q8 -12 8 -31q0 -13 -4 -29q-11 -44 -38 -80z" />
    <glyph glyph-name="hyphen" unicode="&#xad;" horiz-adv-x="827" 
d="M721 344h-159.5t-206 -0.5t-177.5 -1t-79 -0.5q-9 13 -9 32q0 13 4 28q12 44 39 80q536 0 622 2q8 -12 8 -31q0 -13 -4 -29q-11 -44 -38 -80z" />
    <glyph glyph-name="period" unicode="." horiz-adv-x="514" 
d="M196 -19q-56 10 -88 55q-26 38 -26 85q0 10 1 21q10 61 53 96q37 29 82 29q9 0 18 -1q57 -9 89 -55q26 -36 26 -82q0 -12 -2 -24q-9 -60 -53 -95q-36 -30 -83 -30q-8 0 -17 1z" />
    <glyph glyph-name="slash" unicode="/" horiz-adv-x="574" 
d="M565 1365q35 12 72 12q8 0 16 -1q40 -3 55 -24l-419 -948l-180 -413q-33 -11 -68 -11q-10 0 -20 1q-40 3 -55 24l419 947z" />
    <glyph glyph-name="zero" unicode="0" horiz-adv-x="842" 
d="M669 674q2 36 2 69q0 100 -21 158q-27 77 -84 80h-13q-57 0 -100 -32q-48 -37 -82 -98t-56 -134.5t-33.5 -147.5t-14.5 -133q-1 -17 -1 -34q0 -50 9 -101q13 -68 40 -114.5t67 -48.5h8q56 0 103 50q51 54 89 138t60.5 177.5t26.5 170.5zM576 1159q117 -6 188 -123
q61 -99 61 -273q0 -29 -2 -61q-7 -125 -47 -254t-110.5 -235t-161.5 -169q-81 -57 -192 -57q-14 0 -28 1q-73 4 -132 50.5t-88.5 115t-41.5 144.5q-8 56 -8 105q0 18 1 35q19 336 171 535q142 187 359 187q15 0 31 -1z" />
    <glyph glyph-name="one" unicode="1" horiz-adv-x="748" 
d="M539 1167q148 0 149 -62q-269 -895 -288 -1148q-129 0 -210 44q0 133 238 952q-172 -107 -300 -110q-44 0 -74 25q-34 28 -34 103q61 -18 125 -18q92 0 181 39.5t213 174.5z" />
    <glyph glyph-name="two" unicode="2" horiz-adv-x="842" 
d="M769 226q-23 -147 -148 -205q-110 -51 -258 -51q-18 0 -37 1q-171 8 -334 56q0 19 4.5 47t18.5 55.5t42.5 46t77.5 18.5q113 108 204.5 213.5t147 224.5t55.5 270q0 37 -9 73t-30 59.5t-58 23.5q-54 0 -92.5 -42t-59.5 -105t-21 -127q0 -41 4 -78q-50 0 -92 11t-66.5 37
t-24.5 71q0 94 34 159t90.5 105.5t126 59t139.5 18.5q85 0 154 -38t109.5 -110.5t40.5 -177.5q0 -116 -46.5 -211t-119.5 -173.5t-157.5 -143.5t-163.5 -118l-51 -36q68 -17 151 -17q54 0 113 7q152 17 256 77z" />
    <glyph glyph-name="three" unicode="3" horiz-adv-x="842" 
d="M0 201q28 26 107 30h19q69 0 130 -25q-31 -26 -63 -96t-32 -136q0 -56 27 -84.5t64 -28.5q39 0 87.5 29t84 87t35.5 145q0 100 -28.5 159.5t-72.5 93.5t-92 55q0 19 28.5 41.5t65.5 39t62 16.5q92 50 136 142t44 183q0 43 -5.5 91t-30 81.5t-80.5 33.5q-48 0 -82.5 -34.5
t-55.5 -88t-28 -113.5q-3 -30 -3 -58q0 -29 3 -56q-79 6 -124.5 37t-45.5 82q0 106 38 173t96.5 103.5t124 50t121.5 13.5q69 0 135 -25.5t108.5 -85.5t42.5 -162q0 -131 -82 -253t-236 -181q118 -78 164 -159.5t46 -183.5q0 -87 -39 -155t-101.5 -114t-136 -70t-140.5 -24
q-84 0 -158.5 31.5t-121.5 97.5t-47 167q0 77 36 151z" />
    <glyph glyph-name="four" unicode="4" horiz-adv-x="842" 
d="M287 -128l58 234q-105 6 -212 16q-120 11 -226 16v7q0 28 7 60q7 36 27 61.5t56 27.5q115 112 308.5 440.5t214.5 391.5q42 24 96.5 37t85.5 14h13q38 0 65 -10q33 -11 34 -34q-46 -147 -93 -350t-84 -379l-43 -196q136 11 192 89v-8q0 -54 -25 -89q-26 -39 -74.5 -60
t-113.5 -29l-17 -78q-26 -116 -38 -179q-8 -40 -11 -70q-171 3 -220 88zM132 277q123 -29 245 -44l146 627q-306 -508 -391 -583z" />
    <glyph glyph-name="five" unicode="5" horiz-adv-x="842" 
d="M813 995q-63 -55 -147 -59q-116 0 -234 20l-80 -305q185 -17 278.5 -143t93.5 -305q0 -86 -26.5 -169t-79.5 -148.5t-130.5 -105t-179.5 -39.5q-121 0 -194 42.5t-105.5 110t-32.5 141.5q0 77 38 151q29 26 114 30h20q74 0 138 -25q-33 -26 -66.5 -96t-33.5 -136
q0 -46 21.5 -77.5t77.5 -31.5q66 0 108.5 54.5t63 136.5t20.5 165q0 94 -28.5 165.5t-101.5 111.5q-69 37 -209 39l169 636q138 -23 268 -23q164 0 316 36q-26 -130 -78 -176z" />
    <glyph glyph-name="six" unicode="6" horiz-adv-x="842" 
d="M382 68h7q34 0 57 24q26 28 43 71.5t26 92.5t12 90q1 20 1 38q0 82 -29 135q-36 66 -128 75q-12 1 -26 1q-23 0 -49 -3q-21 -60 -32.5 -114.5t-17.5 -138.5q-1 -16 -1 -31q0 -47 11 -93q15 -61 47 -102.5t79 -44.5zM332 676q82 49 161 49q8 0 17 -1l6 -1q79 -7 141 -58
t96 -134q28 -70 28 -152q0 -17 -1 -34q-9 -113 -57.5 -204t-131.5 -141q-71 -43 -164 -43q-15 0 -30 1q-124 9 -211 61t-129 152q-34 80 -34 192q0 28 2 59q12 160 77.5 294t158.5 242t190.5 187t176 129.5t115.5 70.5q14 8 18 11q22 10 48 10q6 0 13 -1l13 -1q41 -7 73 -28
q29 -20 29 -46v-3q0 -6 -5 -9q-167 -104 -333.5 -252t-266.5 -350z" />
    <glyph glyph-name="seven" unicode="7" horiz-adv-x="842" 
d="M428 892q-65 0 -129 18q-42 -22 -96 -107t-95 -268q-30 33 -36 105q-2 23 -2 48q0 52 10 113q14 90 48.5 173t87.5 138t122 55q57 -111 144 -114q199 1 369 93q15 0 25 -7q22 -15 22 -37q0 -4 -1 -8q-3 -28 -31 -38q-73 -73 -186 -362t-183.5 -536t-107.5 -408
q-10 -3 -20 -3q-36 0 -81 29q-65 43 -109 108q0 47 59 241.5t156 413.5q81 183 204 402q-67 -49 -170 -49z" />
    <glyph glyph-name="eight" unicode="8" horiz-adv-x="842" 
d="M306 59q91 3 140 88t49 189q0 67 -20.5 130t-62.5 101q-51 -49 -94 -112.5t-70 -136t-27 -147.5q0 -53 24 -82t61 -30zM474 747q64 43 101.5 100.5t53.5 120t16 118.5q0 82 -27.5 128t-68.5 46q-49 0 -88 -35.5t-61 -89.5t-22 -109q0 -93 27 -160.5t69 -118.5zM339 678
l-27 38q-34 47 -63 93.5t-47 98.5t-18 116q0 99 36 165.5t94 106.5t127 57.5t136 17.5q80 0 145 -30.5t103.5 -95t38.5 -166.5q0 -133 -81 -250t-225 -171q59 -53 103 -103.5t69 -108t25 -131.5q0 -104 -60.5 -186.5t-153.5 -130t-191 -47.5q-88 0 -169 33.5t-132 99.5
t-51 164q0 79 33 146t84.5 121.5t110.5 95t113 67.5z" />
    <glyph glyph-name="nine" unicode="9" horiz-adv-x="841" 
d="M312 778q-2 -26 -2 -50q0 -56 11 -103q17 -67 66 -105q39 -32 103 -37q15 -2 31 -2q58 133 72 302q2 24 2 49q0 34 -4 70q-7 61 -33 103.5t-78 46.5h-8q-33 0 -59 -24q-30 -26 -51.5 -69.5t-34 -91.5t-15.5 -89zM463 366q-26 0 -50 2q-114 9 -190 62q-92 64 -132 161
q-33 83 -33 163q0 14 1 28q9 105 52 180t107.5 120t140.5 64q56 14 112 14q19 0 37 -2q114 -10 185 -73.5t100 -164.5q23 -75 23 -163q0 -29 -3 -60q-11 -127 -62.5 -245.5t-126.5 -222.5t-158 -190.5t-158.5 -150.5t-127.5 -102t-64 -45q-22 -9 -48 -9h-10q-7 1 -15 2
q-42 7 -73 28q-29 19 -29 44v5q0 6 5 10q322 205 517 545z" />
    <glyph glyph-name="colon" unicode=":" horiz-adv-x="497" 
d="M144 75q-56 10 -88 55q-26 38 -26 85q0 10 1 21q10 61 53 96q37 29 82 29q9 0 18 -1q57 -9 89 -55q26 -37 26 -85q0 -10 -1 -21q-10 -60 -54 -95q-37 -30 -84 -30q-8 0 -16 1zM270 531q-56 10 -88 55q-26 37 -26 85q0 10 1 21q10 61 53 95q37 30 84 30q8 0 16 -1
q56 -10 88 -55q26 -37 26 -85q0 -10 -1 -21q-10 -61 -53 -95q-37 -30 -84 -30q-8 0 -16 1z" />
    <glyph glyph-name="semicolon" unicode=";" horiz-adv-x="510" 
d="M96 55q-15 30 -15 65q0 11 1 22q9 56 48 90.5t89 34.5q59 0 95 -45t36 -101q0 -96 -88 -217.5t-209.5 -213.5t-232.5 -111q94 60 155 149t91 178.5t30 148.5zM321 531q-56 10 -88 55q-26 37 -26 85q0 10 1 21q10 61 53 95q37 30 84 30q8 0 16 -1q56 -10 88 -55
q26 -37 26 -85q0 -10 -1 -21q-10 -61 -53 -95q-37 -30 -84 -30q-8 0 -16 1z" />
    <glyph glyph-name="semicolon" unicode="&#x37e;" horiz-adv-x="510" 
d="M96 55q-15 30 -15 65q0 11 1 22q9 56 48 90.5t89 34.5q59 0 95 -45t36 -101q0 -96 -88 -217.5t-209.5 -213.5t-232.5 -111q94 60 155 149t91 178.5t30 148.5zM321 531q-56 10 -88 55q-26 37 -26 85q0 10 1 21q10 61 53 95q37 30 84 30q8 0 16 -1q56 -10 88 -55
q26 -37 26 -85q0 -10 -1 -21q-10 -61 -53 -95q-37 -30 -84 -30q-8 0 -16 1z" />
    <glyph glyph-name="less" unicode="&#x3c;" horiz-adv-x="1070" 
d="M873 251q-29 9 -125 43l-248.5 88t-271.5 86.5t-190 37.5q-8 12 -8 31q0 13 4 29q11 44 38 80q111 0 243.5 28t262 68t234.5 79l165 63q50 20 55 21q8 -13 8 -31q0 -13 -4 -29q-11 -44 -38 -80q-81 -30 -272 -82.5l-383 -100.5q313 -95 483 -163q73 -28 81 -28
q9 -13 9 -33q0 -12 -4 -27q-12 -45 -39 -80z" />
    <glyph glyph-name="equal" unicode="=" horiz-adv-x="1080" 
d="M1008 610q-58 0 -203 -0.5t-304.5 -0.5t-275 -0.5t-123.5 -0.5q-9 13 -9 32q0 12 4 28q12 44 39 80h386.5t356 1t163.5 1q8 -12 8 -31q0 -13 -4 -29q-11 -44 -38 -80zM945 376q-58 0 -203 -0.5t-304.5 -0.5t-275 -0.5t-123.5 -0.5q-9 13 -9 32q0 12 4 28q11 44 39 80
q178 0 386 0.5t356 1t164 0.5q8 -12 8 -31q0 -13 -4 -29q-11 -44 -38 -80z" />
    <glyph glyph-name="greater" unicode="&#x3e;" horiz-adv-x="1070" 
d="M197 905q29 -9 125 -43l248.5 -88t271.5 -86.5t190 -37.5q8 -12 8 -31q0 -13 -4 -29q-11 -44 -38 -80q-111 0 -243.5 -28t-262 -68t-234.5 -79l-165 -63q-50 -20 -55 -21q-8 13 -8 31q0 13 4 29q11 44 38 80q81 30 272 82.5l383 100.5q-313 95 -483 163q-73 28 -81 28
q-9 13 -9 33q0 12 4 27q12 45 39 80z" />
    <glyph glyph-name="question" unicode="?" horiz-adv-x="789" 
d="M598 1119q0 40 -13 83.5t-40 73.5t-69 30q-50 0 -85.5 -36t-56.5 -91t-28 -115q-3 -30 -3 -57q0 -28 3 -53q-48 0 -93 11t-74 36.5t-29 70.5q0 105 38.5 172.5t97.5 105.5t124.5 53t121.5 15q85 0 159.5 -37t120 -110t45.5 -183q0 -91 -37.5 -169t-92 -144.5
t-109.5 -123.5q-56 -57 -94.5 -106t-38.5 -91q0 -55 -20.5 -83.5t-51.5 -38.5q-27 -9 -56 -9h-6q-47 2 -68.5 18.5t-21.5 43.5q0 42 22 87.5t57 94t77 100.5q53 65 103.5 137t84 150.5t33.5 164.5zM268 -19q-57 10 -89 55q-25 38 -25 84q0 11 1 22q10 61 53 96q36 29 81 29
q10 0 19 -1q56 -9 88 -55q26 -37 26 -85q0 -10 -1 -21q-10 -60 -53 -95q-37 -30 -84 -30q-8 0 -16 1z" />
    <glyph glyph-name="at" unicode="@" horiz-adv-x="1817" 
d="M1156 1418q131 0 210 -61t116 -163.5t37 -230.5v-9q0 -124 -28 -255q-28 -136 -78 -264t-115 -230.5t-138 -163.5t-145 -61q-62 0 -95 29.5t-45.5 70.5t-12.5 76q0 63 15 147q-27 -70 -62 -136q-46 -85 -102 -139q-49 -48 -104 -48q-39 0 -66 13t-44 33
q-25 31 -33.5 67.5t-8.5 62.5q0 36 8.5 105.5t26.5 152.5q23 109 62 212q34 89 81 149q27 33 57.5 52t65.5 19q65 0 123.5 -31.5t102.5 -82.5v-2l1 3q1 4 4 13.5t7 20.5q15 45 61.5 62t103.5 17q33 0 59 -8t40 -24q-17 -47 -38 -113q-27 -83 -54 -177q-28 -100 -45 -191
q-16 -79 -16 -135q0 -16 4.5 -31t20.5 -15q39 0 83.5 50.5t86 135t74.5 190.5t51 218q16 98 16 189v29q-2 106 -31.5 190.5t-91.5 135t-164 50.5q-160 0 -294 -60t-242 -164t-189.5 -237.5t-136 -282.5t-82 -300.5t-27.5 -287.5q0 -109 21 -210t71 -180.5t133 -126.5
t208 -47q150 0 289.5 64.5t263.5 175t227.5 253.5t182 302.5t129.5 321.5q0 -113 -37 -244.5t-105.5 -265.5t-166 -256t-219 -218.5t-264 -153t-300.5 -56.5q-181 0 -313 86t-203.5 231.5t-71.5 323.5q0 229 48 439t142 387t230.5 307.5t314 203.5t391.5 73zM967 675
q-48 68 -89 68q-33 0 -63 -59q-35 -71 -61 -177q-18 -73 -30 -142q-22 -130 -22 -162q0 -18 4.5 -34.5t19.5 -16.5q19 0 44.5 39.5t53.5 101.5q41 90 77 188q49 137 66 194z" />
    <glyph glyph-name="A" unicode="A" horiz-adv-x="1227" 
d="M699 724l-29 -76l-67.5 -174.5t-81 -178.5t-97.5 -158.5t-116 -114t-138 -42.5q-71 0 -117.5 29.5t-69.5 80t-23 114.5q0 73 24.5 154.5t76.5 159t132 140.5t190.5 101.5t253.5 38.5l21 51q34 86 79 184t104 186t134.5 145t171.5 57q53 0 83 -17.5t42 -45.5
q11 -27 11 -59v-5q-6 -87 -32 -159q-47 -152 -99.5 -339.5t-91 -354t-38.5 -243.5q0 -16 6.5 -31t31.5 -15t64.5 50t81 120t74.5 136t47 103q0 -19 -20.5 -84t-57.5 -148.5t-87 -163t-109 -132.5t-123 -53q-62 0 -95 29t-45 70.5t-12 76.5q0 80 31 231q28 137 68 294
q-85 32 -178 43zM365.5 683.5q-117.5 -50.5 -190 -163t-72.5 -213.5q0 -36 9 -65.5t32.5 -47t64.5 -17.5q74 0 132.5 49t104 124.5t80 159.5t59.5 156l26 68q-128 0 -245.5 -50.5zM724 786q82 -10 172 -33q89 328 152 526q-57 0 -110.5 -66.5t-106.5 -178t-107 -248.5z" />
    <glyph glyph-name="B" unicode="B" horiz-adv-x="1167" 
d="M515 1126q34 48 120 58q20 3 38 3q60 0 101 -29q-16 -37 -54.5 -138t-81.5 -237t-74.5 -278.5t-31.5 -258.5q0 -66 21 -105t66 -39q50 0 91.5 46.5t71.5 118.5t48 150q-78 24 -128.5 78.5t-50.5 141.5q0 58 33.5 101.5t85.5 66.5q64 41 111 109.5t47 144.5
q0 71 -29 127.5t-89 89.5t-153 33q-111 0 -200.5 -46t-153 -120.5t-97.5 -163.5t-34 -174q0 -75 29 -139t90 -105q-71 -33 -139 -33h-15q-75 4 -126 53t-51 146q0 151 71 278t187.5 220.5t259 145.5t286.5 52q94 0 176.5 -30t133 -95.5t50.5 -172.5q0 -73 -50 -151
t-167 -148q49 -7 90.5 -37t67.5 -85.5t26 -141.5q0 -52 -12 -105q94 26 171 104q-23 -56 -71.5 -92.5t-110.5 -53.5q-35 -114 -110.5 -212.5t-178 -160.5t-215.5 -62q-97 0 -156 42t-85.5 114.5t-26.5 164.5q0 142 42.5 305.5t93.5 303t83 216.5zM840 471q11 66 11 117
q0 46 -17 64.5t-38 18.5q-54 -4 -54 -56q0 -49 26.5 -85.5t71.5 -58.5z" />
    <glyph glyph-name="C" unicode="C" horiz-adv-x="767" 
d="M770 913q-28 -27 -108 -31h-19q-68 0 -129 25q25 21 50.5 67.5t45 104t27.5 110.5q3 24 3 44q0 25 -5 45q-10 36 -45 36q-75 0 -142 -79t-118 -207.5t-80.5 -282t-29.5 -302.5q0 -81 18 -150.5t57.5 -112.5t104.5 -43q76 0 143 36.5t124.5 97.5t107.5 136t92 154
q-10 -61 -41 -137t-82 -153.5t-120.5 -143.5t-156.5 -106.5t-191 -40.5q-112 0 -181.5 60.5t-102 162.5t-32.5 227q0 127 24.5 265t73 266.5t120.5 232.5t167 165.5t213 61.5q100 0 159 -34.5t85 -90.5t27 -123v-8q0 -64 -16 -127q-17 -68 -43 -125z" />
    <glyph glyph-name="D" unicode="D" horiz-adv-x="1230" 
d="M361 783q22 70 38 135q24 96 24 159v5q-2 65 -46 65q60 35 120 35q62 0 95 -29.5t45 -70.5t12 -76q0 -73 -31 -184l-2 -6h10q125 0 264 -29l1 33q0 82 -13 159q-14 92 -53 166.5t-109 119t-180 44.5q-76 0 -138.5 -27t-109.5 -72q-110 -113 -110 -252q0 -64 19.5 -108.5
t40.5 -69.5t29 -30q0 -1 1 -2q43 21 93 35zM598 756q-25 -80 -55 -163l-82 -214l-39 -101q-39 -92 -119 -101q-8 -1 -15 -1q-70 0 -128 66q7 19 29 72l68 172q39 103 78 217q-79 -37 -133 -88q-68 -65 -101 -139.5t-33 -140.5q0 -134 77 -198q67 -57 178 -57q90 0 189.5 46
t185.5 139q74 81 125 199q49 113 64 260q-138 32 -289 32zM-40 312q0 115 63 225.5t195 186.5q-6 -2 -21.5 -4t-29.5 -2q-62 0 -104 30t-63.5 80.5t-21.5 112.5q0 85 44 177t135 167q75 62 183.5 99.5t253.5 37.5q209 0 340 -90.5t181 -249.5q30 -95 30 -209q0 -72 -12 -152
q163 -69 247 -197q-91 87 -256 147q-74 -327 -316 -527q-100 -81 -223 -125.5t-264 -44.5q-156 0 -257 84q-49 42 -76.5 106t-27.5 148z" />
    <glyph glyph-name="E" unicode="E" horiz-adv-x="741" 
d="M773 946q-27 -26 -101 -31h-18q-64 0 -125 25q95 133 95 266q0 44 -17.5 75.5t-59.5 31.5q-58 0 -107 -63t-79.5 -157t-30.5 -185q0 -78 36 -121q21 -26 59 -26q24 0 55 11q5 1 10 1q19 0 31 -23q15 -30 15 -72q-88 0 -161.5 -56t-118 -138.5t-44.5 -161.5
q0 -64 27 -104.5t70 -60.5t91 -20q76 0 138.5 36.5t115.5 97.5t99 136t88 154q-10 -61 -38.5 -137t-75.5 -153.5t-113 -143.5t-150.5 -106.5t-187.5 -40.5q-85 0 -156.5 34t-115.5 96t-44 144q0 95 51.5 182.5t130.5 154t166 102.5q-37 8 -81 38t-78 88.5t-34 157.5
q0 76 24.5 154.5t75 144t129 105.5t187.5 40q129 0 213 -71.5t84 -185.5q0 -60 -18.5 -120.5t-36.5 -97.5z" />
    <glyph glyph-name="F" unicode="F" horiz-adv-x="736" 
d="M345 562h-73q-21 11 -29 40q-6 23 -6 48v13q3 32 13 51q57 -27 114 -45v1l73 418q25 130 71 180q-59 19 -105 19q-79 0 -151 -18t-129 -58t-90.5 -105t-33.5 -139q0 -70 40.5 -109t96.5 -39q0 -50 -15.5 -78.5t-39.5 -40.5t-48 -12q-80 0 -128 68.5t-48 166.5
q0 80 38.5 166t124 160t214 124t329.5 50q191 0 306 -77q-9 -92 -86 -178q-39 16 -63 27q-21 -74 -28 -126q-25 -190 -82 -443h23q80 0 150 16q111 24 168 75q-44 -76 -144 -109q-91 -30 -210 -39q-50 -203 -136 -365q-56 -102 -129 -163t-166 -61q-75 0 -125 46
q-49 44 -49 124q0 169 190 216q-83 -87 -83 -184q5 -78 55 -78q41 0 67 43t50 116q24 72 45 162q15 67 29 137z" />
    <glyph glyph-name="G" unicode="G" horiz-adv-x="928" 
d="M-32 -423q0 136 123 267.5t371 252.5q18 90 35 224l6 46q-34 -59 -80.5 -121t-106.5 -106t-133 -44q-223 5 -223 407q0 116 29 243t83.5 247t131 216.5t172 154t206.5 57.5q101 0 160 -34.5t85 -90.5t26.5 -123.5t-16 -135t-42.5 -124.5q-28 -27 -108 -31h-19
q-69 0 -130 25q32 23 59.5 70.5t46 104.5t24.5 110q1 15 1 29q0 33 -8 58q-12 35 -46 35q-72 0 -134.5 -57t-112.5 -150t-85.5 -204.5t-54.5 -222.5t-19 -204q0 -76 14 -121.5t36 -65.5t45 -20q38 0 75 37t69 92.5t57.5 114t40.5 104.5q7 26 15 45q34 49 120 59q18 2 35 2
q61 0 104 -29q-26 -105 -49 -228l-51 -257l144 66l190 85q-77 -48 -175 -103l-169 -93q-31 -142 -71 -276q-26 -87 -61.5 -174t-86.5 -161q-56 -83 -137 -134t-197 -51q-82 0 -135.5 57t-53.5 152zM425 -61l22 91q-66 -35 -131 -81t-119.5 -102.5t-88 -123.5t-33.5 -143
q0 -42 16.5 -68t54.5 -26q56 0 102 52t81 127q36 77 60.5 152t35.5 122z" />
    <glyph glyph-name="H" unicode="H" horiz-adv-x="1212" 
d="M264 440q-203 -132 -209 -327q1 -86 40 -88q65 0 169 415zM538 523q-171 -625 -437 -625q-77 0 -119 54.5t-42 140.5q0 249 249 405q48 30 101 54q104 387 192 675q1 1 1 2l5 17t3 20t-5.5 17t-20.5 7q-64 0 -125 -47.5t-110 -120.5t-78 -153t-29 -144q0 -66 24.5 -123.5
t81.5 -95.5q-3 -1 -5 -2q-22 -11 -42.5 -18t-55.5 -7q-56 0 -91 28t-52 69.5t-17 80.5q0 122 62 240.5t162 214t218 153t230 57.5q52 0 77 -21t32 -53q4 -18 4 -37q0 -16 -3 -33q-5 -38 -17 -72q-90 -280 -169 -579q92 13 194 13q37 0 75 -2q53 207 113 405.5t94 298.5
q76 32 150 32q33 0 59 -8t40 -25q-31 -88 -100.5 -320t-132 -477t-62.5 -346q0 -16 4 -31t20 -15q25 0 63 50t77 120t70 136t45 103q0 -19 -20.5 -84t-56.5 -148.5t-83 -163t-101.5 -132.5t-109.5 -53q-63 0 -96 29t-45 70.5t-12 76.5q0 70 18.5 166.5t35.5 169.5
q-124 32 -232 32q-15 0 -31 -1z" />
    <glyph glyph-name="I" unicode="I" horiz-adv-x="686" 
d="M291 559q36 156 81 316q57 202 85 291.5t28 99.5t-5.5 17t-20.5 7q-64 0 -125 -47.5t-109.5 -120.5t-78 -153t-29.5 -144q0 -66 25 -123.5t81 -95.5q-3 -1 -5 -2q-22 -11 -42.5 -18t-55.5 -7q-56 0 -91 28t-52 69.5t-17 80.5q0 122 62 240.5t162 214t218 153t230 57.5
q52 0 77.5 -21t31.5 -53q4 -18 4 -37q0 -16 -3 -33q-5 -38 -16 -72q-44 -132 -102 -323q-50 -163 -104.5 -417t-54.5 -462q-45 -45 -127 -57q-19 -3 -36 -3q-57 0 -96 28q0 215 85 587z" />
    <glyph glyph-name="J" unicode="J" horiz-adv-x="930" 
d="M712 209l141 65l177 81q-76 -49 -167 -101l-161 -90q-31 -142 -71 -276q-26 -87 -61.5 -174t-86.5 -161q-56 -83 -137 -134t-196 -51q-83 0 -136.5 57t-53.5 152q0 136 123 267.5t371 252.5q43 201 78 400q33 184 71.5 366t70.5 287.5t32 115.5t-5.5 17t-19.5 7
q-64 0 -125 -47.5t-110 -120.5t-78 -153t-29 -144q0 -66 24.5 -123.5t81.5 -95.5l-6 -2q-21 -11 -42 -18t-55 -7q-56 0 -91.5 28t-52 69.5t-16.5 80.5q0 122 62 240.5t161.5 214t218 153t230.5 57.5q51 0 76.5 -21t32.5 -53q4 -18 4 -37q0 -16 -3 -33q-6 -38 -17 -72
q-63 -195 -106 -382t-81 -381zM417 -61l22 91q-66 -35 -131 -81t-119.5 -102.5t-88 -123.5t-33.5 -143q0 -42 17 -68t54 -26q56 0 102 52t81 127q36 77 60.5 152t35.5 122z" />
    <glyph glyph-name="K" unicode="K" horiz-adv-x="1235" 
d="M660 434q-93 -224 -138 -416q-34 -19 -75 -28.5t-66 -9.5q-70 0 -111.5 45t-41.5 131q0 138 44 337t100.5 391.5l97.5 323.5q3 10 6 19q1 1 1 2q2 7 4.5 17t2.5 20t-5.5 17t-19.5 7q-64 0 -125 -47.5t-110 -120.5t-78 -153t-29 -144q0 -66 24.5 -123.5t81.5 -95.5l-6 -2
q-21 -11 -41.5 -18t-55.5 -7q-56 0 -91.5 28t-52 69.5t-16.5 80.5q0 122 62 240.5t162 214t218 153t230 57.5q51 0 76.5 -21t32.5 -53q4 -18 4 -37q0 -16 -3 -33q-5 -38 -17 -72l-9 -28l-96 -300.5t-112.5 -392t-51.5 -294.5q0 -39 15 -39q16 55 53.5 163.5t93.5 245.5
q3 8 7 17q-7 33 -12 65q0 34 25.5 62.5t61.5 49.5l4 2q18 40 39 81q69 140 148 259t163.5 193.5t169.5 74.5q55 0 78.5 -32.5t23.5 -81.5q0 -86 -46 -188t-94 -146q-24 -13 -71 -19q-9 -1 -19 -1q-39 0 -87 20q28 39 44 82q14 35 14 62q0 6 -1 12q-5 31 -39 31
q-31 0 -136 -187l-69 -129q13 -52 42 -146q32 -104 71.5 -216.5t76.5 -193t59 -80.5q25 0 63 50t77 120t70 136t45 103q0 -19 -20.5 -84t-56.5 -148.5t-83.5 -163t-101.5 -132.5t-110 -53q-59 0 -114 67t-101 169.5t-78 216.5q-1 0 -1 1z" />
    <glyph glyph-name="L" unicode="L" horiz-adv-x="854" 
d="M954 561q0 -83 -29.5 -183t-84.5 -190.5t-133 -149t-176 -58.5q-84 0 -155 9t-130 20q-96 18 -166 18q-71 0 -120 -47q0 28 12.5 73.5t44 84.5t85.5 54q9 2 17 4q34 57 41 150q6 81 6 183v74q0 100 6 203q7 119 31 228.5t75 196t139.5 138t224.5 51.5q89 0 140.5 -35
t73.5 -92q21 -54 21 -118v-6q0 -67 -16.5 -134t-42.5 -122q-28 -27 -107 -31h-19q-69 0 -130 25q22 18 47 63.5t44.5 103.5t26.5 112q2 19 2 36q0 32 -8 55q-13 36 -56 36q-67 0 -106.5 -41.5t-59.5 -113t-26 -163.5t-6 -193q0 -100 -11.5 -206t-47 -206.5t-103.5 -187.5
q73 -7 143 -22q43 -9 86 -15.5t85 -6.5q111 0 183.5 55.5t119.5 146.5t79 201z" />
    <glyph glyph-name="M" unicode="M" horiz-adv-x="1764" 
d="M477 1227v2q3 7 5.5 17t2.5 20t-5.5 17t-20.5 7q-63 0 -124.5 -47.5t-110 -120.5t-78 -153t-29.5 -144q0 -66 25 -123.5t81 -95.5q-2 -1 -5 -2q-21 -11 -42 -18t-56 -7q-55 0 -90.5 28t-52.5 69.5t-17 80.5q0 122 62.5 240.5t162 214t217.5 153t230 57.5q52 0 77.5 -21
t31.5 -53q4 -19 4 -40q0 -15 -2 -30q-6 -38 -17 -72q-4 -12 -10 -28l-95.5 -300.5t-112 -392t-51.5 -294.5q0 -39 15 -39q15 55 49 163.5t83.5 245t112.5 277t136 259.5t154 193.5t166 74.5q38 0 59.5 -13.5t30 -33t8.5 -37.5q0 -65 -136.5 -511t-136.5 -579q0 -39 15 -39
q15 55 47.5 155t80 224t106 250t126.5 232.5t142 172.5t151 66q33 0 65 -19t32 -60q0 -103 -115 -472.5t-115 -502.5q0 -16 4.5 -31t20.5 -15q34 0 100.5 83t126 179t79.5 147q0 -19 -25.5 -84t-69.5 -148.5t-98.5 -163t-114 -132.5t-115.5 -53q-71 0 -106 48.5t-43 128.5
q-3 30 -3 62q0 55 8 117q12 99 36.5 202t53.5 195.5t54.5 161t40.5 98.5q-32 0 -93 -110.5t-129.5 -272t-126.5 -324.5t-88 -277q-67 -29 -120 -29h-3q-104 3 -136 100q-21 64 -21 150q0 46 6 98q16 150 57 310t84 287t64 179q-31 0 -123 -187.5t-186.5 -437.5t-144.5 -461
q-34 -19 -74.5 -28.5t-66.5 -9.5q-69 0 -110.5 45t-41.5 131q0 138 44 337t100 391.5t98 323.5q3 10 6 19z" />
    <glyph glyph-name="N" unicode="N" horiz-adv-x="1260" 
d="M477 1227v2q3 7 5.5 17t2.5 20t-5.5 17t-20.5 7q-64 0 -125 -47.5t-109.5 -120.5t-78 -153t-29.5 -144q0 -66 25 -123.5t81 -95.5q-3 -1 -5 -2q-22 -11 -42.5 -18t-55.5 -7q-56 0 -91 28t-52 69.5t-17 80.5q0 122 62 240.5t162 214t218 153t230 57.5q52 0 77.5 -21
t31.5 -53q4 -19 4 -40q0 -15 -2 -30q-6 -38 -17 -72q-4 -12 -10 -28l-95.5 -300.5t-112 -392t-51.5 -294.5v-4q0 -35 15 -35q15 55 49 163.5t83.5 245t112.5 277t136 259.5t154 193.5t166 74.5q42 0 62 -12t26.5 -30t6.5 -36q0 -77 -26.5 -189t-64.5 -238
q-58 -203 -102.5 -391t-44.5 -271q0 -16 4 -31t20 -15q34 0 100.5 83t126 179t79.5 147q0 -19 -25.5 -84t-69.5 -148.5t-98.5 -163t-114 -132.5t-115.5 -53q-62 0 -95 29t-45 70.5t-12 76.5q0 196 57 455t134 493q-31 0 -123 -187.5t-186.5 -437.5t-144.5 -461
q-34 -19 -74.5 -28.5t-66.5 -9.5q-70 0 -111 45t-41 131q0 138 44 337t100 391.5t98 323.5q3 10 6 19z" />
    <glyph glyph-name="O" unicode="O" horiz-adv-x="994" 
d="M400 137q63 0 117.5 48.5t97.5 129t74 181t47 206.5q-183 14 -284 91t-134 185q-45 -131 -71.5 -265.5t-26.5 -269.5q0 -81 18 -150.5t57.5 -112.5t104.5 -43zM321 1241q18 49 53.5 89.5t93 65.5t141.5 25q103 0 176 -61.5t112 -165.5t39 -231q0 -102 -17 -213
q143 2 338 45q-193 -70 -346 -87q-27 -138 -82.5 -267t-136.5 -233t-185.5 -166t-230.5 -62q-112 0 -181.5 60.5t-102 162.5t-32.5 227q0 140 24 266t58 229.5t66 176.5t50 108q34 19 78 26q34 5 67 5h18zM744 762q8 86 8 164q0 114 -23 182.5t-59 98.5t-77 30t-79.5 -17.5
t-62.5 -55.5t-24 -99q0 -65 31.5 -127t101.5 -108.5t184 -67.5z" />
    <glyph glyph-name="P" unicode="P" horiz-adv-x="1148" 
d="M514 421q-46 -249 -46 -418q-45 -45 -127 -57q-19 -3 -36 -3q-57 0 -96 28q0 231 98 620t98 535q45 45 127 57q19 3 36 3q57 0 96 -28q0 -76 -98 -492q-21 -89 -37 -171h27q78 0 151.5 68.5t121.5 186t48 264.5q0 78 -26 143.5t-85.5 105t-158.5 39.5
q-128 0 -227.5 -59.5t-162.5 -151.5t-85 -194q-10 -47 -10 -91q0 -52 14 -101q25 -90 105 -144q-3 -1 -6 -3q-21 -11 -42 -17.5t-55 -6.5q-81 0 -126 59t-51 153q-1 14 -1 28q0 81 30 173q36 107 117.5 207t211.5 171q77 40 182.5 65.5t211.5 25.5q154 0 247 -51.5
t134.5 -137t41.5 -186.5q0 -166 -70 -313.5t-181.5 -239t-235.5 -91.5q-59 0 -125 21q-5 1 -10 3z" />
    <glyph glyph-name="Q" unicode="Q" horiz-adv-x="1061" 
d="M245 443q0 -81 18 -150.5t57.5 -112.5t104.5 -43q76 0 134 58.5t99 150.5t67.5 199t38.5 208t12 173q0 114 -22.5 182.5t-59 98.5t-77.5 30t-79 -17.5t-62.5 -55.5t-24.5 -99q0 -124 45.5 -207.5t114.5 -129.5q-112 35 -177.5 101.5t-91.5 148.5q-45 -131 -71 -265.5
t-26 -269.5zM274 -19q-94 6 -155 60q-70 60 -102.5 162t-32.5 227q0 135 22.5 256t54.5 221t63.5 174.5t53.5 118.5l4 10q34 21 78 27q32 5 61 5q12 0 24 -1q18 49 53.5 89.5t93 65.5t142.5 25q102 0 175 -61.5t112 -165.5t39 -231q0 -123 -25.5 -259t-78 -264.5
t-131.5 -232t-185 -165.5q-79 -46 -173 -58l-75 -68q77 -8 151 -21q49 -8 95 -14.5t86 -6.5q104 0 182.5 46t136 120.5t98 163.5t68.5 177t47 161q3 10 5 19q0 -55 -17.5 -140t-51.5 -182.5t-83.5 -193t-114 -174.5t-142.5 -127t-169 -48q-81 0 -155 8.5t-139 19.5
q-106 18 -186 18h-23q-35 -25 -63.5 -42t-43.5 -17q-5 0 -9 4t-4 9q0 54 25 105.5t69 85t102 33.5q64 21 118 61z" />
    <glyph glyph-name="R" unicode="R" horiz-adv-x="1124" 
d="M771 493q14 -103 52 -228q58 -191 122 -191q39 0 120.5 160.5l114 228t44.5 98.5q0 -19 -20.5 -84t-104 -258t-137.5 -246t-110 -53q-139 0 -203 185.5t-88 373.5q1 2 3 3q-19 2 -37 5l-119 -484q-45 -45 -127 -57q-19 -3 -36 -3q-57 0 -96 28q89 223 187 611
q69 277 70 436q0 63 -11 108q45 55 163 60q57 0 96 -28q0 -155 -93 -531l-18 -72h13q78 0 161 63t121.5 156t38.5 240q0 78 -26 143.5t-85.5 105t-158.5 39.5q-128 0 -227.5 -59.5t-162.5 -151.5t-85 -194q-10 -47 -10 -91q0 -52 14 -101q26 -90 105 -144q-3 -1 -6 -3
q-21 -11 -42 -17.5t-55 -6.5q-80 0 -125.5 59t-51.5 153q-1 13 -1 27q0 81 31 174q35 107 116.5 207t211.5 171q77 40 182.5 65.5t211.5 25.5q154 0 247 -51.5t134.5 -137t41.5 -186.5q0 -135 -40.5 -236.5t-90.5 -155.5q-50 -59 -141 -115q-43 -27 -93 -41z" />
    <glyph glyph-name="S" unicode="S" horiz-adv-x="773" 
d="M498 997q30 37 50 80q26 57 26 130q0 45 -26.5 75.5t-78.5 30.5t-88 -43.5t-36 -127.5q0 -131 107 -295q61 -86 116 -190q199 -18 365 -146q-203 83 -341 85q6 -16 14 -40q14 -42 26.5 -102.5t12.5 -130.5q0 -175 -107.5 -297t-296.5 -122q-107 0 -194 83t-87 227
q0 126 98 247.5t268 175.5l-95 149q-102 154 -102 315q0 134 96.5 225.5t260.5 91.5q101 0 164 -41.5t92 -108t29 -140.5q0 -42 -9.5 -80t-28.5 -66q-30 -31 -110 -35q-71 0 -125 50zM270 12q59 0 103 74.5t44 184.5q0 127 -17 192q-15 58 -40 109q-85 -28 -133 -89
t-68 -131t-20 -131q0 -75 27.5 -142t103.5 -67z" />
    <glyph glyph-name="T" unicode="T" horiz-adv-x="858" 
d="M1045 1344q0 -27 -11.5 -72.5t-32 -83.5t-47.5 -48q-47 43 -126 90t-175 64q-71 13 -142 13q-26 0 -51 -2q-96 -5 -177 -41t-131 -108t-50 -189q0 -70 40 -109t97 -39q0 -50 -15.5 -78.5t-39.5 -40.5t-49 -12q-79 0 -127 68.5t-48 166.5q0 80 38.5 166t124 160t224 120.5
t338.5 46.5q229 0 360 -72zM361 616q98 414 98 560q45 55 163 60q57 0 96 -28q0 -76 -98 -517t-98 -688q-45 -45 -127 -57q-19 -3 -36 -3q-57 0 -96 28q0 231 98 645z" />
    <glyph glyph-name="U" unicode="U" horiz-adv-x="1192" 
d="M1043 1342q76 32 150 32q33 0 59 -8t40 -25q-32 -88 -101.5 -320t-131.5 -477t-62 -346q0 -16 4 -31t20 -15q25 0 63 50t77 120t70 136t45 103q0 -19 -20.5 -84t-56.5 -148.5t-83.5 -163t-101.5 -132.5t-110 -53q-62 0 -95 29t-45 70.5t-12 76.5q0 63 20 171t51 239
q-45 -114 -97 -218.5t-109.5 -187t-118.5 -131.5t-123 -49t-95 29t-45 70.5t-12 76.5q0 110 55 342.5t120.5 462t105.5 352.5q-95 0 -184 -76.5t-146 -189.5t-57 -222q0 -66 25 -123.5t81 -95.5q-3 -1 -5 -2q-21 -11 -42 -18t-56 -7q-55 0 -90.5 28t-52.5 69.5t-17 80.5
q0 122 62.5 240.5t162 214t217.5 153t230 57.5q39 0 65.5 -15.5t42.5 -34.5t23 -31q-32 -88 -101.5 -320t-132 -477t-62.5 -346q0 -16 4.5 -31t20.5 -15q32 0 91 103t129.5 259t138.5 324l119.5 304.5t72.5 199.5z" />
    <glyph glyph-name="V" unicode="V" horiz-adv-x="1160" 
d="M632 1422q38 0 65 -15.5t43 -34.5t22 -31q-29 -88 -67.5 -320t-68.5 -477t-30 -346q0 -16 4.5 -31t19.5 -15q46 0 144.5 189t174.5 431q-71 38 -101.5 108.5t-30.5 153.5q0 98 31.5 193.5t80 159t98.5 63.5q58 0 89.5 -35t42.5 -90q11 -50 11 -107v-9q-3 -167 -92 -436
q46 -7 93 -7q93 0 193 29q-86 -59 -221 -59q-36 0 -76 4q-47 -137 -109 -269q-63 -135 -136 -245.5t-151.5 -178t-156.5 -67.5q-63 0 -96 29t-45 70.5t-12 76.5q0 110 22.5 342.5t57.5 462t72 352.5q-95 0 -183.5 -76.5t-145.5 -189.5t-57 -222q0 -66 24.5 -123.5
t81.5 -95.5l-6 -2q-21 -11 -42 -18t-55 -7q-56 0 -91.5 28t-52 69.5t-16.5 80.5q0 122 62 240.5t161.5 214t218 153t230.5 57.5zM952 817q55 189 55 335q0 40 -6 70t-28 30q-35 0 -72.5 -76t-37.5 -167q0 -55 20 -106t69 -86z" />
    <glyph glyph-name="W" unicode="W" horiz-adv-x="1655" 
d="M632 1422q39 0 65.5 -15.5t42.5 -34.5t22 -31q-29 -88 -67.5 -320t-68.5 -477t-30 -346q0 -16 4.5 -31t20.5 -15q30 0 63 66t66.5 171t65 228l60.5 241q51 219 85 319q46 119 121 119h5q1 0 2 1q5 1 10 1q23 0 47 -11q30 -12 64 -71q-14 -40 -31 -125
q-45 -222 -74.5 -494.5t-29.5 -398.5q0 -16 4.5 -31t20.5 -15q46 0 144.5 189t173.5 431q-70 38 -101 108.5t-31 153.5q0 98 32 193.5t80 159t98 63.5q59 0 90 -35t43 -90q11 -50 11 -107v-9q-4 -167 -92 -436q37 -5 77 -5q93 1 198 27q-92 -59 -224 -59q-30 0 -63 3
q-46 -137 -108 -268q-63 -135 -136 -245.5t-152 -178t-157 -67.5q-53 0 -84 29.5t-45.5 77t-16.5 103.5q-1 24 -1 47q0 31 2 61q5 53 10 94q-23 -76 -52.5 -148.5t-69 -132t-94 -95.5t-128.5 -36q-62 0 -95 29t-45.5 70.5t-12.5 76.5q0 110 23 342.5t57.5 462t72.5 352.5
q-95 0 -184 -76.5t-146 -189.5t-57 -222q0 -66 24.5 -123.5t81.5 -95.5q-3 -1 -5 -2q-22 -11 -42.5 -18t-55.5 -7q-56 0 -91 28t-52 69.5t-17 80.5q0 122 62 240.5t162 214t218 153t230 57.5zM1431 817q56 189 56 335q0 40 -6 70t-28 30q-35 0 -72.5 -76t-37.5 -167
q0 -55 20 -106t68 -86z" />
    <glyph glyph-name="X" unicode="X" horiz-adv-x="1225" 
d="M982 152q19 0 47 31.5t59 81.5q48 79 89.5 164.5t59.5 131.5q0 -24 -32.5 -118.5t-86.5 -202.5q-35 -68 -76 -127t-86 -96t-91 -37q-98 0 -160.5 61.5t-97.5 164.5q-30 89 -42 197q-9 74 -11 151l-162 -155q-84 -86 -148 -166q-58 -73 -90 -138q-32 -63 -32 -115
q-75 0 -114 15q-48 19 -48 58q0 31 27.5 74.5t76.5 95.5q72 77 175 169l154 135l47 40l113 98q1 92 9 182q11 140 29 254q25 149 45 212q-111 -4 -208 -97q-79 -76 -129 -181q-49 -104 -50 -210q0 -65 24 -121q24 -59 82 -98q-23 -12 -45.5 -19.5t-57.5 -7.5
q-46 0 -78.5 20.5t-51.5 51.5q-30 54 -30 106q0 73 23.5 145.5t64.5 140.5q81 131 204 227q94 74 198 115q94 37 182 37q39 0 66.5 -15t43.5 -34t21 -32q-12 -32 -23 -88q-14 -69 -26 -161q-11 -83 -19 -177q97 93 173.5 182.5t121 172t44.5 152.5q86 0 122.5 -21t36.5 -59
q0 -56 -52.5 -125t-140 -150l-195.5 -173l-117 -101q-3 -66 -3 -129q0 -51 2 -100q5 -124 26 -222q18 -87 51.5 -138.5t85.5 -51.5z" />
    <glyph glyph-name="Y" unicode="Y" horiz-adv-x="1224" 
d="M1043 1342q76 32 150 32q32 0 58.5 -8t40.5 -25q-106 -301 -171 -565.5t-128 -566.5l273 120q-30 -46 -284 -174q-30 -137 -69 -267q-26 -87 -61.5 -174t-86.5 -161q-56 -83 -137 -134t-197 -51q-82 0 -135.5 57t-53.5 152q0 136 123 267.5t371 252.5l69 328l59 275
q-42 -106 -93 -206.5t-109 -181.5t-121.5 -129t-129.5 -48q-63 0 -96 29t-45 70.5t-12 76.5q0 110 46 303.5t103 386t97 312.5q-95 0 -184 -76.5t-146 -189.5t-57 -222q0 -66 25 -123.5t81 -95.5q-3 -1 -5 -2q-22 -11 -42.5 -18t-55.5 -7q-56 0 -91 28t-52 69.5t-17 80.5
q0 122 62 240.5t162 214t218 153t230 57.5q39 0 65.5 -15.5t42.5 -34.5t22 -31q-30 -86 -91 -280t-114.5 -400.5t-53.5 -307.5q0 -16 4 -31t20 -15q38 0 96.5 90t123.5 226t126 282l106.5 264.5t63.5 172.5zM699 -61q11 45 21 91q-65 -35 -130 -81t-119.5 -102.5t-88 -123.5
t-33.5 -143q0 -42 16.5 -68t54.5 -26q56 0 102 52t81 127q36 77 60 152t36 122z" />
    <glyph glyph-name="Z" unicode="Z" horiz-adv-x="881" 
d="M859 1152q-81 -68 -127.5 -161t-84.5 -202q-47 -142 -129 -293.5t-254 -294.5q67 -8 131 -21q90 -21 177 -22q122 4 194 57.5t114 143.5t74 202q0 -83 -34.5 -183t-93.5 -190.5t-135 -149t-160 -58.5q-83 0 -154 9t-131 20q-96 18 -166 18t-120 -47q0 28 13 73.5t44 84.5
t85 54q13 3 25 5q40 51 66.5 122t50.5 156q27 99 67.5 207t111 216t187.5 207q-64 -7 -128 -7q-104 0 -207 19h-3q-21 0 -74 -79q-57 -86 -113 -296q-21 43 -21 110q0 90 33.5 201t90 199.5t126.5 121.5q37 -69 115 -105t174 -45q39 -4 78 -4q55 0 109 8q50 25 92.5 34
t98.5 12q0 -38 -27.5 -70.5t-94.5 -51.5z" />
    <glyph glyph-name="bracketleft" unicode="[" horiz-adv-x="558" 
d="M396 1512q15 76 72 76h347q-26 -152 -87 -152h-174l-361 -1580h220q-28 -152 -104 -152h-253q-72 11 -72 72v4z" />
    <glyph glyph-name="backslash" unicode="\" horiz-adv-x="574" 
d="M109 1365l180 -413l419 -947q-15 -21 -55 -24q-10 -1 -20 -1q-35 0 -68 11l-180 413l-419 948q15 21 55 24q8 1 16 1q37 0 72 -12z" />
    <glyph glyph-name="bracketright" unicode="]" horiz-adv-x="504" 
d="M189 -220q-15 -76 -72 -76h-347q26 152 87 152h174l361 1580h-220q28 152 104 152h253q72 -11 72 -72v-4z" />
    <glyph glyph-name="asciicircum" unicode="^" horiz-adv-x="544" 
d="M33 549q11 26 42 93l78.5 173t78 193t39.5 154q11 7 26 7q76 -2 111 -52q-4 -47 -4 -92q0 -55 7 -106q14 -93 36 -168.5t42 -130.5q13 -36 28 -98q-2 -30 -143 -47q0 42 -6.5 117.5t-19 149t-28.5 110.5q-111 -277 -138 -320q-12 -23 -12 -28v-1q-12 -7 -26 -7
q-74 0 -111 53z" />
    <glyph glyph-name="underscore" unicode="_" horiz-adv-x="1080" 
d="M945 -277q-58 0 -203 -0.5t-304.5 -0.5t-275 -0.5t-123.5 -0.5q-9 13 -9 32q0 13 4 28q11 44 39 80q178 0 386 0.5t356 1t164 0.5q8 -12 8 -30q0 -13 -4 -30q-11 -44 -38 -80z" />
    <glyph glyph-name="grave" unicode="`" horiz-adv-x="390" 
d="M101 1243q54 0 100 -44t80.5 -104t54.5 -113t24 -74q-145 36 -237.5 118t-92.5 152q0 25 19.5 45t51.5 20z" />
    <glyph glyph-name="a" unicode="a" horiz-adv-x="820" 
d="M611 198q0 -16 4 -31t20 -15q18 0 43.5 28t54.5 72q50 80 94 170.5t63 138.5q0 -25 -35 -125.5t-94 -213.5q-34 -65 -73.5 -119.5t-82.5 -88.5t-87 -34q-62 0 -95 29.5t-45 70.5t-12 76q0 63 14 147q-26 -70 -62 -136q-45 -85 -102 -139q-49 -48 -103 -48q-39 0 -66 13
t-44 33q-25 31 -34 67.5t-9 62.5q0 36 8.5 105t26.5 153q23 109 62 212q34 89 82 149q26 33 56.5 52t65.5 19q65 0 124 -31.5t103 -81.5q1 4 4 13.5t7 20.5q16 45 62 62t103 17q33 0 59 -8t40 -24q-17 -47 -38 -113q-27 -83 -54 -178q-28 -99 -45 -190q-15 -79 -15 -135z
M470 675q-47 68 -88 68q-34 0 -63 -59q-36 -71 -61 -177q-19 -73 -31 -142q-21 -130 -21 -162q0 -18 4 -34.5t19 -16.5q19 0 45 39.5t54 101.5q40 90 76 188q49 137 66 194z" />
    <glyph glyph-name="b" unicode="b" horiz-adv-x="746" 
d="M235 1309q34 49 120 59q19 2 35 2q63 0 104 -29q-45 -106 -112.5 -329t-122 -448t-60.5 -354q0 -27 4 -52q5 -27 17 -44.5t33 -17.5q28 0 61.5 55t63 137.5t48.5 168.5q-58 35 -86 92q-23 49 -23 100t27 103q22 41 63 67q40 27 96 27q38 0 71 -12q38 -13 65 -42
q21 -24 33 -58q11 -32 11 -74q0 -53 -10 -107q-10 -57 -23 -99q48 3 90 17q78 26 106 90q0 -40 -27.5 -69t-72.5 -46q-48 -19 -107 -24q-30 -93 -83 -186q-67 -119 -179 -194q-46 -29 -100 -45.5t-117 -16.5q-125 0 -171 81q-29 49 -29 127q0 112 52 340.5t116 451.5
t107 329zM436 506q5 28 7 54q4 29 4 53q0 10 -2 24t-7 27q-7 20 -26 20q-12 0 -20 -12q-9 -15 -9 -40q0 -27 9 -57q12 -44 44 -69z" />
    <glyph glyph-name="c" unicode="c" 
d="M545 653q0 -50 -25 -113q-17 -15 -65 -18q-52 0 -89 15q19 51 30 101q9 42 9 73v11q-1 34 -18 36q-44 -4 -81 -83q-43 -92 -70 -209q-31 -143 -31 -191q0 -65 17 -99q23 -46 64 -46q42 0 82 19.5t77 53.5q80 74 137 176t78 182q0 -55 -30 -132t-86 -175
q-61 -109 -148 -189t-202 -85q-98 0 -169 73q-30 33 -49 88q-16 49 -16 116q0 75 32 211q29 119 83 224q42 80 113 122q54 32 128 32q87 0 156 -48q73 -52 73 -145z" />
    <glyph glyph-name="d" unicode="d" horiz-adv-x="818" 
d="M664 1342q77 32 150 32q33 0 59.5 -8t39.5 -25q-19 -53 -57.5 -176.5l-83.5 -280.5q-72 -251 -121 -467q-33 -149 -33 -219q0 -13 3 -26q3 -20 21 -20q29 0 74 65q56 80 108 184.5t73 159.5q0 -27 -40 -139.5t-106 -231.5q-54 -98 -119 -159q-52 -51 -106 -51
q-36 0 -61.5 10.5t-43.5 27.5q-27 29 -37.5 67t-10.5 71q0 70 21 179q-18 -49 -49 -115q-33 -71 -75 -130q-35 -50 -75 -80t-82 -30q-38 0 -64 11.5t-43 30.5q-27 31 -36.5 69t-9.5 65q0 39 10 115t30 166q33 150 96 272q32 62 73.5 99.5t91.5 37.5q65 0 123.5 -31.5
t102.5 -81.5q52 196 101.5 363.5t75.5 245.5zM471 673q-48 70 -89 70q-25 0 -47.5 -33t-41.5 -85q-38 -108 -60 -232q-13 -68 -20 -120t-7 -70q0 -17 4 -34q3 -17 19 -17q19 0 47 44t58 111q45 97 82 200q41 113 55 166z" />
    <glyph glyph-name="e" unicode="e" 
d="M545 653q0 -64 -34 -128q-29 -55 -76 -93q-58 -48 -130 -48q-45 0 -79 36q-21 -105 -21 -145q0 -60 14 -94q24 -51 67 -51q64 0 120 40q54 37 100 96q40 52 73 112q52 96 81 183q0 -59 -58 -201q-30 -69 -73 -138q-59 -96 -139 -164q-86 -74 -190 -78h-5q-98 0 -170 73
q-30 33 -47.5 83.5t-17.5 120.5q0 80 35 226q29 111 80 209q29 54 72 92q66 62 169 62q75 0 141 -37q39 -24 63.5 -63t24.5 -93zM405 713v4q0 41 -18 41q-20 0 -38.5 -18.5t-35.5 -50.5q-27 -51 -49 -121q-17 -55 -30 -110q20 -16 38 -16q35 0 65 44q30 42 46 97
q22 84 22 130z" />
    <glyph glyph-name="f" unicode="f" horiz-adv-x="398" 
d="M241 207q28 -45 57 -133q23 -72 40 -159q21 -106 21 -211v-10q0 -133 -52 -224q-26 -42 -67 -65.5t-101 -23.5q-85 0 -135 38.5t-71.5 101t-21.5 134.5q0 133 28 331q34 250 94 532q46 218 98 419q50 197 98 345q19 47 73 69.5t97 22.5q33 0 59.5 -8t39.5 -25
q-45 -127 -85 -255q-58 -183 -107 -367q-60 -226 -109 -457q72 14 128 64q52 46 90 104q45 71 67 131q0 -66 -46 -153q-35 -64 -90 -120q-47 -48 -105 -81zM184 179q-5 -21 -15.5 -83.5l-24.5 -145.5l-34 -223q-21 -145 -21 -196q0 -13 2.5 -30.5t11.5 -31t29 -13.5
q36 0 59.5 61t34.5 153q11 93 11 191q0 102 -13.5 189.5t-39.5 128.5z" />
    <glyph glyph-name="g" unicode="g" horiz-adv-x="817" 
d="M-12 227q0 47 13.5 136.5t42.5 187.5q38 132 106 222q28 34 60.5 53.5t71.5 19.5q61 0 116.5 -28t98.5 -74q7 22 13 37q34 49 120 59q18 2 35 2q62 0 104 -28q-34 -98 -64 -250l-28 -141l-43 -214l176 77l97 43q-5 -39 -284 -172q-31 -138 -70 -269q-26 -87 -61.5 -174
t-86.5 -161q-56 -82 -137 -133.5t-196 -51.5q-82 0 -136 57t-54 152q0 156 163 307q120 110 331 213q17 83 41 233l12 72q-48 -131 -120 -238q-36 -51 -78.5 -82t-90.5 -31q-34 0 -58.5 10t-41.5 26q-31 31 -41.5 71.5t-10.5 68.5zM483 686q-44 57 -81 57q-25 0 -47.5 -29
t-40.5 -76q-30 -77 -50 -167q-15 -68 -23 -122.5t-8 -74.5q0 -18 4.5 -34.5t19.5 -16.5q20 0 47.5 41.5t56.5 104.5q40 85 73 173q39 104 49 144zM339 -61l22 91q-72 -38 -143 -89.5t-127 -116.5q-46 -53 -74 -114t-28 -130q0 -42 17 -68t55 -26q55 0 101 52t81 127
q37 77 61 152t35 122z" />
    <glyph glyph-name="h" unicode="h" horiz-adv-x="868" 
d="M524 646q-41 -31 -88 -119q-49 -92 -96 -209q-71 -181 -104 -308q-32 -17 -65.5 -23.5t-57.5 -6.5q-44 0 -72.5 14t-45.5 37q-21 28 -28 62t-7 63q0 92 22 225q39 239 110 507q37 141 74 264l60 190q77 32 150 32q33 0 59.5 -8t39.5 -25q-43 -121 -82 -243
q-46 -143 -86 -287q-30 -109 -56 -220q-17 -72 -30 -137q-36 -171 -36 -247q0 -18 6 -36.5t12 -18.5q31 109 71 210q40 104 88 195q46 86 96 154q47 67 108 109q44 30 99 30q41 0 75 -23q16 -12 25.5 -32.5t9.5 -49.5t-31 -127q-4 -11 -7 -22q-34 -109 -61 -239
q-17 -85 -17 -159q0 -16 4 -31t20 -15q27 0 65.5 44.5t78.5 112.5q76 129 111 252q0 -36 -35 -145.5t-96 -223.5q-32 -58 -70 -106t-81 -77t-90 -29q-37 0 -63 11.5t-44 29.5q-26 29 -35.5 66t-9.5 69q0 97 24 209q33 152 86 281z" />
    <glyph glyph-name="i" unicode="i" horiz-adv-x="414" 
d="M310 978q-56 9 -88 55q-26 37 -26 85q0 10 1 21q10 60 53 95q37 30 84 30q8 0 16 -1q57 -10 88 -55q26 -38 26 -85q0 -10 -1 -21q-10 -61 -53 -96q-36 -29 -81 -29q-9 0 -19 1zM205 198q0 -16 4 -31t20 -15q34 0 86.5 75t99.5 169.5t69 164.5q0 -21 -18.5 -86t-51.5 -148
t-79.5 -162t-102.5 -132t-119 -53t-96 29.5t-45 70.5t-12 76q0 87 26 211t60 244t62 203q77 32 150 32q33 0 59.5 -8t39.5 -24q-27 -75 -62 -189t-62.5 -231.5t-27.5 -195.5z" />
    <glyph glyph-name="j" unicode="j" horiz-adv-x="421" 
d="M266 978q-57 9 -89 55q-26 36 -26 82q0 12 2 24q9 60 53 95q37 30 84 30q8 0 16 -1q56 -10 88 -55q26 -38 26 -85q0 -10 -1 -21q-10 -61 -53 -96q-37 -29 -82 -29q-9 0 -18 1zM491 561q0 -84 -50.5 -198t-126.5 -219.5t-156 -172.5q-15 -76 -36 -158t-52.5 -158.5
t-79 -138.5t-116 -99t-163.5 -37q-41 0 -79.5 13.5t-63 43t-24.5 78.5q0 65 28 117.5t73 96t99 80t108 68.5l68 43l23 118q47 259 90.5 475t62.5 268q34 49 120 59q19 2 36 2q62 0 103 -28q-51 -146 -97 -356t-86 -416q115 102 191 240t128 279zM-95 -146l-26 -19
q-48 -34 -98 -76t-84.5 -93t-34.5 -113q0 -25 10.5 -46.5t41.5 -21.5q41 0 72 40t54 98t38 116.5t24 99.5z" />
    <glyph glyph-name="k" unicode="k" horiz-adv-x="827" 
d="M236 10q-67 -30 -120 -30q-74 0 -114 43q-42 43 -42 133q0 133 48.5 359t111.5 451.5t114 375.5q76 32 150 32q33 0 59 -8t40 -25q-48 -136 -117 -366t-124.5 -453t-55.5 -315q2 -55 18 -55q91 322 240 538q28 42 61.5 78.5t73 59t86.5 22.5q42 0 74 -22q22 -16 31 -47
q4 -14 4 -32q0 -28 -10 -64q-46 0 -96.5 -14t-103.5 -50.5t-106 -102.5q21 -56 63 -141.5t87 -155t84 -69.5q54 0 205 409q0 -93 -99 -335t-232 -246q-57 1 -103 54t-79 125.5t-53 134.5q-51 -117 -95 -284z" />
    <glyph glyph-name="l" unicode="l" horiz-adv-x="430" 
d="M251 1342q76 32 150 32q33 0 59 -8t40 -25q-31 -88 -100.5 -320t-132 -477t-62.5 -346q1 -46 24 -46q25 0 63 50t77 120t70 136t45 103q0 -19 -20.5 -84t-56.5 -148.5t-83 -162.5t-101.5 -132.5t-109.5 -53.5q-83 0 -121 60q-32 51 -32 116q0 115 59.5 363t128 483.5
t103.5 339.5z" />
    <glyph glyph-name="m" unicode="m" horiz-adv-x="1276" 
d="M498 646q-49 -39 -100 -155t-94.5 -251t-67.5 -230q-68 -30 -121 -30q-72 0 -113.5 45t-41.5 131q0 98 37 280.5t103 348.5q34 59 155 61q62 0 104 -29q-24 -40 -64 -162t-73.5 -258t-33.5 -205q0 -40 15 -40q15 55 41.5 141t64.5 182t87 181t110 139.5t133 54.5
q48 0 79 -25q31 -24 31 -76q0 -38 -49 -192q-85 -278 -85 -358q0 -47 22 -47l42 141q22 74 53 154q49 124 98.5 209t110 139.5t132.5 54.5q48 0 83 -28q28 -24 28 -73q0 -32 -34 -138q-83 -271 -83 -413q0 -16 4 -31t20 -15q25 0 63 50t77 120t70 136t45 103
q0 -19 -20.5 -84t-56.5 -148.5t-83.5 -162.5t-101.5 -132.5t-110 -53.5q-62 0 -95 29.5t-45 70.5t-12 76q0 115 32 247t78 243q-48 -39 -99 -155q-23 -52 -45 -107q-26 -69 -50 -144q-44 -135 -68 -230q-67 -30 -120 -30q-73 0 -114.5 45.5t-41.5 130.5q0 111 30.5 247.5
t73.5 242.5z" />
    <glyph glyph-name="n" unicode="n" horiz-adv-x="868" 
d="M524 646q-49 -39 -106 -155l-45 -94q-32 -75 -62 -157q-50 -135 -75 -230q-67 -30 -120 -30q-73 0 -117 48q-39 45 -39 128q0 98 37 280.5t103 348.5q34 59 155 61q62 0 104 -29q-59 -100 -116 -295t-61 -307q2 -63 21 -63q16 55 45 141t77 196q40 88 90 167
q53 85 116 139.5t134 54.5q43 0 77 -23.5t34 -78.5q0 -39 -40 -167q-78 -260 -78 -383q2 -46 25 -46q25 0 62.5 50t76.5 120t70.5 136t45.5 103q0 -19 -21 -84t-57 -148.5t-83 -162.5t-101 -132.5t-110 -53.5q-73 0 -113 50q-39 48 -39 126q0 169 110 490z" />
    <glyph glyph-name="o" unicode="o" horiz-adv-x="662" 
d="M200 -20q-84 0 -137 41.5t-78 105.5t-25 130q0 92 25.5 187.5t61.5 182.5q25 38 87 52q21 93 81.5 139t148.5 46q100 0 154 -81.5t54 -233.5q0 -59 -9 -122q59 10 102.5 43t66.5 91q0 -68 -48 -108t-125 -55q-19 -106 -67 -200q-48 -96 -122 -157t-170 -61zM239 685
q41 -6 67 -26q-35 -55 -58 -118q62 -93 194 -113q9 69 9 129q0 71 -25 128t-88 57q-29 0 -52.5 -11.5t-46.5 -45.5zM227 470q-22 -87 -22 -170q0 -24 4.5 -63.5t21 -71t51.5 -31.5q37 0 68 38t54 98q22 59 34 126q-121 14 -211 74z" />
    <glyph glyph-name="p" unicode="p" horiz-adv-x="793" 
d="M108 831q33 14 84 16h7q48 0 84 -13q35 -13 35 -44q0 -4 -1 -8q-14 -78 -35 -172q55 117 127 178.5t169 61.5q55 0 85.5 -42.5t38.5 -112.5q4 -31 4 -66q0 -43 -6 -90q99 26 180 30q20 0 23 -8q-147 -30 -208 -54q-5 -31 -13 -63l-7 -28q-31 -113 -86 -213.5t-131 -165.5
t-168 -65q-55 0 -85.5 21t-30.5 66q0 29 9 57t23 54q81 149 206 240q21 70 32 128.5t11 86.5q0 27 -8.5 43.5t-30.5 16.5q-43 0 -87.5 -77.5t-86 -201t-77.5 -266.5t-63 -278.5t-42.5 -238t-15.5 -138.5q-34 -49 -120 -59q-19 -2 -36 -2q-62 0 -103 28q56 267 167 716
q101 408 156 663zM225 90v-3q0 -9 7 -9q25 0 53.5 40t56 102.5t51.5 133.5q-26 -24 -65 -72.5t-71 -102t-32 -89.5z" />
    <glyph glyph-name="q" unicode="q" horiz-adv-x="777" 
d="M622 133q56 -82 97 -187t46 -213v-19q0 -97 -47 -180q-51 -80 -134 -88q-11 -1 -22 -1q-72 0 -139 39q-83 46 -113 117q-17 53 -17 118q0 83 18.5 233t50.5 319q-34 -76 -74 -142t-84 -107.5t-91 -41.5q-69 0 -111 44t-42 132t35 245.5t91 313.5q11 31 31 60.5t55 50
t89 20.5q49 0 109.5 -25.5t111.5 -69.5l13 34q34 49 120 59q18 2 35 2q62 0 104 -29q-50 -85 -88.5 -246t-64.5 -298l-16 -82q117 49 187.5 152t104.5 218q0 -101 -74.5 -225.5t-180.5 -202.5zM463 695q-40 45 -81 48q-32 -2 -48 -27t-25 -53q-63 -182 -101 -431v-26
q1 -19 5.5 -36.5t15.5 -17.5q23 0 57.5 70t70.5 165.5t65 182t41 125.5zM571 128q0 -3 -1 -7q-21 -97 -47 -241t-26 -246q0 -40 7 -69.5t26 -40.5q4 -2 9 -2q30 0 59 88q34 100 34.5 246.5t-61.5 271.5z" />
    <glyph glyph-name="r" unicode="r" horiz-adv-x="734" 
d="M236 10q-67 -30 -120 -30h-3q-70 0 -111.5 44.5t-41.5 131.5q0 98 37 280.5t104 348.5q33 49 119 59q18 2 35 2q62 0 105 -29q-28 -45 -66.5 -169t-69.5 -259t-31 -199v-6q0 -32 10 -32q10 36 23 88q16 67 38.5 148t52 162t70 154t90.5 114.5t113 41.5q44 0 77.5 -24.5
t33.5 -83.5q0 -26 -12 -67.5t-26 -82.5q-15 -42 -26 -81.5t-11 -69.5q1 -43 17 -43q19 0 47.5 31.5t52.5 67.5t31 54q0 -33 -26 -86t-70.5 -94.5t-103.5 -44.5h-4q-53 0 -91 27q-39 27 -39 87q0 40 20.5 121t73.5 170q-37 0 -73.5 -55t-68 -134t-59 -169t-48.5 -173.5
l-35 -142.5z" />
    <glyph glyph-name="s" unicode="s" horiz-adv-x="471" 
d="M403 742q0 -41 -17.5 -74t-41.5 -33q14 28 14 62q0 24 -11.5 44.5t-39.5 20.5q-22 0 -39 -18.5t-17 -59.5q0 -63 14 -120t31 -111q173 106 305 108q-134 -34 -293 -146q13 -43 24 -87q12 -53 12 -110q0 -141 -78 -225.5t-187 -84.5q-59 1 -93 36q-34 31 -36 95
q0 136 140 272q-5 18 -11 36q-19 59 -34 120.5t-15 126.5q0 93 34.5 151.5t87 86t104.5 27.5q59 0 103 -30.5t44 -86.5zM56 -2q31 0 49.5 46t18.5 88q0 64 -18 128q-83 -110 -83 -192q2 -70 33 -70z" />
    <glyph glyph-name="t" unicode="t" horiz-adv-x="447" 
d="M138 962l12 40q68 242 101 340q76 32 150 32q33 0 59 -8t40 -25q-45 -128 -114 -365l-7 -24q83 4 158 19q-13 -43 -84 -67q-44 -16 -95 -26q-53 -187 -97 -368q-56 -230 -56 -312q0 -16 4 -31t20 -15q34 0 76.5 50t84.5 120t74 136t46 103q0 -22 -21 -88t-58.5 -148.5
t-87.5 -161t-109 -131t-121 -52.5q-63 0 -96 29.5t-45 70.5t-12 76q0 99 61 352q41 172 86 339q-23 -3 -39 -4q-29 17 -33 60q-1 12 -1 23q0 28 9 50q49 -8 95 -14z" />
    <glyph glyph-name="u" unicode="u" horiz-adv-x="824" 
d="M615 198q0 -16 4.5 -31t20.5 -15q25 0 62.5 50t76.5 120t70 136t45 103q0 -19 -20.5 -84t-56.5 -148.5t-83 -162.5t-101 -132.5t-110 -53.5q-62 0 -95 29.5t-45.5 70.5t-12.5 76q0 60 14 139q-37 -80 -81 -151.5t-92.5 -117.5t-98.5 -46q-69 0 -110.5 44.5t-41.5 131.5
q0 73 25.5 207t58.5 261.5t60 192.5q30 43 105 43h10q83 -2 138 -38l-30 -101q-34 -108 -67.5 -233t-51.5 -256v-26q1 -54 21 -54q19 0 63 78q42 75 79 165q40 97 76 202l56 169l16 48q76 32 150 32q32 0 58.5 -8t40.5 -24q-27 -75 -62.5 -189t-63 -231.5t-27.5 -195.5z" />
    <glyph glyph-name="v" unicode="v" horiz-adv-x="689" 
d="M428 493q7 26 16 70t18 96t9 84q0 29 -10 29q-14 0 -33.5 -57.5t-19.5 -124.5q0 -63 20 -97zM554 382q-98 -192 -294 -397q-29 -7 -57 -7q-51 0 -93 17t-61 43q-34 49 -49 126t-15 165q0 142 24.5 280t52.5 208q31 43 115 43q83 -2 139 -38q-87 -283 -98 -488
q-3 -54 -3 -99q0 -124 21 -172q119 192 176 378q-59 59 -59 161q2 107 46.5 194.5t129.5 87.5q62 0 94 -30.5t32 -94.5q0 -165 -83 -342q44 1 93 30q77 49 104 114q0 -48 -44 -93.5t-105 -70.5q-33 -13 -66 -15z" />
    <glyph glyph-name="w" unicode="w" horiz-adv-x="1101" 
d="M841 493q6 26 15 70t18 96t9 84q-2 29 -10 29q-14 0 -28.5 -36.5t-19.5 -74t-5 -71.5q0 -63 21 -97zM772 602q0 110 37 189q24 48 58 69q39 24 74 24q62 0 94 -30.5t32 -94.5q0 -164 -82 -341q43 1 92 29q77 49 104 114q0 -48 -44 -93.5t-105 -70.5q-33 -12 -66 -15
q-75 -170 -176 -287t-215 -117q-64 0 -106 40t-62 97q-18 53 -18 114q-19 -55 -51 -112t-70 -97t-74 -40q-81 0 -128 47.5t-67 125.5t-20 171q0 94 14 188.5t35 174.5t42 130q30 43 115 43q83 -2 138 -38q-109 -283 -128 -484q-8 -80 -8 -138q0 -90 18 -129q76 82 127 216
t81.5 277.5t46.5 252.5q30 43 125 43q73 -2 128 -38q-6 -21 -26 -102t-42 -190t-37 -215q-13 -93 -13 -159q1 -89 32 -89q28 0 91 114q60 110 105 258q-51 61 -51 163z" />
    <glyph glyph-name="x" unicode="x" horiz-adv-x="587" 
d="M315 497q135 168 160 339q11 4 25 4q6 0 12 -1q21 -1 37.5 -9t16.5 -22q-3 -85 -71 -193.5t-169 -213.5q11 -67 27.5 -126t41.5 -96t58 -37q29 0 63.5 50t68 121t60 137.5t40.5 104.5l2 6q0 -41 -29.5 -136.5t-80 -199t-113.5 -175.5q-62 -71 -130 -71h-2
q-78 7 -132 65.5t-88 148.5q-45 -70 -79 -136.5t-45 -109.5q-37 2 -62 41q-17 27 -17 68q0 17 3 37q2 5 28 34.5l65 71.5l78 84q-38 158 -40 327q1 124 26 179q34 44 115 49q12 1 24 1q64 0 111 -28q-10 -34 -12 -108v-32q0 -81 8 -174z" />
    <glyph glyph-name="y" unicode="y" horiz-adv-x="790" 
d="M312 -61l22 91q-72 -38 -143 -89.5t-127 -116.5q-46 -53 -74 -114t-28 -130q0 -42 17 -68t55 -26q55 0 101 52t81 127q37 77 61 152t35 122zM368 196l22 134q6 38 13 76q-26 -57 -55 -114q-52 -100 -112 -169t-123 -72q-65 1 -98 30.5t-44 71t-11 74.5q0 110 42 299
t82 291q31 43 115 43q83 -2 139 -38l-30 -100q-29 -90 -55.5 -191.5t-43.5 -227.5v-26q0 -19 5 -36.5t16 -17.5q22 0 63.5 77.5t84.5 177.5q40 95 83 232q11 44 22 71q27 57 155 61q62 0 104 -28q-48 -145 -92 -391l-31 -156l-12 -58l176 77l97 43q-5 -39 -284 -172
q-31 -138 -70 -269q-26 -87 -61.5 -174t-86.5 -161q-56 -82 -137 -133.5t-196 -51.5q-82 0 -136 57t-54 152q0 156 163 307q120 110 331 213z" />
    <glyph glyph-name="z" unicode="z" horiz-adv-x="652" 
d="M19 209q-5 10 -5 25q0 50 35 88q48 54 116.5 116.5l132.5 118.5l87.5 77.5t34.5 38.5q-55 -24 -91 -30q-23 -4 -57 -4q-20 0 -43 1q-45 3 -88 11q-17 -70 -30 -106q-27 -12 -54 -12q-23 0 -35 12q14 42 37 127l-35 14q0 42 16 105t40 95q7 10 18 16t24 6q29 0 42 -18
t13 -46q0 -8 -1 -18q88 -39 193 -39q103 2 153 59q36 0 64.5 -34t28.5 -85q0 -37 -66 -110.5t-143.5 -145l-121.5 -109.5l-37 -34q113 -44 178 -145q180 100 327 146q-148 -78 -304 -187q52 -106 52 -223q0 -111 -43.5 -196.5t-112.5 -144.5t-149 -89.5t-154 -30.5
q-58 0 -106 19.5t-76 58.5t-28 99q0 78 53.5 149.5t140 139.5t189.5 136q-17 57 -73 110q-36 33 -76 35q-21 0 -31 -7q-10 1 -15 11zM-42 -365q0 -38 21 -56t53 -18q45 0 98 34.5t91.5 101t38.5 161.5q0 68 -20 136q-78 -61 -141.5 -121t-102 -119.5t-38.5 -118.5z" />
    <glyph glyph-name="braceleft" unicode="{" horiz-adv-x="658" 
d="M309 907q37 147 95.5 272t141.5 203t172 78q45 0 77 -19t38 -48q-19 8 -36 8q-63 0 -123 -68.5t-104.5 -196t-73 -309.5t-179.5 -228q117 -48 117 -174q-1 -54 -16.5 -157t-16.5 -205q11 -123 140 -123q-76 -133 -220 -133q-139 0 -147 171q1 70 30 194.5t34 219.5
q-1 125 -155 208q0 43 32 56q137 2 194 251z" />
    <glyph glyph-name="bar" unicode="|" horiz-adv-x="550" 
d="M254 1659h20q63 0 88 -84v-1856q0 -63 -84 -88h-24q-92 14 -92 124v1772q0 97 60 124q15 8 32 8z" />
    <glyph glyph-name="braceright" unicode="}" horiz-adv-x="658" 
d="M372 360q-37 -148 -95.5 -273t-141.5 -203t-172 -78q-45 0 -77 19t-38 48q19 -8 36 -8q63 0 123 68.5t104.5 196t73 309.5t179.5 228q-117 49 -117 174q1 55 17 157.5t16 205.5q-11 122 -140 122q76 133 220 133q139 0 147 -171q-1 -70 -29.5 -194t-34.5 -219
q1 -125 155 -209q0 -43 -32 -56q-137 -1 -194 -250z" />
    <glyph glyph-name="asciitilde" unicode="~" horiz-adv-x="1003" 
d="M973 727q-28 -139 -101 -187q-64 -44 -150 -44q-10 0 -21 1q-100 6 -211 31q-132 31 -253 32h-5q-119 0 -202 -85q24 143 105 194q74 46 175 46h20q113 -4 234 -27q129 -24 238 -25h3q107 0 168 64z" />
    <glyph glyph-name="exclamdown" unicode="&#xa1;" horiz-adv-x="619" 
d="M529 410q-4 -24 -9 -50q-39 -207 -97 -428q-37 -141 -74 -264l-60 -190q-77 -32 -150 -32q-33 0 -59.5 8t-39.5 25q43 121 82 243q46 143 86 287q30 109 56 220q17 72 30 137q18 81 59 108q37 23 89 23q56 -3 75 -26q13 -15 14 -35q0 -14 -2 -26zM573 784q26 -38 26 -85
q0 -32 -12 -62.5t-42 -54.5q-37 -29 -82 -29q-9 0 -18 1q-57 9 -89 55q-26 36 -26 82q0 12 2 24q9 60 53 95q37 30 84 30q33 0 59 -14.5t45 -41.5z" />
    <glyph glyph-name="cent" unicode="&#xa2;" horiz-adv-x="842" 
d="M481 3l-64 -314q-41 -30 -101 -30q-27 0 -42 13l66 310q-77 11 -135 71q-30 33 -49 88q-16 49 -16 116q0 75 32 211q29 119 83 224q42 80 113 122q54 32 128 32q10 0 20 -1l57 283q32 30 103 30q26 0 40 -13l-73 -341q5 -3 9 -6q73 -52 73 -145q0 -50 -25 -113
q-17 -15 -65 -18q-52 0 -89 15q19 51 30 101q9 42 9 73v11q-1 34 -18 36q-44 -4 -81 -83q-43 -92 -70 -209q-31 -143 -31 -191q0 -65 17 -99q23 -46 64 -46q42 0 82 19.5t77 53.5q80 74 137 176t78 182q0 -55 -30 -132t-86 -175q-61 -109 -148 -189q-44 -41 -95 -62z" />
    <glyph glyph-name="sterling" unicode="&#xa3;" horiz-adv-x="978" 
d="M602 -20q-84 0 -155 9t-131 20q-95 18 -166 18q-70 0 -120 -47q0 28 13 73.5t44 84.5t85 54l18 4q30 52 39 133q7 71 7 163v23q-66 -1 -107.5 -1h-45.5q-8 12 -8 31q0 13 4 29q11 44 38 80h120q1 108 11 217t37 207.5t79 175.5t137 121.5t211 44.5q89 0 140.5 -35
t73.5 -91.5t21.5 -124t-17 -134.5t-41.5 -122q-28 -27 -108 -31h-19q-69 0 -130 25q22 18 47 63.5t45 103.5t27 112q2 19 2 36q0 32 -8 55q-14 36 -57 36q-66 0 -105.5 -41.5t-59.5 -113t-26.5 -163.5t-6.5 -193q0 -72 -5 -148q232 1 254 2q9 -13 9 -32q0 -12 -4 -28
q-11 -44 -39 -80q-80 0 -239 -1q-29 -170 -138 -313q73 -7 143 -22q44 -9 86.5 -15.5t84.5 -6.5q110 0 182 55q0 -113 -50.5 -173t-171.5 -60z" />
    <glyph glyph-name="currency" unicode="&#xa4;" horiz-adv-x="846" 
d="M386 379q52 0 88 35t58.5 87.5t33 108t10.5 95.5q0 25 -5 58t-21.5 57t-51.5 24q-53 0 -90 -37t-60 -92t-33 -112.5t-10 -99.5q0 -24 7.5 -53.5t25 -50t48.5 -20.5zM595 448l126 -168q7 -11 7 -23v-5q-2 -16 -15 -26q-10 -8 -22 -8q-3 0 -7 1q-15 2 -25 15l-110 145
q-31 -36 -71.5 -58t-91.5 -22q-67 0 -111 27.5t-66 75.5l-117 -89q-11 -7 -24 -7h-5q-15 2 -26 15q-7 11 -7 23v6q2 15 15 25l146 110q-1 9 -1 18q0 112 57 227q7 14 16 29l-138 183q-8 12 -8 24v5q3 15 15 26q11 7 24 7h5q15 -2 26 -15l122 -163q36 43 83.5 70t105.5 27
q21 0 41 -5q74 -26 98 -97l117 88q11 8 23 8h5q16 -3 26 -15q8 -11 8 -22q0 -4 -1 -7q-2 -15 -15 -26l-146 -110q1 -16 1 -32q0 -58 -14.5 -126.5t-45.5 -130.5z" />
    <glyph glyph-name="yen" unicode="&#xa5;" horiz-adv-x="969" 
d="M473 1339q-1 -13 -1 -53v-46q1 -80 6.5 -176.5t17.5 -169.5t32 -73q44 0 138.5 178t170.5 412q48 0 78 -27q24 -21 24 -41q0 -4 -1 -9q-65 -174 -151.5 -330.5t-183.5 -254.5q140 0 155 1q8 -12 8 -31q0 -13 -4 -29q-11 -44 -38 -80q-71 0 -208 -1q-13 -47 -25 -95
q186 1 204 2q8 -12 8 -31q0 -13 -4 -29q-11 -44 -38 -80h-204l-62 -264l-36 -156q-68 0 -125.5 38t-84.5 96q0 57 62 285q-73 -1 -120.5 -1h-51.5q-9 13 -9 32q0 13 4 28q12 44 39 80h178l30 95q-76 -1 -125.5 -1h-53.5q-9 13 -9 32q0 13 4 28q12 44 39 80h164
q-64 148 -85 356q-13 132 -13 220q0 51 4 87q39 9 78 9q23 0 46 -3q62 -7 103 -29q40 -20 40 -46v-3z" />
    <glyph glyph-name="brokenbar" unicode="&#xa6;" horiz-adv-x="550" 
d="M254 1374h20q63 0 88 -36v-798q0 -27 -84 -38h-24q-92 6 -92 53v762q0 42 60 54q15 3 32 3zM254 295h20q63 0 88 -36v-798q0 -27 -84 -38h-24q-92 6 -92 53v762q0 42 60 54q15 3 32 3z" />
    <glyph glyph-name="section" unicode="&#xa7;" horiz-adv-x="1027" 
d="M70 -152q28 26 108 30h19q68 0 129 -25q-46 -50 -72.5 -125.5t-26.5 -148.5q0 -45 21.5 -75.5t63.5 -30.5q92 0 138 60.5t46 160.5q0 69 -36 135.5t-86 138.5q-45 65 -87.5 138.5t-71.5 161t-29 194.5q0 111 60 196t175 123q-48 68 -82 137.5t-34 152.5q0 174 109 260.5
t297 86.5q101 0 164 -41.5t92.5 -108t29.5 -140.5q0 -98 -41 -190q-28 -26 -107 -30h-19q-69 0 -130 25q46 49 72.5 125t26.5 149q0 45 -21.5 75.5t-63.5 30.5q-92 0 -138 -60.5t-46 -160.5q0 -69 36 -135.5t87 -139.5q44 -64 87 -137.5t71.5 -161t28.5 -195.5
q0 -110 -60 -195t-175 -124q48 -67 82 -136.5t34 -152.5q0 -174 -109 -260.5t-297 -86.5q-101 0 -164 41.5t-92 107.5t-29 140q0 99 40 191zM493 678q-39 -40 -59 -97.5t-20 -115.5q0 -112 35 -198.5t85 -158.5q38 40 58 97.5t20 115.5q0 112 -35 198t-84 159z" />
    <glyph glyph-name="dieresis" unicode="&#xa8;" horiz-adv-x="611" 
d="M136 923q-52 8 -82 50q-24 35 -24 79q0 10 1 20q9 55 49 88q34 28 78 28q68 -3 97 -52q24 -35 24 -79q0 -10 -1 -20q-10 -56 -49 -89q-34 -27 -76 -27q-8 0 -17 2zM438 922q-52 9 -82 51q-24 35 -24 79q0 9 1 20q9 55 49 88q34 27 78 27q68 -3 97 -51q24 -35 24 -79
q0 -10 -1 -20q-10 -56 -49 -89q-34 -27 -76 -27q-8 0 -17 1z" />
    <glyph glyph-name="copyright" unicode="&#xa9;" horiz-adv-x="1405" 
d="M1014 940q0 -50 -25 -113q-17 -15 -64 -18h-10q-42 0 -80 15q23 33 33.5 76.5t10.5 79.5q0 28 -5.5 46t-16.5 19q-59 -3 -108.5 -72.5t-81 -175.5t-31.5 -210q0 -62 17.5 -99.5t44.5 -54t58 -16.5q38 0 61 21.5t37 53.5t23 65q38 -35 38 -88q0 -11 -2 -23
q-11 -67 -72.5 -121t-171.5 -58h-5q-75 0 -135 32q-63 32 -100.5 99t-37.5 172q0 106 24.5 206.5t74 181t123.5 128t172 47.5q57 0 109.5 -22t86 -65t33.5 -106zM804 1418q113 0 215.5 -34.5t182.5 -103.5t126.5 -171t46.5 -237q0 -130 -24.5 -261.5t-80 -248.5
t-147.5 -208.5t-226 -144.5t-317 -53q-142 0 -245.5 45.5t-171 122t-100.5 172t-33 196.5q0 282 93 490t266 322t415 114zM804 1341q-186 0 -318 -69t-215.5 -187.5t-123 -271.5t-39.5 -321q0 -113 48 -219q63 -126 175.5 -182.5t248.5 -56.5q167 0 311 58t246 196
q88 126 124 280.5t36 303.5q0 147 -64 252t-176 161t-253 56z" />
    <glyph glyph-name="guillemotleft" unicode="&#xab;" horiz-adv-x="1004" 
d="M358 86q-30 43 -83.5 102t-117 106t-118.5 47q-9 13 -9 32q0 12 4 28q11 44 39 80q93 0 171 30t136.5 73.5t93.5 86t42 69.5q16 -34 16 -65q0 -58 -48 -104t-116 -79t-133.5 -53t-103.5 -27q26 -2 69.5 -17.5t89 -43.5t77 -69t31.5 -95q0 -36 -13 -64t-27 -37zM800 86
q-30 43 -83.5 102t-117 106t-118.5 47q-9 13 -9 32q0 12 4 28q11 44 39 80q93 0 171 30t136.5 73.5t93.5 86t42 69.5q16 -34 16 -65q0 -58 -48 -104t-116 -79t-133.5 -53t-103.5 -27q26 -2 69.5 -17.5t89 -43.5t77 -69t31.5 -95q0 -36 -13 -64t-27 -37z" />
    <glyph glyph-name="logicalnot" unicode="&#xac;" horiz-adv-x="1017" 
d="M983 690l-67.5 -322t-31.5 -153q-8 -3 -18 -3q-18 0 -42 11q-41 21 -70 55l70 332q-137 -1 -317.5 -1t-318.5 -0.5t-149 -0.5q-9 13 -9 32q0 12 4 28q12 44 39 80h386t356.5 0.5t163.5 1.5q8 -12 8 -31q0 -13 -4 -29z" />
    <glyph glyph-name="registered" unicode="&#xae;" horiz-adv-x="1404" 
d="M803 1418q113 0 216 -34.5t183 -103.5t126 -171t46 -237q0 -130 -24 -261.5t-79.5 -248.5t-147.5 -208.5t-226.5 -144.5t-316.5 -53q-142 0 -245.5 45.5t-171 122t-100.5 172t-33 196.5q0 282 92.5 490t266 322t414.5 114zM803 1341q-185 0 -317 -69t-216 -187.5
t-123 -271.5t-39 -321q0 -113 48 -219q63 -126 175.5 -182.5t248.5 -56.5q167 0 311 58t246 196q88 126 124 280.5t36 303.5q0 147 -64.5 252t-176 161t-253.5 56zM578 294q-67 -29 -120 -29h-3q-70 0 -111.5 44t-41.5 132q0 98 37 280.5t104 348.5q34 49 119 59q18 2 35 2
q62 0 105 -29q-28 -45 -66.5 -169t-69.5 -259t-31 -200v-5q0 -32 11 -32q10 36 22 88l39 148t51.5 162t69 149t89.5 109.5t113 41.5q80 0 123 -48t48 -121q1 -11 1 -23q0 -61 -27 -128q-32 -78 -101.5 -142t-177.5 -93q49 -88 113.5 -134t109.5 -46q0 -26 -10 -57.5
t-37.5 -54.5t-78.5 -23q-54 0 -108.5 47.5t-89.5 114.5t-36 132q1 13 18 29.5t40 30t41 17.5q81 66 117 154q33 83 33 149v8q-3 69 -35 69q-36 0 -71 -50t-67 -129t-59 -169t-48.5 -173.5l-35.5 -142.5q-8 -37 -14 -58z" />
    <glyph glyph-name="macron" unicode="&#xaf;" horiz-adv-x="692" 
d="M662 1151q-1 -98 -64 -139h-568q2 86 72 139h560z" />
    <glyph glyph-name="degree" unicode="&#xb0;" horiz-adv-x="645" 
d="M393 1283q46 -10 86 -36q86 -59 117 -157q19 -59 19 -119q0 -40 -8 -80q-22 -101 -90.5 -177.5t-171.5 -96.5q-19 -3 -39 -3q-27 0 -54 6q-47 10 -86 35q-87 60 -118 158q-18 58 -18 118q0 40 8 81q22 100 90 177t172 96q20 4 41 4q26 0 52 -6zM366 1157q-14 2 -27 2
q-61 0 -105 -46q-54 -57 -70 -128q-5 -26 -5 -52q0 -46 17 -93q26 -73 103 -94q14 -2 27 -2q61 0 105 46q54 56 69 128q5 26 5 52q0 46 -16 93q-27 73 -103 94z" />
    <glyph glyph-name="plusminus" unicode="&#xb1;" horiz-adv-x="1111" 
d="M400 141q61 219 91 359q-30 1 -64 1q-134 0 -328 -10q-9 13 -9 32q0 12 4 28q11 44 39 80q249 0 374 -5h11q1 7 3 14q27 135 78 362q41 19 87 20h4q37 0 53 -18q-68 -241 -97 -380q29 -1 61 -1q132 0 332 10q8 -12 8 -31q0 -13 -4 -29q-11 -44 -38 -80q-242 0 -372 5h-13
q-1 -5 -3 -11q-25 -125 -74 -346l403 1q8 -12 8 -30q0 -13 -4 -30q-11 -44 -38 -80l-906 -2q-9 13 -9 32q0 13 4 28q11 44 39 80z" />
    <glyph glyph-name="acute" unicode="&#xb4;" horiz-adv-x="389" 
d="M288 1243q32 0 51.5 -20t19.5 -45q0 -70 -92 -152t-237 -118q3 21 23.5 74t54.5 113t80 104t100 44z" />
    <glyph glyph-name="mu" unicode="&#xb5;" horiz-adv-x="824" 
d="M44 624.5q33 127.5 60 192.5q30 43 105 43h10q83 -2 138 -38l-30 -101q-34 -108 -67.5 -233t-51.5 -256v-26q1 -54 21 -54q19 0 63 78q42 75 79 165q40 97 76 202l56 169l16 48q76 32 150 32q32 0 58.5 -8t40.5 -24q-27 -75 -62.5 -189t-63 -231.5t-27.5 -195.5
q0 -16 4.5 -31t20.5 -15q25 0 62.5 50t76.5 120t70 136t45 103q0 -19 -20.5 -84t-56.5 -148.5t-83 -162.5t-101 -132.5t-110 -53.5q-62 0 -95 29.5t-45.5 70.5t-12.5 76q0 60 14 139q-37 -80 -81 -151.5t-92 -117.5q-37 -34 -74 -43q-77 -289 -170 -567q-77 -32 -152 -32
q-38 0 -71 33q109 307 188 693.5t112 514z" />
    <glyph glyph-name="paragraph" unicode="&#xb6;" horiz-adv-x="1192" 
d="M1162 1338q-81 -238 -146.5 -486.5t-125.5 -500.5l-118.5 -477t-137.5 -466q-58 -24 -114 -24q-49 0 -74 25q85 245 151.5 498t126.5 507q94 414 215 813q-17 11 -64.5 22.5t-153.5 11.5q-72 -221 -131.5 -450l-114.5 -460q-57 -240 -119 -477t-138 -466
q-57 -24 -113 -24q-50 0 -75 25q85 244 152.5 499.5t129.5 515.5l74 302q-16 -5 -34 -7q-20 -4 -41 -4q-26 0 -52 6q-46 10 -86 36q-86 59 -117 157q-18 58 -18 118q0 40 8 81q27 120 114 187.5t208 94.5q117 26 244 26h9q199 -4 354.5 -34.5t186.5 -48.5z" />
    <glyph glyph-name="periodcentered" unicode="&#xb7;" horiz-adv-x="508" 
d="M179 590q-47 8 -75 47q-22 32 -22 72q0 9 1 18q9 52 45 81q31 25 70 25q7 0 15 -1q49 -8 76 -47q22 -30 22 -70q0 -9 -2 -20q-7 -51 -45 -80q-31 -26 -71 -26q-7 0 -14 1z" />
    <glyph glyph-name="periodcentered" unicode="&#x2219;" horiz-adv-x="508" 
d="M179 590q-47 8 -75 47q-22 32 -22 72q0 9 1 18q9 52 45 81q31 25 70 25q7 0 15 -1q49 -8 76 -47q22 -30 22 -70q0 -9 -2 -20q-7 -51 -45 -80q-31 -26 -71 -26q-7 0 -14 1z" />
    <glyph glyph-name="cedilla" unicode="&#xb8;" horiz-adv-x="527" 
d="M188 -184q-3 4 -3 12q0 3 1 8q1 14 7 28l110 154q2 2 14.5 4t27.5 2h7q13 0 23 -3q13 -3 13 -12l-99 -128q54 0 91.5 -13t61.5 -33q30 -27 42.5 -59.5t12.5 -60.5q0 -47 -23.5 -87t-62.5 -69q-87 -61 -192 -61q-51 0 -100.5 15t-88.5 49q87 0 157 16q56 13 88 43
q34 29 34 81q0 49 -27 76q-19 20 -44 29t-50 9z" />
    <glyph glyph-name="guillemotright" unicode="&#xbb;" horiz-adv-x="1004" 
d="M204 740q30 -43 83.5 -102t117 -106t118.5 -47q9 -13 9 -32q0 -12 -4 -28q-11 -44 -39 -80q-93 0 -171 -30t-136.5 -73.5t-93.5 -86t-42 -69.5q-16 34 -16 65q0 58 48 104t116 79t133.5 53t103.5 27q-26 2 -69.5 17.5t-89 43.5t-77 69t-31.5 95q0 36 13 64t27 37z
M646 740q30 -43 83.5 -102t117 -106t118.5 -47q9 -13 9 -32q0 -12 -4 -28q-11 -44 -39 -80q-93 0 -171 -30t-136.5 -73.5t-93.5 -86t-42 -69.5q-16 34 -16 65q0 58 48 104t116 79t133.5 53t103.5 27q-26 2 -69.5 17.5t-89 43.5t-77 69t-31.5 95q0 36 13 64t27 37z" />
    <glyph glyph-name="questiondown" unicode="&#xbf;" horiz-adv-x="789" 
d="M329 -299q0 -40 13 -83.5t40 -73.5t69 -30q50 0 85.5 36t56.5 91t28 115q3 30 3 58q0 27 -3 52q48 0 93 -11t74 -36.5t29 -70.5q0 -105 -38.5 -172.5t-97.5 -105.5t-124.5 -53t-121.5 -15q-85 0 -159.5 37t-120 110t-45.5 183q0 91 37.5 169t92 144.5t109.5 123.5
q56 57 94.5 106t38.5 91q0 55 20.5 83.5t51.5 38.5q27 9 56 9h6q47 -2 68.5 -18.5t21.5 -43.5q0 -42 -22 -87.5t-57 -94t-77 -100.5q-53 -65 -103.5 -137t-84 -150.5t-33.5 -164.5zM659 839q57 -10 89 -55q25 -38 25 -84q0 -11 -1 -22q-10 -61 -53 -96q-36 -29 -81 -29
q-9 0 -19 1q-56 9 -88 55q-26 37 -26 85q0 10 1 21q10 60 53 95q37 30 84 30q8 0 16 -1z" />
    <glyph glyph-name="Agrave" unicode="&#xc0;" horiz-adv-x="1227" 
d="M704 735l-34 -87l-67.5 -174.5t-81 -178.5t-97.5 -158.5t-116 -114t-138 -42.5q-71 0 -117.5 29.5t-69.5 80t-23 114.5q0 73 24.5 154.5t76.5 159t132 140.5t190.5 101.5t253.5 38.5l21 51q34 86 79 184t104 186t134.5 145t171.5 57q53 0 83 -17.5t42 -45.5
q11 -27 11 -59v-5q-6 -87 -32 -159q-47 -152 -99.5 -339.5t-91 -354t-38.5 -243.5q0 -16 6.5 -31t31.5 -15t64.5 50t81 120t74.5 136t47 103q0 -19 -20.5 -84t-57.5 -148.5t-87 -163t-109 -132.5t-123 -53q-62 0 -95 29t-45 70.5t-12 76.5q0 80 31 231q29 141 71 303
q-88 39 -176 45zM365.5 687.5q-117.5 -54.5 -190 -167t-72.5 -213.5q0 -36 9 -65.5t32.5 -47t64.5 -17.5q74 0 132.5 49t104 124.5t80 159.5t59.5 156l29 76q-131 0 -248.5 -54.5zM724 786q82 -13 170 -40q90 333 154 533q-57 0 -110.5 -66.5t-106.5 -178t-107 -248.5z
M969 1825q54 0 100 -44t80 -104t54.5 -112.5t23.5 -73.5q-145 35 -237 117t-92 152q0 25 19.5 45t51.5 20z" />
    <glyph glyph-name="Aacute" unicode="&#xc1;" horiz-adv-x="1227" 
d="M704 735l-34 -87l-67.5 -174.5t-81 -178.5t-97.5 -158.5t-116 -114t-138 -42.5q-71 0 -117.5 29.5t-69.5 80t-23 114.5q0 73 24.5 154.5t76.5 159t132 140.5t190.5 101.5t253.5 38.5l21 51q34 86 79 184t104 186t134.5 145t171.5 57q53 0 83 -17.5t42 -45.5
q11 -27 11 -59v-5q-6 -87 -32 -159q-47 -152 -99.5 -339.5t-91 -354t-38.5 -243.5q0 -16 6.5 -31t31.5 -15t64.5 50t81 120t74.5 136t47 103q0 -19 -20.5 -84t-57.5 -148.5t-87 -163t-109 -132.5t-123 -53q-62 0 -95 29t-45 70.5t-12 76.5q0 80 31 231q29 141 71 303
q-88 39 -176 45zM365.5 687.5q-117.5 -54.5 -190 -167t-72.5 -213.5q0 -36 9 -65.5t32.5 -47t64.5 -17.5q74 0 132.5 49t104 124.5t80 159.5t59.5 156l29 76q-131 0 -248.5 -54.5zM724 786q82 -13 170 -40q90 333 154 533q-57 0 -110.5 -66.5t-106.5 -178t-107 -248.5z
M1418 1825q33 0 52.5 -20t19.5 -45q0 -70 -92.5 -152t-237.5 -117q3 21 23.5 73.5t55 112.5t80 104t99.5 44z" />
    <glyph glyph-name="Acircumflex" unicode="&#xc2;" horiz-adv-x="1227" 
d="M704 735l-34 -87l-67.5 -174.5t-81 -178.5t-97.5 -158.5t-116 -114t-138 -42.5q-71 0 -117.5 29.5t-69.5 80t-23 114.5q0 73 24.5 154.5t76.5 159t132 140.5t190.5 101.5t253.5 38.5l21 51q34 86 79 184t104 186t134.5 145t171.5 57q53 0 83 -17.5t42 -45.5
q11 -27 11 -59v-5q-6 -87 -32 -159q-47 -152 -99.5 -339.5t-91 -354t-38.5 -243.5q0 -16 6.5 -31t31.5 -15t64.5 50t81 120t74.5 136t47 103q0 -19 -20.5 -84t-57.5 -148.5t-87 -163t-109 -132.5t-123 -53q-62 0 -95 29t-45 70.5t-12 76.5q0 80 31 231q29 141 71 303
q-88 39 -176 45zM365.5 687.5q-117.5 -54.5 -190 -167t-72.5 -213.5q0 -36 9 -65.5t32.5 -47t64.5 -17.5q74 0 132.5 49t104 124.5t80 159.5t59.5 156l29 76q-131 0 -248.5 -54.5zM724 786q82 -13 170 -40q90 333 154 533q-57 0 -110.5 -66.5t-106.5 -178t-107 -248.5z
M1273 1803l-1 -6q0 -19 16 -48t38 -61q24 -38 44.5 -75t20.5 -65q-1 -68 -77 -74q-43 4 -62.5 55.5t-24 116.5t-4.5 99q-14 -1 -31.5 -27.5t-38.5 -66.5q-21 -41 -46.5 -82t-55 -70t-63.5 -29q-27 1 -47 20.5t-20 48.5q0 45 41 91.5t98.5 86t113.5 64t87 24.5q7 0 12 -2z
" />
    <glyph glyph-name="Atilde" unicode="&#xc3;" horiz-adv-x="1227" 
d="M704 735l-34 -87l-67.5 -174.5t-81 -178.5t-97.5 -158.5t-116 -114t-138 -42.5q-71 0 -117.5 29.5t-69.5 80t-23 114.5q0 73 24.5 154.5t76.5 159t132 140.5t190.5 101.5t253.5 38.5l21 51q34 86 79 184t104 186t134.5 145t171.5 57q53 0 83 -17.5t42 -45.5
q11 -27 11 -59v-5q-6 -87 -32 -159q-47 -152 -99.5 -339.5t-91 -354t-38.5 -243.5q0 -16 6.5 -31t31.5 -15t64.5 50t81 120t74.5 136t47 103q0 -19 -20.5 -84t-57.5 -148.5t-87 -163t-109 -132.5t-123 -53q-62 0 -95 29t-45 70.5t-12 76.5q0 80 31 231q29 141 71 303
q-88 39 -176 45zM365.5 687.5q-117.5 -54.5 -190 -167t-72.5 -213.5q0 -36 9 -65.5t32.5 -47t64.5 -17.5q74 0 132.5 49t104 124.5t80 159.5t59.5 156l29 76q-131 0 -248.5 -54.5zM724 786q82 -13 170 -40q90 333 154 533q-57 0 -110.5 -66.5t-106.5 -178t-107 -248.5z
M1472 1729q-8 -115 -43 -169.5t-102 -54.5q-31 0 -57 8t-51 18q-26 11 -54.5 20t-62.5 9q-39 0 -75 -21.5t-61 -71.5q10 89 34 140.5t58.5 73t73.5 21.5q32 0 62 -7.5t59 -17.5q27 -9 55 -16t58 -7q31 0 59 16.5t47 58.5z" />
    <glyph glyph-name="Adieresis" unicode="&#xc4;" horiz-adv-x="1227" 
d="M704 735l-34 -87l-67.5 -174.5t-81 -178.5t-97.5 -158.5t-116 -114t-138 -42.5q-71 0 -117.5 29.5t-69.5 80t-23 114.5q0 73 24.5 154.5t76.5 159t132 140.5t190.5 101.5t253.5 38.5l21 51q34 86 79 184t104 186t134.5 145t171.5 57q53 0 83 -17.5t42 -45.5
q11 -27 11 -59v-5q-6 -87 -32 -159q-47 -152 -99.5 -339.5t-91 -354t-38.5 -243.5q0 -16 6.5 -31t31.5 -15t64.5 50t81 120t74.5 136t47 103q0 -19 -20.5 -84t-57.5 -148.5t-87 -163t-109 -132.5t-123 -53q-62 0 -95 29t-45 70.5t-12 76.5q0 80 31 231q29 141 71 303
q-88 39 -176 45zM365.5 687.5q-117.5 -54.5 -190 -167t-72.5 -213.5q0 -36 9 -65.5t32.5 -47t64.5 -17.5q74 0 132.5 49t104 124.5t80 159.5t59.5 156l29 76q-131 0 -248.5 -54.5zM724 786q82 -13 170 -40q90 333 154 533q-57 0 -110.5 -66.5t-106.5 -178t-107 -248.5z
M1067 1504q-52 9 -81 51q-25 35 -25 79q0 10 2 20q9 55 49 88q34 28 77 28q68 -3 97 -52q24 -35 24 -79q0 -10 -1 -20q-9 -56 -49 -89q-33 -27 -75 -27q-9 0 -18 1zM1369 1504q-52 9 -81 51q-25 35 -25 79q0 9 2 20q9 55 49 88q34 27 77 27q68 -3 97 -51q24 -35 24 -79
q0 -10 -1 -20q-9 -56 -49 -89q-33 -27 -75 -27q-9 0 -18 1z" />
    <glyph glyph-name="Aring" unicode="&#xc5;" horiz-adv-x="1227" 
d="M704 735l-34 -87l-67.5 -174.5t-81 -178.5t-97.5 -158.5t-116 -114t-138 -42.5q-71 0 -117.5 29.5t-69.5 80t-23 114.5q0 73 24.5 154.5t76.5 159t132 140.5t190.5 101.5t253.5 38.5l21 51q34 86 79 184t104 186t134.5 145t171.5 57q53 0 83 -17.5t42 -45.5
q11 -27 11 -59v-5q-6 -87 -32 -159q-47 -152 -99.5 -339.5t-91 -354t-38.5 -243.5q0 -16 6.5 -31t31.5 -15t64.5 50t81 120t74.5 136t47 103q0 -19 -20.5 -84t-57.5 -148.5t-87 -163t-109 -132.5t-123 -53q-62 0 -95 29t-45 70.5t-12 76.5q0 80 31 231q29 141 71 303
q-88 39 -176 45zM365.5 687.5q-117.5 -54.5 -190 -167t-72.5 -213.5q0 -36 9 -65.5t32.5 -47t64.5 -17.5q74 0 132.5 49t104 124.5t80 159.5t59.5 156l29 76q-131 0 -248.5 -54.5zM724 786q82 -13 170 -40q90 333 154 533q-57 0 -110.5 -66.5t-106.5 -178t-107 -248.5z
M1249 1833q88 0 131 -41.5t48 -102.5v-20q0 -51 -21 -101q-26 -61 -77.5 -101.5t-122.5 -42.5q-76 2 -115 42.5t-45 101.5q-2 12 -2 25q0 48 19 96q23 61 70 102.5t115 41.5zM1221 1492q46 0 71.5 43.5t28.5 99.5v21q0 43 -13 79q-18 43 -56 43q-46 0 -72 -43.5t-30 -99.5
q-2 -13 -2 -25q0 -41 14 -74q18 -44 59 -44z" />
    <glyph glyph-name="AE" unicode="&#xc6;" horiz-adv-x="1667" 
d="M103 307q0 -36 9 -65.5t32.5 -47t64.5 -17.5q74 0 132.5 49t104 124.5t80 159.5t59.5 156l29 76q-131 0 -248.5 -54.5t-190 -167t-72.5 -213.5zM1112 624q60 43 123 69q-37 8 -81 38t-78 88.5t-34 157.5q0 76 25 155q26 71 26 102q-3 44 -45 45q-57 0 -110.5 -66.5
t-106.5 -178t-107 -248.5q203 -12 388 -162zM704 735l-34 -87l-67.5 -174.5t-81 -178.5t-97.5 -158.5t-116 -114t-138 -42.5q-71 0 -117.5 29.5t-69.5 80t-23 114.5q0 73 24.5 154.5t76.5 159t132 140.5t190.5 101.5t253.5 38.5l21 51q34 86 79 184t104 186t134.5 145
t171.5 57q53 0 83 -17q20 -10 35 -26q84 43 193 43q129 0 213 -71.5t84 -185.5q0 -60 -18.5 -120.5t-36.5 -97.5q-27 -26 -101 -31h-18q-65 0 -125 25q95 133 95 266q0 44 -17.5 75.5t-59.5 31.5q-58 0 -107 -63t-79.5 -157t-30.5 -185q0 -78 36 -121q21 -26 58 -26
q24 0 56 11q5 1 9 1q19 0 32 -23q15 -30 15 -72q-88 0 -161.5 -56t-118 -138.5t-44.5 -161.5q0 -64 27 -104.5t70 -60.5t91 -20q76 0 138.5 36.5t115.5 97.5t99 136t88 154q-10 -61 -38.5 -137t-75.5 -153.5t-113 -143.5t-150.5 -106.5t-187.5 -40.5q-85 0 -156.5 34
t-115.5 96t-44 144q0 95 52 183q41 70 101 128q-166 165 -336 170z" />
    <glyph glyph-name="Ccedilla" unicode="&#xc7;" horiz-adv-x="767" 
d="M247 -19q-92 7 -152 60q-70 60 -102.5 162t-32.5 227q0 127 24.5 265t73 266.5t120.5 232.5t167 165.5t213 61.5q100 0 159 -34.5t85 -90.5t27 -123v-8q0 -64 -16 -127q-17 -68 -43 -125q-28 -27 -108 -31h-19q-68 0 -129 25q25 21 50.5 67.5t45 104t27.5 110.5
q3 24 3 44q0 25 -5 45q-10 36 -45 36q-75 0 -142 -79t-118 -207.5t-80.5 -282t-29.5 -302.5q0 -81 18 -150.5t57.5 -112.5t104.5 -43q76 0 143 36.5t124.5 97.5t107.5 136t92 154q-10 -61 -41 -137t-82 -153.5t-120.5 -143.5t-156.5 -106q-60 -29 -128 -37l-80 -103
q54 0 91.5 -13t61.5 -33q30 -27 42.5 -59.5t12.5 -60.5q0 -47 -23.5 -87t-62.5 -69q-87 -61 -192 -61q-51 0 -100.5 15t-88.5 49q87 0 157 16q56 13 88 43q34 29 34 81q0 49 -27 76q-19 20 -44 29t-50 9q-3 4 -3 11q0 4 1 9q1 14 7 28z" />
    <glyph glyph-name="Egrave" unicode="&#xc8;" horiz-adv-x="741" 
d="M773 946q-27 -26 -101 -31h-18q-64 0 -125 25q95 133 95 266q0 44 -17.5 75.5t-59.5 31.5q-58 0 -107 -63t-79.5 -157t-30.5 -185q0 -78 36 -121q21 -26 59 -26q24 0 55 11q5 1 10 1q19 0 31 -23q15 -30 15 -72q-88 0 -161.5 -56t-118 -138.5t-44.5 -161.5
q0 -64 27 -104.5t70 -60.5t91 -20q76 0 138.5 36.5t115.5 97.5t99 136t88 154q-10 -61 -38.5 -137t-75.5 -153.5t-113 -143.5t-150.5 -106.5t-187.5 -40.5q-85 0 -156.5 34t-115.5 96t-44 144q0 95 51.5 182.5t130.5 154t166 102.5q-37 8 -81 38t-78 88.5t-34 157.5
q0 76 24.5 154.5t75 144t129 105.5t187.5 40q129 0 213 -71.5t84 -185.5q0 -60 -18.5 -120.5t-36.5 -97.5zM340 1825q54 0 100 -44t80.5 -104t54.5 -112.5t24 -74.5q-145 36 -237.5 118t-92.5 152q0 25 19.5 45t51.5 20z" />
    <glyph glyph-name="Eacute" unicode="&#xc9;" horiz-adv-x="741" 
d="M773 946q-27 -26 -101 -31h-18q-64 0 -125 25q95 133 95 266q0 44 -17.5 75.5t-59.5 31.5q-58 0 -107 -63t-79.5 -157t-30.5 -185q0 -78 36 -121q21 -26 59 -26q24 0 55 11q5 1 10 1q19 0 31 -23q15 -30 15 -72q-88 0 -161.5 -56t-118 -138.5t-44.5 -161.5
q0 -64 27 -104.5t70 -60.5t91 -20q76 0 138.5 36.5t115.5 97.5t99 136t88 154q-10 -61 -38.5 -137t-75.5 -153.5t-113 -143.5t-150.5 -106.5t-187.5 -40.5q-85 0 -156.5 34t-115.5 96t-44 144q0 95 51.5 182.5t130.5 154t166 102.5q-37 8 -81 38t-78 88.5t-34 157.5
q0 76 24.5 154.5t75 144t129 105.5t187.5 40q129 0 213 -71.5t84 -185.5q0 -60 -18.5 -120.5t-36.5 -97.5zM805 1825q32 0 51.5 -20t19.5 -45q0 -70 -92.5 -152t-237.5 -118q4 22 24 74.5t54.5 112.5t80.5 104t100 44z" />
    <glyph glyph-name="Ecircumflex" unicode="&#xca;" horiz-adv-x="741" 
d="M773 946q-27 -26 -101 -31h-18q-64 0 -125 25q95 133 95 266q0 44 -17.5 75.5t-59.5 31.5q-58 0 -107 -63t-79.5 -157t-30.5 -185q0 -78 36 -121q21 -26 59 -26q24 0 55 11q5 1 10 1q19 0 31 -23q15 -30 15 -72q-88 0 -161.5 -56t-118 -138.5t-44.5 -161.5
q0 -64 27 -104.5t70 -60.5t91 -20q76 0 138.5 36.5t115.5 97.5t99 136t88 154q-10 -61 -38.5 -137t-75.5 -153.5t-113 -143.5t-150.5 -106.5t-187.5 -40.5q-85 0 -156.5 34t-115.5 96t-44 144q0 95 51.5 182.5t130.5 154t166 102.5q-37 8 -81 38t-78 88.5t-34 157.5
q0 76 24.5 154.5t75 144t129 105.5t187.5 40q129 0 213 -71.5t84 -185.5q0 -60 -18.5 -120.5t-36.5 -97.5zM715 1803v-7q0 -19 16 -47.5t37 -61.5q25 -37 45 -74t20 -65q-1 -68 -76 -74q-44 3 -63.5 55t-24 117t-4.5 99q-13 -1 -30.5 -27.5t-38.5 -66.5q-22 -41 -47.5 -82.5
t-55 -70t-63.5 -28.5q-27 1 -47 20.5t-20 48.5q0 44 41 91t99 86.5t114 64t86 24.5q7 0 12 -2z" />
    <glyph glyph-name="Edieresis" unicode="&#xcb;" horiz-adv-x="741" 
d="M773 946q-27 -26 -101 -31h-18q-64 0 -125 25q95 133 95 266q0 44 -17.5 75.5t-59.5 31.5q-58 0 -107 -63t-79.5 -157t-30.5 -185q0 -78 36 -121q21 -26 59 -26q24 0 55 11q5 1 10 1q19 0 31 -23q15 -30 15 -72q-88 0 -161.5 -56t-118 -138.5t-44.5 -161.5
q0 -64 27 -104.5t70 -60.5t91 -20q76 0 138.5 36.5t115.5 97.5t99 136t88 154q-10 -61 -38.5 -137t-75.5 -153.5t-113 -143.5t-150.5 -106.5t-187.5 -40.5q-85 0 -156.5 34t-115.5 96t-44 144q0 95 51.5 182.5t130.5 154t166 102.5q-37 8 -81 38t-78 88.5t-34 157.5
q0 76 24.5 154.5t75 144t129 105.5t187.5 40q129 0 213 -71.5t84 -185.5q0 -60 -18.5 -120.5t-36.5 -97.5zM428 1505q-52 8 -82 51q-24 34 -24 78q0 10 1 20q10 56 49 88q34 28 78 28q68 -2 97 -52q24 -35 24 -79q0 -9 -1 -19q-9 -57 -49 -89q-33 -27 -76 -27q-8 0 -17 1z
M730 1505q-52 8 -82 51q-24 34 -24 78q0 10 1 20q9 56 49 88q34 28 78 28q68 -3 97 -52q24 -35 24 -79q0 -9 -1 -19q-9 -57 -49 -89q-34 -27 -76 -27q-8 0 -17 1z" />
    <glyph glyph-name="Igrave" unicode="&#xcc;" horiz-adv-x="653" 
d="M473 198q0 -16 4.5 -31t20.5 -15q25 0 62.5 50t76.5 120t70.5 136t45.5 103q0 -19 -21 -84t-57 -148.5t-83 -163t-101 -132.5t-110 -53q-62 0 -95 29t-45 70.5t-12 76.5q0 122 43 319t100 399.5t105 352.5v2q3 7 5.5 17t2.5 20t-5.5 17t-20.5 7q-64 0 -125 -47.5
t-109.5 -120.5t-78 -153t-29.5 -144q0 -66 25 -123.5t81 -95.5q-3 -1 -5 -2q-22 -11 -42.5 -18t-55.5 -7q-56 0 -91 28t-52 69.5t-17 80.5q0 122 62 240.5t162 214t218 153t230 57.5q52 0 77.5 -21t31.5 -53q4 -18 4 -37q0 -16 -3 -33q-5 -38 -16 -72l-102.5 -323
t-104.5 -380.5t-46 -304.5zM327 1825q54 0 100 -44t80.5 -104t54.5 -112.5t24 -73.5q-145 35 -237.5 117t-92.5 152q0 25 19.5 45t51.5 20z" />
    <glyph glyph-name="Iacute" unicode="&#xcd;" horiz-adv-x="653" 
d="M473 198q0 -16 4.5 -31t20.5 -15q25 0 62.5 50t76.5 120t70.5 136t45.5 103q0 -19 -21 -84t-57 -148.5t-83 -163t-101 -132.5t-110 -53q-62 0 -95 29t-45 70.5t-12 76.5q0 122 43 319t100 399.5t105 352.5v2q3 7 5.5 17t2.5 20t-5.5 17t-20.5 7q-64 0 -125 -47.5
t-109.5 -120.5t-78 -153t-29.5 -144q0 -66 25 -123.5t81 -95.5q-3 -1 -5 -2q-22 -11 -42.5 -18t-55.5 -7q-56 0 -91 28t-52 69.5t-17 80.5q0 122 62 240.5t162 214t218 153t230 57.5q52 0 77.5 -21t31.5 -53q4 -18 4 -37q0 -16 -3 -33q-5 -38 -16 -72l-102.5 -323
t-104.5 -380.5t-46 -304.5zM786 1825q33 0 52.5 -20t19.5 -45q0 -70 -92.5 -152t-237.5 -118q3 22 23.5 74.5t55 112.5t80 104t99.5 44z" />
    <glyph glyph-name="Icircumflex" unicode="&#xce;" horiz-adv-x="653" 
d="M473 198q0 -16 4.5 -31t20.5 -15q25 0 62.5 50t76.5 120t70.5 136t45.5 103q0 -19 -21 -84t-57 -148.5t-83 -163t-101 -132.5t-110 -53q-62 0 -95 29t-45 70.5t-12 76.5q0 122 43 319t100 399.5t105 352.5v2q3 7 5.5 17t2.5 20t-5.5 17t-20.5 7q-64 0 -125 -47.5
t-109.5 -120.5t-78 -153t-29.5 -144q0 -66 25 -123.5t81 -95.5q-3 -1 -5 -2q-22 -11 -42.5 -18t-55.5 -7q-56 0 -91 28t-52 69.5t-17 80.5q0 122 62 240.5t162 214t218 153t230 57.5q52 0 77.5 -21t31.5 -53q4 -18 4 -37q0 -16 -3 -33q-5 -38 -16 -72l-102.5 -323
t-104.5 -380.5t-46 -304.5zM760 1803l-1 -6q0 -19 16 -48t38 -61q24 -38 44.5 -75t20.5 -65q-1 -68 -77 -74q-43 4 -62.5 55.5t-24 116.5t-4.5 99q-14 -1 -31.5 -27.5t-38.5 -66.5q-21 -41 -46.5 -82t-55 -70t-63.5 -29q-27 1 -47 20.5t-20 48.5q0 45 40.5 91.5t98.5 86
t114 64t87 24.5q7 0 12 -2z" />
    <glyph glyph-name="Idieresis" unicode="&#xcf;" horiz-adv-x="653" 
d="M473 198q0 -16 4.5 -31t20.5 -15q25 0 62.5 50t76.5 120t70.5 136t45.5 103q0 -19 -21 -84t-57 -148.5t-83 -163t-101 -132.5t-110 -53q-62 0 -95 29t-45 70.5t-12 76.5q0 122 43 319t100 399.5t105 352.5v2q3 7 5.5 17t2.5 20t-5.5 17t-20.5 7q-64 0 -125 -47.5
t-109.5 -120.5t-78 -153t-29.5 -144q0 -66 25 -123.5t81 -95.5q-3 -1 -5 -2q-22 -11 -42.5 -18t-55.5 -7q-56 0 -91 28t-52 69.5t-17 80.5q0 122 62 240.5t162 214t218 153t230 57.5q52 0 77.5 -21t31.5 -53q4 -18 4 -37q0 -16 -3 -33q-5 -38 -16 -72l-102.5 -323
t-104.5 -380.5t-46 -304.5zM440 1504q-51 9 -81 51q-25 35 -25 79q0 9 2 20q9 55 49 88q34 27 77 27q68 -2 97 -51q24 -35 24 -79q0 -10 -1 -20q-9 -56 -49 -89q-33 -27 -75 -27q-9 0 -18 1zM742 1504q-52 9 -81 51q-25 34 -25 79q0 9 2 19q9 56 49 89q34 27 77 27
q68 -3 97 -52q24 -35 24 -78q0 -10 -1 -20q-9 -56 -49 -89q-33 -27 -75 -27q-9 0 -18 1z" />
    <glyph glyph-name="Eth" unicode="&#xd0;" horiz-adv-x="1230" 
d="M16 798q-9 14 -16 31q-22 50 -22 112q0 85 44 177t135 167q75 62 183.5 99.5t253.5 37.5q209 0 340 -90.5t181 -249.5q30 -95 30 -209q0 -74 -13 -157q164 -64 248 -155q-92 70 -254 121q-72 -335 -318 -538q-100 -81 -223 -125.5t-264 -44.5q-156 0 -257 84
q-49 42 -76.5 106t-27.5 148q0 115 63 226q38 66 101 120h-158q-116 -1 -124 -1q-9 13 -9 32q0 13 4 28q11 44 39 80q75 0 140 1zM361 783q22 70 38 135q24 96 24 159v5q-2 65 -46 65q60 35 120 35q62 0 95 -29.5t45 -70.5t12 -76q0 -73 -31 -184l-2 -6h10q125 0 264 -29
l1 33q0 82 -13 159q-14 92 -53 166.5t-109 119t-180 44.5q-76 0 -138.5 -27t-109.5 -72q-110 -113 -110 -252q0 -64 19.5 -108.5t40.5 -69.5t29 -30q0 -1 1 -2q43 21 93 35zM600 761q-26 -83 -57 -168l-82 -214l-39 -101q-39 -92 -119 -101q-8 -1 -15 -1q-70 0 -128 66
q7 19 29 72l68 172q39 103 78 217q-79 -37 -133 -88q-68 -65 -101 -139.5t-33 -140.5q0 -134 77 -198q67 -57 178 -57q90 0 189.5 46t185.5 139q74 81 125 199t65 274q-139 23 -260 23h-28z" />
    <glyph glyph-name="Ntilde" unicode="&#xd1;" horiz-adv-x="1260" 
d="M477 1227v2q3 7 5.5 17t2.5 20t-5.5 17t-20.5 7q-64 0 -125 -47.5t-109.5 -120.5t-78 -153t-29.5 -144q0 -66 25 -123.5t81 -95.5q-3 -1 -5 -2q-22 -11 -42.5 -18t-55.5 -7q-56 0 -91 28t-52 69.5t-17 80.5q0 122 62 240.5t162 214t218 153t230 57.5q52 0 77.5 -21
t31.5 -53q4 -19 4 -40q0 -15 -2 -30q-6 -38 -17 -72q-4 -12 -10 -28l-95.5 -300.5t-112 -392t-51.5 -294.5v-4q0 -35 15 -35q15 55 49 163.5t83.5 245t112.5 277t136 259.5t154 193.5t166 74.5q42 0 62 -12t26.5 -30t6.5 -36q0 -77 -26.5 -189t-64.5 -238
q-58 -203 -102.5 -391t-44.5 -271q0 -16 4 -31t20 -15q34 0 100.5 83t126 179t79.5 147q0 -19 -25.5 -84t-69.5 -148.5t-98.5 -163t-114 -132.5t-115.5 -53q-62 0 -95 29t-45 70.5t-12 76.5q0 196 57 455t134 493q-31 0 -123 -187.5t-186.5 -437.5t-144.5 -461
q-34 -19 -74.5 -28.5t-66.5 -9.5q-70 0 -111 45t-41 131q0 138 44 337t100 391.5t98 323.5q3 10 6 19zM1214 1729q-8 -114 -43 -169t-102 -55q-31 0 -57 8t-51 19q-26 11 -54.5 19.5t-62.5 8.5q-39 0 -75 -21t-61 -71q10 89 34 140.5t58.5 72.5t73.5 21q32 0 62 -7.5
t59 -16.5q27 -9 55 -16.5t58 -7.5q31 0 59 17t47 58z" />
    <glyph glyph-name="Ograve" unicode="&#xd2;" horiz-adv-x="994" 
d="M400 137q63 0 117.5 48.5t97.5 129t74 181t47 206.5q-183 14 -284 91t-134 185q-45 -131 -71.5 -265.5t-26.5 -269.5q0 -81 18 -150.5t57.5 -112.5t104.5 -43zM321 1241q18 49 53.5 89.5t93 65.5t141.5 25q103 0 176 -61.5t112 -165.5t39 -231q0 -102 -17 -213
q143 2 338 45q-193 -70 -346 -87q-27 -138 -82.5 -267t-136.5 -233t-185.5 -166t-230.5 -62q-112 0 -181.5 60.5t-102 162.5t-32.5 227q0 140 24 266t58 229.5t66 176.5t50 108q34 19 78 26q34 5 67 5h18zM744 762q8 86 8 164q0 114 -23 182.5t-59 98.5t-77 30t-79.5 -17.5
t-62.5 -55.5t-24 -99q0 -65 31.5 -127t101.5 -108.5t184 -67.5zM420 1825q54 0 100 -44.5t80.5 -104t54.5 -112.5t24 -74q-145 35 -237.5 117t-92.5 153q0 25 19.5 45t51.5 20z" />
    <glyph glyph-name="Oacute" unicode="&#xd3;" horiz-adv-x="994" 
d="M400 137q63 0 117.5 48.5t97.5 129t74 181t47 206.5q-183 14 -284 91t-134 185q-45 -131 -71.5 -265.5t-26.5 -269.5q0 -81 18 -150.5t57.5 -112.5t104.5 -43zM321 1241q18 49 53.5 89.5t93 65.5t141.5 25q103 0 176 -61.5t112 -165.5t39 -231q0 -102 -17 -213
q143 2 338 45q-193 -70 -346 -87q-27 -138 -82.5 -267t-136.5 -233t-185.5 -166t-230.5 -62q-112 0 -181.5 60.5t-102 162.5t-32.5 227q0 140 24 266t58 229.5t66 176.5t50 108q34 19 78 26q34 5 67 5h18zM744 762q8 86 8 164q0 114 -23 182.5t-59 98.5t-77 30t-79.5 -17.5
t-62.5 -55.5t-24 -99q0 -65 31.5 -127t101.5 -108.5t184 -67.5zM868 1825q32 0 51.5 -20t19.5 -45q0 -70 -92.5 -152.5t-237.5 -117.5q4 21 24 74t54.5 113t80.5 104t100 44z" />
    <glyph glyph-name="Ocircumflex" unicode="&#xd4;" horiz-adv-x="994" 
d="M400 137q63 0 117.5 48.5t97.5 129t74 181t47 206.5q-183 14 -284 91t-134 185q-45 -131 -71.5 -265.5t-26.5 -269.5q0 -81 18 -150.5t57.5 -112.5t104.5 -43zM321 1241q18 49 53.5 89.5t93 65.5t141.5 25q103 0 176 -61.5t112 -165.5t39 -231q0 -102 -17 -213
q143 2 338 45q-193 -70 -346 -87q-27 -138 -82.5 -267t-136.5 -233t-185.5 -166t-230.5 -62q-112 0 -181.5 60.5t-102 162.5t-32.5 227q0 140 24 266t58 229.5t66 176.5t50 108q34 19 78 26q34 5 67 5h18zM744 762q8 86 8 164q0 114 -23 182.5t-59 98.5t-77 30t-79.5 -17.5
t-62.5 -55.5t-24 -99q0 -65 31.5 -127t101.5 -108.5t184 -67.5zM726 1803l-1 -7q0 -19 16 -47.5t37 -61.5q25 -37 45 -74t20 -65q0 -68 -76 -74q-43 3 -62.5 55t-24 117t-4.5 99q-14 -1 -31.5 -27.5t-38.5 -66.5q-21 -41 -46.5 -82.5t-55 -70t-63.5 -28.5q-27 1 -47 20.5
t-20 48.5q0 44 40.5 91t98.5 86.5t114 64t87 24.5q7 0 12 -2z" />
    <glyph glyph-name="Otilde" unicode="&#xd5;" horiz-adv-x="994" 
d="M400 137q63 0 117.5 48.5t97.5 129t74 181t47 206.5q-183 14 -284 91t-134 185q-45 -131 -71.5 -265.5t-26.5 -269.5q0 -81 18 -150.5t57.5 -112.5t104.5 -43zM321 1241q18 49 53.5 89.5t93 65.5t141.5 25q103 0 176 -61.5t112 -165.5t39 -231q0 -102 -17 -213
q143 2 338 45q-193 -70 -346 -87q-27 -138 -82.5 -267t-136.5 -233t-185.5 -166t-230.5 -62q-112 0 -181.5 60.5t-102 162.5t-32.5 227q0 140 24 266t58 229.5t66 176.5t50 108q34 19 78 26q34 5 67 5h18zM744 762q8 86 8 164q0 114 -23 182.5t-59 98.5t-77 30t-79.5 -17.5
t-62.5 -55.5t-24 -99q0 -65 31.5 -127t101.5 -108.5t184 -67.5zM862 1729q-8 -115 -43 -169.5t-102 -54.5q-31 0 -57 8t-51 18q-26 11 -54.5 20t-63.5 9q-38 0 -74 -21.5t-62 -71.5q11 89 35 140.5t58.5 73t73.5 21.5q32 0 62 -7.5t58 -17.5q28 -9 56 -16t58 -7q31 0 59 17
t47 58z" />
    <glyph glyph-name="Odieresis" unicode="&#xd6;" horiz-adv-x="994" 
d="M400 137q63 0 117.5 48.5t97.5 129t74 181t47 206.5q-183 14 -284 91t-134 185q-45 -131 -71.5 -265.5t-26.5 -269.5q0 -81 18 -150.5t57.5 -112.5t104.5 -43zM321 1241q18 49 53.5 89.5t93 65.5t141.5 25q103 0 176 -61.5t112 -165.5t39 -231q0 -102 -17 -213
q143 2 338 45q-193 -70 -346 -87q-27 -138 -82.5 -267t-136.5 -233t-185.5 -166t-230.5 -62q-112 0 -181.5 60.5t-102 162.5t-32.5 227q0 140 24 266t58 229.5t66 176.5t50 108q34 19 78 26q34 5 67 5h18zM744 762q8 86 8 164q0 114 -23 182.5t-59 98.5t-77 30t-79.5 -17.5
t-62.5 -55.5t-24 -99q0 -65 31.5 -127t101.5 -108.5t184 -67.5zM439 1505q-52 8 -82 50q-24 35 -24 79q0 10 1 20q9 55 49 88q34 28 78 28q68 -3 97 -52q24 -35 24 -79q0 -10 -1 -20q-10 -56 -49 -89q-34 -27 -76 -27q-8 0 -17 2zM741 1504q-52 9 -82 51q-24 35 -24 79
q0 9 1 20q9 55 49 88q34 27 78 27q68 -3 97 -51q24 -35 24 -79q0 -10 -1 -20q-10 -56 -49 -89q-34 -27 -76 -27q-8 0 -17 1z" />
    <glyph glyph-name="multiply" unicode="&#xd7;" horiz-adv-x="1111" 
d="M1028 822q-212 -172 -331 -260l-11 -9q3 -4 7 -10l251 -315q-20 -41 -59 -75l-4 -2q-30 -25 -58 -25h-4q-146 211 -248 337l-56 -45q-118 -95 -280 -238q-19 2 -35 16q-11 9 -22 22q-28 39 -35 85q218 176 332 261l9 7q-5 6 -9 12l-249 311q19 43 59 76l3 3q31 25 60 25
h2q152 -219 248 -338l55 43q115 93 282 242q18 -3 34 -16q11 -10 22 -24q29 -39 37 -83z" />
    <glyph glyph-name="Oslash" unicode="&#xd8;" horiz-adv-x="994" 
d="M343 147q26 -10 57 -10q63 0 117.5 48.5t97.5 129t74 181t47 206.5q-78 6 -141 23l-107 -246zM662 1213q-32 24 -69 24q-41 0 -79.5 -17.5t-62.5 -55.5t-24 -99q0 -65 32 -127q19 -39 55 -72l70 161zM625 796q52 -22 119 -34q8 86 8 164q0 79 -11 136zM475 777l-23 16
q-101 77 -134 185q-45 -131 -71.5 -265.5t-26.5 -269.5q0 -81 18 -150q4 -16 9 -31zM321 1241q18 49 53.5 89.5t93 65.5t141.5 25q103 0 176 -61.5t112 -165.5t39 -231q0 -102 -17 -213q143 2 338 45q-193 -70 -346 -87q-27 -138 -82.5 -267t-136.5 -233t-185.5 -166
t-230.5 -62q-112 0 -181.5 60.5t-102 162.5t-32.5 227q0 140 24 266t58 229.5t66 176.5t50 108q34 19 78 26q34 5 67 5h18z" />
    <glyph glyph-name="Ugrave" unicode="&#xd9;" horiz-adv-x="1192" 
d="M1043 1342q76 32 150 32q33 0 59 -8t40 -25q-32 -88 -101.5 -320t-131.5 -477t-62 -346q0 -16 4 -31t20 -15q25 0 63 50t77 120t70 136t45 103q0 -19 -20.5 -84t-56.5 -148.5t-83.5 -163t-101.5 -132.5t-110 -53q-62 0 -95 29t-45 70.5t-12 76.5q0 63 20 171t51 239
q-45 -114 -97 -218.5t-109.5 -187t-118.5 -131.5t-123 -49t-95 29t-45 70.5t-12 76.5q0 110 55 342.5t120.5 462t105.5 352.5q-95 0 -184 -76.5t-146 -189.5t-57 -222q0 -66 25 -123.5t81 -95.5q-3 -1 -5 -2q-21 -11 -42 -18t-56 -7q-55 0 -90.5 28t-52.5 69.5t-17 80.5
q0 122 62.5 240.5t162 214t217.5 153t230 57.5q39 0 65.5 -15.5t42.5 -34.5t23 -31q-32 -88 -101.5 -320t-132 -477t-62.5 -346q0 -16 4.5 -31t20.5 -15q32 0 91 103t129.5 259t138.5 324l119.5 304.5t72.5 199.5zM730 1825q55 0 100.5 -44t80 -104t55 -112.5t23.5 -74.5
q-145 36 -237.5 118t-92.5 152q0 25 19.5 45t51.5 20z" />
    <glyph glyph-name="Uacute" unicode="&#xda;" horiz-adv-x="1192" 
d="M1043 1342q76 32 150 32q33 0 59 -8t40 -25q-32 -88 -101.5 -320t-131.5 -477t-62 -346q0 -16 4 -31t20 -15q25 0 63 50t77 120t70 136t45 103q0 -19 -20.5 -84t-56.5 -148.5t-83.5 -163t-101.5 -132.5t-110 -53q-62 0 -95 29t-45 70.5t-12 76.5q0 63 20 171t51 239
q-45 -114 -97 -218.5t-109.5 -187t-118.5 -131.5t-123 -49t-95 29t-45 70.5t-12 76.5q0 110 55 342.5t120.5 462t105.5 352.5q-95 0 -184 -76.5t-146 -189.5t-57 -222q0 -66 25 -123.5t81 -95.5q-3 -1 -5 -2q-21 -11 -42 -18t-56 -7q-55 0 -90.5 28t-52.5 69.5t-17 80.5
q0 122 62.5 240.5t162 214t217.5 153t230 57.5q39 0 65.5 -15.5t42.5 -34.5t23 -31q-32 -88 -101.5 -320t-132 -477t-62.5 -346q0 -16 4.5 -31t20.5 -15q32 0 91 103t129.5 259t138.5 324l119.5 304.5t72.5 199.5zM1162 1825q32 0 51.5 -20t19.5 -45q0 -70 -92.5 -152
t-237.5 -118q4 22 24 74.5t54.5 112.5t80 104t100.5 44z" />
    <glyph glyph-name="Ucircumflex" unicode="&#xdb;" horiz-adv-x="1192" 
d="M1043 1342q76 32 150 32q33 0 59 -8t40 -25q-32 -88 -101.5 -320t-131.5 -477t-62 -346q0 -16 4 -31t20 -15q25 0 63 50t77 120t70 136t45 103q0 -19 -20.5 -84t-56.5 -148.5t-83.5 -163t-101.5 -132.5t-110 -53q-62 0 -95 29t-45 70.5t-12 76.5q0 63 20 171t51 239
q-45 -114 -97 -218.5t-109.5 -187t-118.5 -131.5t-123 -49t-95 29t-45 70.5t-12 76.5q0 110 55 342.5t120.5 462t105.5 352.5q-95 0 -184 -76.5t-146 -189.5t-57 -222q0 -66 25 -123.5t81 -95.5q-3 -1 -5 -2q-21 -11 -42 -18t-56 -7q-55 0 -90.5 28t-52.5 69.5t-17 80.5
q0 122 62.5 240.5t162 214t217.5 153t230 57.5q39 0 65.5 -15.5t42.5 -34.5t23 -31q-32 -88 -101.5 -320t-132 -477t-62.5 -346q0 -16 4.5 -31t20.5 -15q32 0 91 103t129.5 259t138.5 324l119.5 304.5t72.5 199.5zM1052 1803l-1 -7q0 -19 16 -47.5t37 -61.5q25 -37 45 -74
t20 -66q-1 -68 -76 -73q-44 3 -63.5 55t-24 116.5t-4.5 99.5q-13 -1 -30.5 -28t-38.5 -66q-22 -41 -47.5 -82.5t-55 -70t-62.5 -28.5q-28 0 -48 19.5t-20 48.5q0 45 41 92t99 86.5t114 64t87 24.5q6 0 12 -2z" />
    <glyph glyph-name="Udieresis" unicode="&#xdc;" horiz-adv-x="1192" 
d="M1043 1342q76 32 150 32q33 0 59 -8t40 -25q-32 -88 -101.5 -320t-131.5 -477t-62 -346q0 -16 4 -31t20 -15q25 0 63 50t77 120t70 136t45 103q0 -19 -20.5 -84t-56.5 -148.5t-83.5 -163t-101.5 -132.5t-110 -53q-62 0 -95 29t-45 70.5t-12 76.5q0 63 20 171t51 239
q-45 -114 -97 -218.5t-109.5 -187t-118.5 -131.5t-123 -49t-95 29t-45 70.5t-12 76.5q0 110 55 342.5t120.5 462t105.5 352.5q-95 0 -184 -76.5t-146 -189.5t-57 -222q0 -66 25 -123.5t81 -95.5q-3 -1 -5 -2q-21 -11 -42 -18t-56 -7q-55 0 -90.5 28t-52.5 69.5t-17 80.5
q0 122 62.5 240.5t162 214t217.5 153t230 57.5q39 0 65.5 -15.5t42.5 -34.5t23 -31q-32 -88 -101.5 -320t-132 -477t-62.5 -346q0 -16 4.5 -31t20.5 -15q32 0 91 103t129.5 259t138.5 324l119.5 304.5t72.5 199.5zM779 1505q-52 8 -82 51q-24 34 -24 78q0 10 1 20
q10 56 49 88q34 28 78 28q68 -2 97 -52q24 -35 24 -79q0 -9 -1 -19q-9 -57 -49 -89q-33 -27 -76 -27q-8 0 -17 1zM1081 1505q-52 8 -82 51q-24 34 -24 78q0 10 1 20q9 56 49 88q34 28 78 28q68 -3 97 -52q24 -35 24 -79q0 -9 -1 -19q-9 -57 -49 -89q-34 -27 -76 -27
q-8 0 -17 1z" />
    <glyph glyph-name="Yacute" unicode="&#xdd;" horiz-adv-x="1192" 
d="M1043 1342q76 32 150 32q32 0 58.5 -8t40.5 -25q-106 -301 -171 -565.5t-128 -566.5l176 77l97 43q-147 -93 -282 -165q-31 -142 -71 -276q-26 -87 -61.5 -174t-86.5 -161q-56 -83 -137 -134t-197 -51q-82 0 -135.5 57t-53.5 152q0 136 123 267.5t371 252.5l69 328
l59 275q-42 -106 -93 -206.5t-109 -181.5t-121.5 -129t-129.5 -48q-63 0 -96 29t-45 70.5t-12 76.5q0 110 46 303.5t103 386t97 312.5q-95 0 -184 -76.5t-146 -189.5t-57 -222q0 -66 25 -123.5t81 -95.5q-3 -1 -5 -2q-22 -11 -42.5 -18t-55.5 -7q-56 0 -91 28t-52 69.5
t-17 80.5q0 122 62 240.5t162 214t218 153t230 57.5q39 0 65.5 -15.5t42.5 -34.5t22 -31q-30 -86 -91 -280t-114.5 -400.5t-53.5 -307.5q0 -16 4 -31t20 -15q38 0 96.5 90t123.5 226t126 282l106.5 264.5t63.5 172.5zM699 -61q11 45 21 91q-65 -35 -130 -81t-119.5 -102.5
t-88 -123.5t-33.5 -143q0 -42 16.5 -68t54.5 -26q56 0 102 52t81 127q36 77 60 152t36 122zM1157 1825q32 0 52 -20t20 -45q0 -71 -92.5 -153t-237.5 -117q3 21 23.5 73.5t55 112.5t80 104.5t99.5 44.5z" />
    <glyph glyph-name="Thorn" unicode="&#xde;" horiz-adv-x="1036" 
d="M524 218l-34 10l-10 -53q-39 -203 -39 -372q-45 -45 -127 -57q-19 -3 -36 -3q-57 0 -96 28q0 231 89.5 641t131.5 563t74 252v2q3 7 5.5 17t2.5 20t-5.5 17t-20.5 7q-64 0 -125 -47.5t-109.5 -120.5t-78 -153t-29.5 -144q0 -66 25 -123.5t81 -95.5q-3 -1 -5 -2
q-22 -11 -42.5 -18t-55.5 -7q-56 0 -91 28t-52 69.5t-17 80.5q0 122 62 240.5t162 214t218 153t230 57.5q52 0 77.5 -21t31.5 -53q4 -18 4 -37q0 -16 -3 -33q-4 -33 -23 -104q58 24 123 24q56 -1 118 -33q93 -52 134.5 -137.5t41.5 -186.5q0 -166 -70 -313.5t-181.5 -239
t-235.5 -91.5q-59 0 -125 21zM505 306l51 -11q78 0 151.5 68.5t121.5 186t48 264.5q0 78 -26 143.5t-85 105.5q-21 14 -73 23q-57 -190 -154 -620q-13 -57 -34 -160z" />
    <glyph glyph-name="germandbls" unicode="&#xdf;" horiz-adv-x="1065" 
d="M762 1423q69 0 131.5 -26t102 -85.5t39.5 -161.5q0 -71 -27.5 -123t-67.5 -91t-80 -71q-40 -31 -67.5 -59.5t-27.5 -59.5q0 -24 15 -49.5t37 -55.5q24 -33 49 -75t43 -96t18 -125q0 -110 -57 -197.5t-152 -138.5t-208 -51q-82 0 -122 36.5t-42 84.5v5q0 44 33 78
q15 -71 101 -71q38 0 84 31t79.5 88t33.5 134q0 80 -24 138.5t-53 106.5q-22 39 -38.5 76.5t-16.5 78.5q0 43 18 76t46.5 60t61.5 52q37 29 71 62t56 76t22 104q0 55 -21.5 90.5t-64.5 35.5q-38 0 -71.5 -41.5t-58 -94t-36.5 -89.5q-51 -139 -115 -351.5t-114 -410
t-50 -272.5q-33 -48 -119 -59q-18 -2 -35 -2q-62 0 -105 29q0 76 46 260.5t107.5 387t112.5 350.5q41 120 95.5 213.5t141.5 148t229 54.5z" />
    <glyph glyph-name="agrave" unicode="&#xe0;" horiz-adv-x="820" 
d="M611 198q0 -16 4 -31t20 -15q18 0 43.5 28t54.5 72q50 80 94 170.5t63 138.5q0 -25 -35 -125.5t-94 -213.5q-34 -65 -73.5 -119.5t-82.5 -88.5t-87 -34q-62 0 -95 29.5t-45 70.5t-12 76q0 63 14 147q-26 -70 -62 -136q-45 -85 -102 -139q-49 -48 -103 -48q-39 0 -66 13
t-44 33q-25 31 -34 67.5t-9 62.5q0 36 8.5 105t26.5 153q23 109 62 212q34 89 82 149q26 33 56.5 52t65.5 19q65 0 124 -31.5t103 -81.5q1 4 4 13.5t7 20.5q16 45 62 62t103 17q33 0 59 -8t40 -24q-17 -47 -38 -113q-27 -83 -54 -178q-28 -99 -45 -190q-15 -79 -15 -135z
M470 675q-47 68 -88 68q-34 0 -63 -59q-36 -71 -61 -177q-19 -73 -31 -142q-21 -130 -21 -162q0 -18 4 -34.5t19 -16.5q19 0 45 39.5t54 101.5q40 90 76 188q49 137 66 194zM276 1243q54 0 100 -44t80.5 -104t54.5 -113t24 -74q-145 36 -237.5 118t-92.5 152q0 25 19.5 45
t51.5 20z" />
    <glyph glyph-name="aacute" unicode="&#xe1;" horiz-adv-x="820" 
d="M611 198q0 -16 4 -31t20 -15q18 0 43.5 28t54.5 72q50 80 94 170.5t63 138.5q0 -25 -35 -125.5t-94 -213.5q-34 -65 -73.5 -119.5t-82.5 -88.5t-87 -34q-62 0 -95 29.5t-45 70.5t-12 76q0 63 14 147q-26 -70 -62 -136q-45 -85 -102 -139q-49 -48 -103 -48q-39 0 -66 13
t-44 33q-25 31 -34 67.5t-9 62.5q0 36 8.5 105t26.5 153q23 109 62 212q34 89 82 149q26 33 56.5 52t65.5 19q65 0 124 -31.5t103 -81.5q1 4 4 13.5t7 20.5q16 45 62 62t103 17q33 0 59 -8t40 -24q-17 -47 -38 -113q-27 -83 -54 -178q-28 -99 -45 -190q-15 -79 -15 -135z
M470 675q-47 68 -88 68q-34 0 -63 -59q-36 -71 -61 -177q-19 -73 -31 -142q-21 -130 -21 -162q0 -18 4 -34.5t19 -16.5q19 0 45 39.5t54 101.5q40 90 76 188q49 137 66 194zM699 1243q32 0 51.5 -20t19.5 -45q0 -70 -92.5 -152t-237.5 -118q4 22 24 74.5t54.5 112.5
t80.5 104t100 44z" />
    <glyph glyph-name="acircumflex" unicode="&#xe2;" horiz-adv-x="820" 
d="M611 198q0 -16 4 -31t20 -15q18 0 43.5 28t54.5 72q50 80 94 170.5t63 138.5q0 -25 -35 -125.5t-94 -213.5q-34 -65 -73.5 -119.5t-82.5 -88.5t-87 -34q-62 0 -95 29.5t-45 70.5t-12 76q0 63 14 147q-26 -70 -62 -136q-45 -85 -102 -139q-49 -48 -103 -48q-39 0 -66 13
t-44 33q-25 31 -34 67.5t-9 62.5q0 36 8.5 105t26.5 153q23 109 62 212q34 89 82 149q26 33 56.5 52t65.5 19q65 0 124 -31.5t103 -81.5q1 4 4 13.5t7 20.5q16 45 62 62t103 17q33 0 59 -8t40 -24q-17 -47 -38 -113q-27 -83 -54 -178q-28 -99 -45 -190q-15 -79 -15 -135z
M470 675q-47 68 -88 68q-34 0 -63 -59q-36 -71 -61 -177q-19 -73 -31 -142q-21 -130 -21 -162q0 -18 4 -34.5t19 -16.5q19 0 45 39.5t54 101.5q40 90 76 188q49 137 66 194zM609 1221l-1 -7q0 -19 16 -47.5t38 -61.5q24 -37 44.5 -74t20.5 -66q-1 -68 -77 -73
q-43 3 -62.5 55t-24 117t-4.5 99q-14 -1 -31 -27.5t-38 -66.5q-22 -41 -47.5 -82.5t-55 -70t-63.5 -28.5q-27 1 -47 20.5t-20 47.5q0 45 41 92t98.5 86.5t114 64t86.5 24.5q7 0 12 -2z" />
    <glyph glyph-name="atilde" unicode="&#xe3;" horiz-adv-x="820" 
d="M611 198q0 -16 4 -31t20 -15q18 0 43.5 28t54.5 72q50 80 94 170.5t63 138.5q0 -25 -35 -125.5t-94 -213.5q-34 -65 -73.5 -119.5t-82.5 -88.5t-87 -34q-62 0 -95 29.5t-45 70.5t-12 76q0 63 14 147q-26 -70 -62 -136q-45 -85 -102 -139q-49 -48 -103 -48q-39 0 -66 13
t-44 33q-25 31 -34 67.5t-9 62.5q0 36 8.5 105t26.5 153q23 109 62 212q34 89 82 149q26 33 56.5 52t65.5 19q65 0 124 -31.5t103 -81.5q1 4 4 13.5t7 20.5q16 45 62 62t103 17q33 0 59 -8t40 -24q-17 -47 -38 -113q-27 -83 -54 -178q-28 -99 -45 -190q-15 -79 -15 -135z
M470 675q-47 68 -88 68q-34 0 -63 -59q-36 -71 -61 -177q-19 -73 -31 -142q-21 -130 -21 -162q0 -18 4 -34.5t19 -16.5q19 0 45 39.5t54 101.5q40 90 76 188q49 137 66 194zM775 1146q-8 -114 -43 -169t-102 -55q-31 0 -57 8.5t-51 18.5q-27 11 -55 19.5t-63 8.5
q-38 0 -74 -21t-62 -71q10 89 34.5 140.5t58.5 72.5t73 21q33 0 63 -7.5t58 -16.5t56 -16t57 -7q32 0 60 16.5t47 57.5z" />
    <glyph glyph-name="adieresis" unicode="&#xe4;" horiz-adv-x="820" 
d="M611 198q0 -16 4 -31t20 -15q18 0 43.5 28t54.5 72q50 80 94 170.5t63 138.5q0 -25 -35 -125.5t-94 -213.5q-34 -65 -73.5 -119.5t-82.5 -88.5t-87 -34q-62 0 -95 29.5t-45 70.5t-12 76q0 63 14 147q-26 -70 -62 -136q-45 -85 -102 -139q-49 -48 -103 -48q-39 0 -66 13
t-44 33q-25 31 -34 67.5t-9 62.5q0 36 8.5 105t26.5 153q23 109 62 212q34 89 82 149q26 33 56.5 52t65.5 19q65 0 124 -31.5t103 -81.5q1 4 4 13.5t7 20.5q16 45 62 62t103 17q33 0 59 -8t40 -24q-17 -47 -38 -113q-27 -83 -54 -178q-28 -99 -45 -190q-15 -79 -15 -135z
M470 675q-47 68 -88 68q-34 0 -63 -59q-36 -71 -61 -177q-19 -73 -31 -142q-21 -130 -21 -162q0 -18 4 -34.5t19 -16.5q19 0 45 39.5t54 101.5q40 90 76 188q49 137 66 194zM339 922q-52 9 -82 51q-24 35 -24 79q0 10 1 20q10 55 49 88q34 28 78 28q68 -3 97 -52
q24 -35 24 -79q0 -10 -1 -20q-9 -56 -49 -89q-34 -27 -76 -27q-8 0 -17 1zM641 922q-52 9 -82 51q-24 35 -24 79q0 9 1 20q9 55 49 88q34 27 78 27q68 -3 97 -51q24 -35 24 -79q0 -10 -1 -20q-9 -56 -49 -89q-34 -27 -76 -27q-8 0 -17 1z" />
    <glyph glyph-name="aring" unicode="&#xe5;" horiz-adv-x="820" 
d="M611 198q0 -16 4 -31t20 -15q18 0 43.5 28t54.5 72q50 80 94 170.5t63 138.5q0 -25 -35 -125.5t-94 -213.5q-34 -65 -73.5 -119.5t-82.5 -88.5t-87 -34q-62 0 -95 29.5t-45 70.5t-12 76q0 63 14 147q-26 -70 -62 -136q-45 -85 -102 -139q-49 -48 -103 -48q-39 0 -66 13
t-44 33q-25 31 -34 67.5t-9 62.5q0 36 8.5 105t26.5 153q23 109 62 212q34 89 82 149q26 33 56.5 52t65.5 19q65 0 124 -31.5t103 -81.5q1 4 4 13.5t7 20.5q16 45 62 62t103 17q33 0 59 -8t40 -24q-17 -47 -38 -113q-27 -83 -54 -178q-28 -99 -45 -190q-15 -79 -15 -135z
M470 675q-47 68 -88 68q-34 0 -63 -59q-36 -71 -61 -177q-19 -73 -31 -142q-21 -130 -21 -162q0 -18 4 -34.5t19 -16.5q19 0 45 39.5t54 101.5q40 90 76 188q49 137 66 194zM533 1251q88 0 131 -41.5t48 -102.5v-20q0 -51 -21 -101q-26 -61 -77.5 -101.5t-122.5 -42.5
q-76 2 -115 42.5t-45 101.5q-2 12 -2 25q0 47 19 96q23 61 70 102.5t115 41.5zM505 910q46 0 71.5 43.5t28.5 99.5v21q0 43 -13 79q-18 43 -56 43q-46 0 -72 -43.5t-30 -99.5q-2 -13 -2 -25q0 -41 14 -74q18 -44 59 -44z" />
    <glyph glyph-name="ae" unicode="&#xe6;" horiz-adv-x="993" 
d="M808 713v4q0 41 -18 41q-20 0 -38.5 -18.5t-35.5 -50.5q-27 -51 -49 -121q-17 -55 -30 -110q20 -16 38 -16q35 0 65 44q30 42 46 97q22 84 22 130zM363 260q-20 -47 -45 -93q-45 -85 -102 -139q-49 -48 -103 -48q-39 0 -66 13t-44 33q-25 31 -34 67.5t-9 62.5
q0 36 8.5 105t26.5 153q23 109 62 212q34 89 82 149q26 33 56.5 52t65.5 19q65 0 124 -31.5t116 -82.5q72 114 218 114q75 0 141 -37q39 -24 63.5 -63t24.5 -93q0 -64 -34 -128q-29 -55 -76 -93q-58 -48 -130 -48q-45 0 -79 36q-21 -105 -21 -145q0 -60 14 -94
q24 -51 67 -51q64 0 120 40q54 37 100 96q40 52 73 112q52 96 81 183q0 -59 -58 -201q-30 -69 -73 -138q-59 -96 -139 -164q-86 -74 -190 -78h-5q-98 0 -170 73q-30 33 -47.5 83.5t-17.5 120.5v3zM387 437q5 22 11 46q27 102 72 193q-47 67 -88 67q-34 0 -63 -59
q-36 -71 -61 -177q-19 -73 -31 -142q-21 -130 -21 -162q0 -18 4 -34.5t19 -16.5q19 0 45 39.5t54 101.5q31 70 59 144z" />
    <glyph glyph-name="ccedilla" unicode="&#xe7;" 
d="M126 -10q-56 17 -101 63q-30 33 -49 88q-16 49 -16 116q0 75 32 211q29 119 83 224q42 80 113 122q54 32 128 32q87 0 156 -48q73 -52 73 -145q0 -50 -25 -113q-17 -15 -65 -18q-52 0 -89 15q19 51 30 101q9 42 9 73v11q-1 34 -18 36q-44 -4 -81 -83q-43 -92 -70 -209
q-31 -143 -31 -191q0 -65 17 -99q23 -46 64 -46q42 0 82 19.5t77 53.5q80 74 137 176t78 182q0 -55 -30 -132t-86 -175q-61 -109 -148 -189q-81 -75 -187 -84l-77 -100q54 0 91.5 -13t61.5 -33q30 -27 42.5 -59.5t12.5 -60.5q0 -47 -23.5 -87t-62.5 -69q-87 -61 -192 -61
q-51 0 -100.5 15t-88.5 49q87 0 157 16q56 13 88 43q34 29 34 81q0 49 -27 76q-19 20 -44 29t-50 9q-3 4 -3 11q0 4 1 9q1 14 7 28z" />
    <glyph glyph-name="egrave" unicode="&#xe8;" 
d="M545 653q0 -64 -34 -128q-29 -55 -76 -93q-58 -48 -130 -48q-45 0 -79 36q-21 -105 -21 -145q0 -60 14 -94q24 -51 67 -51q64 0 120 40q54 37 100 96q40 52 73 112q52 96 81 183q0 -59 -58 -201q-30 -69 -73 -138q-59 -96 -139 -164q-86 -74 -190 -78h-5q-98 0 -170 73
q-30 33 -47.5 83.5t-17.5 120.5q0 80 35 226q29 111 80 209q29 54 72 92q66 62 169 62q75 0 141 -37q39 -24 63.5 -63t24.5 -93zM405 713v4q0 41 -18 41q-20 0 -38.5 -18.5t-35.5 -50.5q-27 -51 -49 -121q-17 -55 -30 -110q20 -16 38 -16q35 0 65 44q30 42 46 97
q22 84 22 130zM203 1243q54 0 100 -44t80.5 -104t54.5 -112.5t24 -73.5q-145 35 -237.5 117t-92.5 152q0 25 19.5 45t51.5 20z" />
    <glyph glyph-name="eacute" unicode="&#xe9;" 
d="M545 653q0 -64 -34 -128q-29 -55 -76 -93q-58 -48 -130 -48q-45 0 -79 36q-21 -105 -21 -145q0 -60 14 -94q24 -51 67 -51q64 0 120 40q54 37 100 96q40 52 73 112q52 96 81 183q0 -59 -58 -201q-30 -69 -73 -138q-59 -96 -139 -164q-86 -74 -190 -78h-5q-98 0 -170 73
q-30 33 -47.5 83.5t-17.5 120.5q0 80 35 226q29 111 80 209q29 54 72 92q66 62 169 62q75 0 141 -37q39 -24 63.5 -63t24.5 -93zM405 713v4q0 41 -18 41q-20 0 -38.5 -18.5t-35.5 -50.5q-27 -51 -49 -121q-17 -55 -30 -110q20 -16 38 -16q35 0 65 44q30 42 46 97
q22 84 22 130zM681 1243q32 0 51.5 -20t19.5 -45q0 -70 -92.5 -152.5t-237.5 -117.5q4 21 24 74t54.5 113t80.5 104t100 44z" />
    <glyph glyph-name="ecircumflex" unicode="&#xea;" 
d="M545 653q0 -64 -34 -128q-29 -55 -76 -93q-58 -48 -130 -48q-45 0 -79 36q-21 -105 -21 -145q0 -60 14 -94q24 -51 67 -51q64 0 120 40q54 37 100 96q40 52 73 112q52 96 81 183q0 -59 -58 -201q-30 -69 -73 -138q-59 -96 -139 -164q-86 -74 -190 -78h-5q-98 0 -170 73
q-30 33 -47.5 83.5t-17.5 120.5q0 80 35 226q29 111 80 209q29 54 72 92q66 62 169 62q75 0 141 -37q39 -24 63.5 -63t24.5 -93zM405 713v4q0 41 -18 41q-20 0 -38.5 -18.5t-35.5 -50.5q-27 -51 -49 -121q-17 -55 -30 -110q20 -16 38 -16q35 0 65 44q30 42 46 97
q22 84 22 130zM578 1221v-6q0 -19 16 -48t37 -61q25 -38 45 -75t20 -65q-1 -68 -76 -74q-44 4 -63.5 55.5t-24 116.5t-4.5 99q-13 -1 -30.5 -27.5t-38.5 -66.5q-22 -41 -47.5 -82t-55 -70t-63.5 -29q-27 1 -47 20.5t-20 48.5q0 45 41 91.5t99 86t114 64t86 24.5q7 0 12 -2z
" />
    <glyph glyph-name="edieresis" unicode="&#xeb;" 
d="M545 653q0 -64 -34 -128q-29 -55 -76 -93q-58 -48 -130 -48q-45 0 -79 36q-21 -105 -21 -145q0 -60 14 -94q24 -51 67 -51q64 0 120 40q54 37 100 96q40 52 73 112q52 96 81 183q0 -59 -58 -201q-30 -69 -73 -138q-59 -96 -139 -164q-86 -74 -190 -78h-5q-98 0 -170 73
q-30 33 -47.5 83.5t-17.5 120.5q0 80 35 226q29 111 80 209q29 54 72 92q66 62 169 62q75 0 141 -37q39 -24 63.5 -63t24.5 -93zM405 713v4q0 41 -18 41q-20 0 -38.5 -18.5t-35.5 -50.5q-27 -51 -49 -121q-17 -55 -30 -110q20 -16 38 -16q35 0 65 44q30 42 46 97
q22 84 22 130zM278 922q-51 9 -81 51q-24 35 -24 79q0 9 1 20q9 55 49 88q34 27 77 27q68 -2 97 -51q24 -35 24 -79q0 -10 -1 -20q-9 -56 -49 -89q-33 -27 -75 -27q-9 0 -18 1zM580 922q-52 8 -81 51q-25 34 -25 79q0 9 2 19q9 56 49 88q34 28 77 28q68 -3 97 -52
q24 -35 24 -78q0 -10 -1 -20q-9 -56 -49 -89q-33 -27 -75 -27q-9 0 -18 1z" />
    <glyph glyph-name="igrave" unicode="&#xec;" horiz-adv-x="414" 
d="M205 198q0 -16 4 -31t20 -15q34 0 86.5 75t99.5 169.5t69 164.5q0 -21 -18.5 -86t-51.5 -148t-79.5 -162t-102.5 -132t-119 -53t-96 29.5t-45 70.5t-12 76q0 87 26 211t60 244t62 203q77 32 150 32q33 0 59.5 -8t39.5 -24q-27 -75 -62 -189t-62.5 -231.5t-27.5 -195.5z
M73 1243q54 0 100 -44t80.5 -104t54.5 -113t24 -74q-145 36 -237.5 118t-92.5 152q0 25 19.5 45t51.5 20z" />
    <glyph glyph-name="iacute" unicode="&#xed;" horiz-adv-x="414" 
d="M205 198q0 -16 4 -31t20 -15q34 0 86.5 75t99.5 169.5t69 164.5q0 -21 -18.5 -86t-51.5 -148t-79.5 -162t-102.5 -132t-119 -53t-96 29.5t-45 70.5t-12 76q0 87 26 211t60 244t62 203q77 32 150 32q33 0 59.5 -8t39.5 -24q-27 -75 -62 -189t-62.5 -231.5t-27.5 -195.5z
M484 1243q32 0 51.5 -20t19.5 -45q0 -70 -92.5 -152t-237.5 -118q4 22 24 74.5t54.5 112.5t80.5 104t100 44z" />
    <glyph glyph-name="icircumflex" unicode="&#xee;" horiz-adv-x="414" 
d="M205 198q0 -16 4 -31t20 -15q34 0 86.5 75t99.5 169.5t69 164.5q0 -21 -18.5 -86t-51.5 -148t-79.5 -162t-102.5 -132t-119 -53t-96 29.5t-45 70.5t-12 76q0 87 26 211t60 244t62 203q77 32 150 32q33 0 59.5 -8t39.5 -24q-27 -75 -62 -189t-62.5 -231.5t-27.5 -195.5z
M377 1221l-1 -7q0 -19 16 -47.5t38 -61.5q24 -37 44.5 -74t20.5 -66q-1 -68 -77 -73q-43 3 -62.5 55t-24 117t-4.5 99q-14 -1 -31 -28t-38 -66q-22 -41 -47.5 -82.5t-55 -70t-63.5 -28.5q-27 0 -47 19.5t-20 48.5q0 45 41 92t98.5 86.5t114 64t86.5 24.5q7 0 12 -2z" />
    <glyph glyph-name="idieresis" unicode="&#xef;" horiz-adv-x="414" 
d="M205 198q0 -16 4 -31t20 -15q34 0 86.5 75t99.5 169.5t69 164.5q0 -21 -18.5 -86t-51.5 -148t-79.5 -162t-102.5 -132t-119 -53t-96 29.5t-45 70.5t-12 76q0 87 26 211t60 244t62 203q77 32 150 32q33 0 59.5 -8t39.5 -24q-27 -75 -62 -189t-62.5 -231.5t-27.5 -195.5z
M115 922q-52 9 -81 51q-25 35 -25 79q0 10 1 20q10 55 50 88q34 28 77 28q68 -3 97 -52q24 -35 24 -79q0 -10 -1 -20q-9 -56 -49 -89q-33 -27 -76 -27q-8 0 -17 1zM417 922q-52 9 -81 51q-25 35 -25 79q0 9 1 20q10 55 50 88q34 27 77 27q68 -3 97 -51q24 -35 24 -79
q0 -10 -1 -20q-9 -56 -49 -89q-33 -27 -76 -27q-8 0 -17 1z" />
    <glyph glyph-name="eth" unicode="&#xf0;" horiz-adv-x="818" 
d="M471 673q-48 70 -89 70q-25 0 -47.5 -33t-41.5 -85q-38 -108 -60 -232q-13 -68 -20 -120t-7 -70q0 -17 4 -34q3 -17 19 -17q19 0 47 44t58 111q45 97 82 200q41 113 55 166zM607 1160q36 120 57 182q77 32 150 32q33 0 59.5 -8t39.5 -25q-19 -53 -57 -176q-1 -3 -2 -5
h118q-23 -120 -93 -120h-61l-46 -156q-72 -251 -121 -467q-33 -149 -33 -219q0 -13 3 -26q3 -20 21 -20q29 0 74 65q56 80 108 184.5t73 159.5q0 -27 -40 -139.5t-106 -231.5q-54 -98 -119 -159q-52 -51 -106 -51q-36 0 -61.5 10.5t-43.5 27.5q-27 29 -37.5 67t-10.5 71
q0 70 22 180q-19 -50 -50 -116q-33 -71 -75 -130q-35 -50 -75 -80t-82 -30q-38 0 -64 11.5t-43 30.5q-27 31 -36.5 69t-9.5 65q0 39 10 115t30 166q33 150 96 272q32 62 73.5 99.5t91.5 37.5q65 0 123.5 -31.5t102.5 -81.5l50 185l35 122h-139q21 113 63 120h111z" />
    <glyph glyph-name="ntilde" unicode="&#xf1;" horiz-adv-x="868" 
d="M524 646q-49 -39 -106 -155l-45 -94q-32 -75 -62 -157q-50 -135 -75 -230q-67 -30 -120 -30q-73 0 -117 48q-39 45 -39 128q0 98 37 280.5t103 348.5q34 59 155 61q62 0 104 -29q-59 -100 -116 -295t-61 -307q2 -63 21 -63q16 55 45 141t77 196q40 88 90 167
q53 85 116 139.5t134 54.5q43 0 77 -23.5t34 -78.5q0 -39 -40 -167q-78 -260 -78 -383q2 -46 25 -46q25 0 62.5 50t76.5 120t70.5 136t45.5 103q0 -19 -21 -84t-57 -148.5t-83 -162.5t-101 -132.5t-110 -53.5q-73 0 -113 50q-39 48 -39 126q0 169 110 490zM703 1147
q-9 -115 -43.5 -169.5t-102.5 -54.5q-30 0 -56 8t-52 18q-26 11 -54 20t-63 9q-39 0 -75 -21.5t-61 -71.5q10 89 34.5 140.5t58.5 73t73 21.5q33 0 62.5 -7.5t58.5 -17.5q28 -9 56 -16t57 -7q32 0 60 17t47 58z" />
    <glyph glyph-name="ograve" unicode="&#xf2;" horiz-adv-x="662" 
d="M200 -20q-84 0 -137 41.5t-78 105.5t-25 130q0 92 25.5 187.5t61.5 182.5q25 38 87 52q21 93 81.5 139t148.5 46q100 0 154 -81.5t54 -233.5q0 -59 -9 -122q59 10 102.5 43t66.5 91q0 -68 -48 -108t-125 -55q-19 -106 -67 -200q-48 -96 -122 -157t-170 -61zM239 685
q41 -6 67 -26q-35 -55 -58 -118q62 -93 194 -113q9 69 9 129q0 71 -25 128t-88 57q-29 0 -52.5 -11.5t-46.5 -45.5zM227 470q-22 -87 -22 -170q0 -24 4.5 -63.5t21 -71t51.5 -31.5q37 0 68 38t54 98q22 59 34 126q-121 14 -211 74zM197 1243q54 0 100 -44t80.5 -104
t54.5 -113t24 -74q-145 36 -237.5 118t-92.5 152q0 25 19.5 45t51.5 20z" />
    <glyph glyph-name="oacute" unicode="&#xf3;" horiz-adv-x="662" 
d="M200 -20q-84 0 -137 41.5t-78 105.5t-25 130q0 92 25.5 187.5t61.5 182.5q25 38 87 52q21 93 81.5 139t148.5 46q100 0 154 -81.5t54 -233.5q0 -59 -9 -122q59 10 102.5 43t66.5 91q0 -68 -48 -108t-125 -55q-19 -106 -67 -200q-48 -96 -122 -157t-170 -61zM239 685
q41 -6 67 -26q-35 -55 -58 -118q62 -93 194 -113q9 69 9 129q0 71 -25 128t-88 57q-29 0 -52.5 -11.5t-46.5 -45.5zM227 470q-22 -87 -22 -170q0 -24 4.5 -63.5t21 -71t51.5 -31.5q37 0 68 38t54 98q22 59 34 126q-121 14 -211 74zM591 1243q32 0 51.5 -20t19.5 -45
q0 -70 -92.5 -152t-237.5 -118q4 22 24 74.5t54.5 112.5t80.5 104t100 44z" />
    <glyph glyph-name="ocircumflex" unicode="&#xf4;" horiz-adv-x="662" 
d="M200 -20q-84 0 -137 41.5t-78 105.5t-25 130q0 92 25.5 187.5t61.5 182.5q25 38 87 52q21 93 81.5 139t148.5 46q100 0 154 -81.5t54 -233.5q0 -59 -9 -122q59 10 102.5 43t66.5 91q0 -68 -48 -108t-125 -55q-19 -106 -67 -200q-48 -96 -122 -157t-170 -61zM239 685
q41 -6 67 -26q-35 -55 -58 -118q62 -93 194 -113q9 69 9 129q0 71 -25 128t-88 57q-29 0 -52.5 -11.5t-46.5 -45.5zM227 470q-22 -87 -22 -170q0 -24 4.5 -63.5t21 -71t51.5 -31.5q37 0 68 38t54 98q22 59 34 126q-121 14 -211 74zM492 1221v-7q0 -19 15.5 -47.5t37.5 -61.5
q25 -37 45 -74t20 -66q-1 -68 -76 -73q-44 3 -63.5 55t-24 117t-4.5 99q-14 -1 -31 -27.5t-38 -66.5q-22 -41 -47.5 -82.5t-55 -70t-63.5 -28.5q-27 1 -47 20.5t-20 47.5q0 45 41 92t99 86.5t114 64t86 24.5q7 0 12 -2z" />
    <glyph glyph-name="otilde" unicode="&#xf5;" horiz-adv-x="662" 
d="M200 -20q-84 0 -137 41.5t-78 105.5t-25 130q0 92 25.5 187.5t61.5 182.5q25 38 87 52q21 93 81.5 139t148.5 46q100 0 154 -81.5t54 -233.5q0 -59 -9 -122q59 10 102.5 43t66.5 91q0 -68 -48 -108t-125 -55q-19 -106 -67 -200q-48 -96 -122 -157t-170 -61zM239 685
q41 -6 67 -26q-35 -55 -58 -118q62 -93 194 -113q9 69 9 129q0 71 -25 128t-88 57q-29 0 -52.5 -11.5t-46.5 -45.5zM227 470q-22 -87 -22 -170q0 -24 4.5 -63.5t21 -71t51.5 -31.5q37 0 68 38t54 98q22 59 34 126q-121 14 -211 74zM638 1147q-8 -115 -43 -170t-102 -55
q-31 0 -57 8.5t-51 18.5q-27 11 -55 19.5t-63 8.5q-38 0 -74.5 -21t-61.5 -71q10 89 34.5 140.5t58.5 73t73 21.5q33 0 62.5 -8t58.5 -17q28 -9 56 -16t57 -7q32 0 60 16.5t47 58.5z" />
    <glyph glyph-name="odieresis" unicode="&#xf6;" horiz-adv-x="662" 
d="M200 -20q-84 0 -137 41.5t-78 105.5t-25 130q0 92 25.5 187.5t61.5 182.5q25 38 87 52q21 93 81.5 139t148.5 46q100 0 154 -81.5t54 -233.5q0 -59 -9 -122q59 10 102.5 43t66.5 91q0 -68 -48 -108t-125 -55q-19 -106 -67 -200q-48 -96 -122 -157t-170 -61zM239 685
q41 -6 67 -26q-35 -55 -58 -118q62 -93 194 -113q9 69 9 129q0 71 -25 128t-88 57q-29 0 -52.5 -11.5t-46.5 -45.5zM227 470q-22 -87 -22 -170q0 -24 4.5 -63.5t21 -71t51.5 -31.5q37 0 68 38t54 98q22 59 34 126q-121 14 -211 74zM210 922q-52 8 -82 51q-24 34 -24 79
q0 9 1 19q9 56 49 88q34 28 77 28q68 -2 97 -52q25 -35 25 -78q0 -10 -2 -20q-9 -56 -49 -89q-33 -27 -75 -27q-9 0 -17 1zM511 922q-51 8 -81 51q-24 34 -24 78q0 10 1 20q9 56 49 88q34 28 77 28q68 -3 97 -52q25 -35 25 -79q0 -9 -2 -19q-9 -57 -49 -89q-33 -27 -75 -27
q-9 0 -18 1z" />
    <glyph glyph-name="divide" unicode="&#xf7;" horiz-adv-x="1111" 
d="M1005 493l-906 -2q-9 13 -9 32q0 12 4 28q11 44 39 80l906 2q8 -12 8 -31q0 -13 -4 -29q-11 -44 -38 -80zM486 159q-56 10 -88 55q-27 37 -27 84q0 11 2 22q10 61 53 96q36 29 81 29q9 0 19 -1q57 -9 89 -55q26 -37 26 -85q0 -11 -1 -21q-10 -60 -54 -95q-37 -30 -84 -30
q-8 0 -16 1zM616 683q-56 10 -88 55q-26 37 -26 84q0 11 1 22q10 61 53 95q37 30 84 30q8 0 16 -1q56 -10 88 -55q27 -37 27 -85q0 -10 -2 -21q-10 -61 -53 -95q-36 -30 -83 -30q-8 0 -17 1z" />
    <glyph glyph-name="oslash" unicode="&#xf8;" horiz-adv-x="662" 
d="M397 724q-23 18 -59 18q-29 0 -52.5 -11.5t-46.5 -45.5q41 -6 67 -26q-35 -55 -58 -118q24 -36 58 -61zM262 137q9 -3 20 -3q37 0 68 38t54 98q22 59 34 126q-33 4 -64 11q-2 -3 -3 -7q-24 -69 -109 -263zM288 436q-32 15 -61 34q-22 -87 -22 -170q0 -23 4 -62zM386 441
q26 -8 56 -13q9 69 9 129q0 28 -4 54zM200 -20q-84 0 -137 41.5t-78 105.5t-25 130q0 92 25.5 187.5t61.5 182.5q25 38 87 52q21 93 81.5 139t148.5 46q100 0 154 -81.5t54 -233.5q0 -59 -9 -122q59 10 102.5 43t66.5 91q0 -68 -48 -108t-125 -55q-19 -106 -67 -200
q-48 -96 -122 -157t-170 -61z" />
    <glyph glyph-name="ugrave" unicode="&#xf9;" horiz-adv-x="824" 
d="M615 198q0 -16 4.5 -31t20.5 -15q25 0 62.5 50t76.5 120t70 136t45 103q0 -19 -20.5 -84t-56.5 -148.5t-83 -162.5t-101 -132.5t-110 -53.5q-62 0 -95 29.5t-45.5 70.5t-12.5 76q0 60 14 139q-37 -80 -81 -151.5t-92.5 -117.5t-98.5 -46q-69 0 -110.5 44.5t-41.5 131.5
q0 73 25.5 207t58.5 261.5t60 192.5q30 43 105 43h10q83 -2 138 -38l-30 -101q-34 -108 -67.5 -233t-51.5 -256v-26q1 -54 21 -54q19 0 63 78q42 75 79 165q40 97 76 202l56 169l16 48q76 32 150 32q32 0 58.5 -8t40.5 -24q-27 -75 -62.5 -189t-63 -231.5t-27.5 -195.5z
M278 1243q54 0 100 -44t80.5 -104t54.5 -113t24 -74q-145 36 -237.5 118t-92.5 152q0 25 19.5 45t51.5 20z" />
    <glyph glyph-name="uacute" unicode="&#xfa;" horiz-adv-x="824" 
d="M615 198q0 -16 4.5 -31t20.5 -15q25 0 62.5 50t76.5 120t70 136t45 103q0 -19 -20.5 -84t-56.5 -148.5t-83 -162.5t-101 -132.5t-110 -53.5q-62 0 -95 29.5t-45.5 70.5t-12.5 76q0 60 14 139q-37 -80 -81 -151.5t-92.5 -117.5t-98.5 -46q-69 0 -110.5 44.5t-41.5 131.5
q0 73 25.5 207t58.5 261.5t60 192.5q30 43 105 43h10q83 -2 138 -38l-30 -101q-34 -108 -67.5 -233t-51.5 -256v-26q1 -54 21 -54q19 0 63 78q42 75 79 165q40 97 76 202l56 169l16 48q76 32 150 32q32 0 58.5 -8t40.5 -24q-27 -75 -62.5 -189t-63 -231.5t-27.5 -195.5z
M706 1243q32 0 51.5 -20t19.5 -45q0 -70 -92.5 -152t-237.5 -118q4 21 24 74t54.5 113t80.5 104t100 44z" />
    <glyph glyph-name="ucircumflex" unicode="&#xfb;" horiz-adv-x="824" 
d="M615 198q0 -16 4.5 -31t20.5 -15q25 0 62.5 50t76.5 120t70 136t45 103q0 -19 -20.5 -84t-56.5 -148.5t-83 -162.5t-101 -132.5t-110 -53.5q-62 0 -95 29.5t-45.5 70.5t-12.5 76q0 60 14 139q-37 -80 -81 -151.5t-92.5 -117.5t-98.5 -46q-69 0 -110.5 44.5t-41.5 131.5
q0 73 25.5 207t58.5 261.5t60 192.5q30 43 105 43h10q83 -2 138 -38l-30 -101q-34 -108 -67.5 -233t-51.5 -256v-26q1 -54 21 -54q19 0 63 78q42 75 79 165q40 97 76 202l56 169l16 48q76 32 150 32q32 0 58.5 -8t40.5 -24q-27 -75 -62.5 -189t-63 -231.5t-27.5 -195.5z
M620 1221l-1 -7q0 -19 16 -47.5t38 -61.5q24 -37 44.5 -74t20.5 -65q-1 -68 -77 -74q-43 3 -62.5 55t-24 117t-4.5 99q-14 -1 -31 -27.5t-38 -66.5q-22 -41 -47.5 -82.5t-55 -70t-63.5 -28.5q-27 1 -47 20.5t-20 48.5q0 44 41 91t98.5 86.5t114 64t86.5 24.5q7 0 12 -2z" />
    <glyph glyph-name="udieresis" unicode="&#xfc;" horiz-adv-x="824" 
d="M615 198q0 -16 4.5 -31t20.5 -15q25 0 62.5 50t76.5 120t70 136t45 103q0 -19 -20.5 -84t-56.5 -148.5t-83 -162.5t-101 -132.5t-110 -53.5q-62 0 -95 29.5t-45.5 70.5t-12.5 76q0 60 14 139q-37 -80 -81 -151.5t-92.5 -117.5t-98.5 -46q-69 0 -110.5 44.5t-41.5 131.5
q0 73 25.5 207t58.5 261.5t60 192.5q30 43 105 43h10q83 -2 138 -38l-30 -101q-34 -108 -67.5 -233t-51.5 -256v-26q1 -54 21 -54q19 0 63 78q42 75 79 165q40 97 76 202l56 169l16 48q76 32 150 32q32 0 58.5 -8t40.5 -24q-27 -75 -62.5 -189t-63 -231.5t-27.5 -195.5z
M308 923q-52 8 -82 51q-24 34 -24 78q0 10 1 20q9 56 49 88q34 28 78 28q68 -2 96 -52q25 -35 25 -79q0 -9 -2 -19q-9 -57 -49 -89q-33 -27 -75 -27q-9 0 -17 1zM610 923q-52 8 -82 51q-24 34 -24 78q0 10 1 20q9 55 49 88q34 28 77 28q68 -4 97 -52q25 -35 25 -79
q0 -10 -2 -20q-9 -56 -49 -89q-33 -27 -75 -27q-9 0 -17 2z" />
    <glyph glyph-name="yacute" unicode="&#xfd;" horiz-adv-x="790" 
d="M312 -61l22 91q-72 -38 -143 -89.5t-127 -116.5q-46 -53 -74 -114t-28 -130q0 -42 17 -68t55 -26q55 0 101 52t81 127q37 77 61 152t35 122zM368 196l22 134q6 38 13 76q-26 -57 -55 -114q-52 -100 -112 -169t-123 -72q-65 1 -98 30.5t-44 71t-11 74.5q0 110 42 299
t82 291q31 43 115 43q83 -2 139 -38l-30 -100q-29 -90 -55.5 -191.5t-43.5 -227.5v-26q0 -19 5 -36.5t16 -17.5q22 0 63.5 77.5t84.5 177.5q40 95 83 232q11 44 22 71q27 57 155 61q62 0 104 -28q-48 -145 -92 -391l-31 -156l-12 -58l176 77l97 43q-5 -39 -284 -172
q-31 -138 -70 -269q-26 -87 -61.5 -174t-86.5 -161q-56 -82 -137 -133.5t-196 -51.5q-82 0 -136 57t-54 152q0 156 163 307q120 110 331 213zM646 1244q32 0 51.5 -20t19.5 -45q0 -70 -92.5 -152.5t-237.5 -117.5q4 21 24 74t54.5 112.5t80.5 104t100 44.5z" />
    <glyph glyph-name="thorn" unicode="&#xfe;" horiz-adv-x="793" 
d="M245 1361q33 14 84 16h7q48 0 84 -13q35 -13 35 -44q0 -4 -1 -8q-151 -608 -172 -702q55 117 127 178.5t169 61.5q55 0 85.5 -42.5t38.5 -112.5q4 -31 4 -66q0 -43 -6 -90q99 26 180 30q20 0 23 -8q-147 -30 -208 -54q-5 -31 -13 -63l-7 -28q-31 -113 -86 -213.5
t-131 -165.5t-168 -65q-55 0 -85.5 21t-30.5 66q0 29 9 57t23 54q81 149 206 240q21 70 32 128.5t11 86.5q0 27 -8.5 43.5t-30.5 16.5q-43 0 -87.5 -77.5t-86 -201t-77.5 -266.5t-63 -278.5t-42.5 -238t-15.5 -138.5q-34 -49 -120 -59q-19 -2 -36 -2q-62 0 -103 28
q56 267 167 716zM225 90v-3q0 -9 7 -9q25 0 53.5 40t56 102.5t51.5 133.5q-26 -24 -65 -72.5t-71 -102t-32 -89.5z" />
    <glyph glyph-name="ydieresis" unicode="&#xff;" horiz-adv-x="790" 
d="M312 -61l22 91q-72 -38 -143 -89.5t-127 -116.5q-46 -53 -74 -114t-28 -130q0 -42 17 -68t55 -26q55 0 101 52t81 127q37 77 61 152t35 122zM368 196l22 134q6 38 13 76q-26 -57 -55 -114q-52 -100 -112 -169t-123 -72q-65 1 -98 30.5t-44 71t-11 74.5q0 110 42 299
t82 291q31 43 115 43q83 -2 139 -38l-30 -100q-29 -90 -55.5 -191.5t-43.5 -227.5v-26q0 -19 5 -36.5t16 -17.5q22 0 63.5 77.5t84.5 177.5q40 95 83 232q11 44 22 71q27 57 155 61q62 0 104 -28q-48 -145 -92 -391l-31 -156l-12 -58l176 77l97 43q-5 -39 -284 -172
q-31 -138 -70 -269q-26 -87 -61.5 -174t-86.5 -161q-56 -82 -137 -133.5t-196 -51.5q-82 0 -136 57t-54 152q0 156 163 307q120 110 331 213zM291 922q-52 9 -82 51q-24 34 -24 79q0 9 1 19q9 56 49 88q34 28 78 28q68 -2 96 -52q25 -35 25 -78q0 -10 -1 -20
q-10 -56 -50 -89q-33 -27 -75 -27q-8 0 -17 1zM593 922q-52 8 -82 51q-24 34 -24 78q0 10 1 20q9 56 49 88q34 28 78 28q68 -3 96 -52q25 -35 25 -79q0 -9 -1 -19q-10 -57 -50 -89q-33 -27 -75 -27q-9 0 -17 1z" />
    <glyph glyph-name="dotlessi" unicode="&#x131;" horiz-adv-x="414" 
d="M205 198q0 -16 4 -31t20 -15q34 0 86.5 75t99.5 169.5t69 164.5q0 -21 -18.5 -86t-51.5 -148t-79.5 -162t-102.5 -132t-119 -53t-96 29.5t-45 70.5t-12 76q0 87 26 211t60 244t62 203q77 32 150 32q33 0 59.5 -8t39.5 -24q-27 -75 -62 -189t-62.5 -231.5t-27.5 -195.5z
" />
    <glyph glyph-name="circumflex" unicode="&#x2c6;" horiz-adv-x="530" 
d="M382 1221v-7q0 -19 16 -47.5t37 -61.5q25 -37 45 -74t20 -65q-1 -68 -76 -74q-44 3 -63.5 55t-24 117t-4.5 99q-14 -1 -31 -27.5t-38 -66.5q-22 -41 -47.5 -82.5t-55 -70t-63.5 -28.5q-27 1 -47 20.5t-20 48.5q0 44 41 91t99 86.5t114 64t86 24.5q7 0 12 -2z" />
    <glyph glyph-name="caron" unicode="&#x2c7;" horiz-adv-x="530" 
d="M148 890v7q0 19 -16 47.5t-37 61.5q-25 37 -45 74t-20 65q1 68 76 74q44 -3 63.5 -55t24 -117t4.5 -99q14 1 31 27.5t38 66.5q22 41 47.5 82.5t55 70t63.5 28.5q27 -1 47 -20.5t20 -48.5q0 -44 -41 -91t-99 -86.5t-114 -64t-86 -24.5q-7 0 -12 2z" />
    <glyph glyph-name="uni02C9" unicode="&#x2c9;" horiz-adv-x="564" 
d="M534 1068q-1 -98 -64 -139h-440q2 86 72 139h432z" />
    <glyph glyph-name="breve" unicode="&#x2d8;" horiz-adv-x="478" 
d="M141 1227q-10 -43 -10 -88q0 -64 19.5 -107.5t66.5 -43.5q59 2 88 68t29 175h4q38 0 72 -17q36 -18 38 -71q0 -68 -25 -115t-63.5 -75t-80 -41t-75.5 -13h-3q-57 0 -111 42q-56 44 -60 148q0 56 26.5 97t84.5 41z" />
    <glyph glyph-name="dotaccent" unicode="&#x2d9;" horiz-adv-x="309" 
d="M136 923q-52 8 -82 50q-24 35 -24 79q0 10 1 20q9 55 49 88q34 28 78 28q7 0 15 -1q53 -10 82 -51q24 -35 24 -79q0 -10 -1 -20q-10 -56 -49 -89q-34 -27 -76 -27q-8 0 -17 2z" />
    <glyph glyph-name="ring" unicode="&#x2da;" horiz-adv-x="443" 
d="M233 1251q88 0 131 -41.5t48 -102.5q1 -10 1 -20q0 -51 -22 -101q-26 -61 -77.5 -101.5t-122.5 -42.5q-76 2 -115 42.5t-45 101.5q-1 12 -1 25q0 48 18 96q23 61 70 102.5t115 41.5zM205 910q46 0 71.5 43.5t28.5 99.5q1 11 1 21q0 43 -14 79q-18 43 -56 43
q-46 0 -72 -43.5t-30 -99.5q-1 -13 -1 -25q0 -41 13 -74q18 -44 59 -44z" />
    <glyph glyph-name="ogonek" unicode="&#x2db;" horiz-adv-x="454" 
d="M423 -307q-27 -94 -94 -144.5t-137 -50.5q-40 0 -77 17t-61 52.5t-24 90.5q0 73 42 140t102 120.5t121.5 85t100.5 31.5q11 0 17 -2.5t11 -8.5q-80 -60 -148.5 -153.5t-73.5 -205.5q0 -39 15 -62t48 -23q38 0 70.5 20.5t55.5 46.5t32 46z" />
    <glyph glyph-name="tilde" unicode="&#x2dc;" horiz-adv-x="567" 
d="M537 1147q-8 -115 -43 -169.5t-102 -54.5q-31 0 -57 8t-51 18q-26 11 -54.5 20t-63.5 9q-38 0 -74 -21.5t-62 -71.5q11 89 35 140.5t58.5 73t73.5 21.5q32 0 62 -7.5t58 -17.5q28 -9 56 -16t58 -7q31 0 59 17t47 58z" />
    <glyph glyph-name="hungarumlaut" unicode="&#x2dd;" horiz-adv-x="1024" 
d="M124 1243q32 0 51.5 -20t19.5 -45q0 -70 -92.5 -152t-237.5 -118q3 21 23.5 74t55 113t80 104t100.5 44zM453 1243q32 0 51.5 -20t19.5 -45q0 -70 -92.5 -152t-236.5 -118q3 21 23 74t54.5 113t80.5 104t100 44z" />
    <glyph glyph-name="endash" unicode="&#x2013;" horiz-adv-x="1615" 
d="M31 349q-7 13 -7 32q0 13 3 28q9 44 31 80q1304 2 1317 2q6 -12 6 -31q0 -13 -3 -29q-9 -44 -30 -80q-47 0 -678.5 -1t-638.5 -1z" />
    <glyph glyph-name="emdash" unicode="&#x2014;" horiz-adv-x="2278" 
d="M31 349q-7 13 -7 32q0 13 3 28q9 44 31 80l1980 2q6 -12 6 -31q0 -13 -3 -29q-9 -44 -30 -80q-47 0 -1010 -1t-970 -1z" />
    <glyph glyph-name="quoteleft" unicode="&#x2018;" horiz-adv-x="488" 
d="M370 829q-5 -67 -42 -106.5t-96 -39.5t-95 45t-36 101q0 96 87.5 217.5t209.5 213.5t233 111q-94 -60 -195 -206t-106 -240q40 -39 40 -96z" />
    <glyph glyph-name="quoteright" unicode="&#x2019;" horiz-adv-x="467" 
d="M220 1224q5 68 42 107.5t96 39.5t95 -45t36 -101q0 -96 -87.5 -217.5t-209.5 -213.5t-233 -111q94 60 195 206t106 240q-40 39 -40 95z" />
    <glyph glyph-name="quotesinglbase" unicode="&#x201a;" horiz-adv-x="513" 
d="M82 120q4 68 41 107.5t96 39.5t95 -45t36 -101q0 -96 -87.5 -217.5t-209.5 -213.5t-233 -111q94 60 195 206t106 239q-39 40 -39 96z" />
    <glyph glyph-name="quotedblleft" unicode="&#x201c;" horiz-adv-x="819" 
d="M370 829q-5 -67 -42 -106.5t-96 -39.5t-95 45t-36 101q0 96 87.5 217.5t209.5 213.5t233 111q-94 -60 -195 -206t-106 -240q40 -39 40 -96zM701 829q-5 -68 -42 -107.5t-96 -39.5t-95 45t-36 101q0 96 87.5 217.5t209.5 213.5t233 111q-94 -60 -195 -206t-106 -239
q40 -40 40 -96z" />
    <glyph glyph-name="quotedblright" unicode="&#x201d;" horiz-adv-x="823" 
d="M221 1224q4 68 41 107.5t96 39.5t95 -45t36 -101q0 -96 -87.5 -217.5t-209.5 -213.5t-233 -111q94 60 195 206t106 240q-39 39 -39 95zM576 1224q5 67 42 106.5t96 39.5t95 -45t36 -101q0 -96 -87.5 -217.5t-209.5 -213.5t-233 -111q94 60 195 206.5t106 239.5
q-40 39 -40 96z" />
    <glyph glyph-name="quotedblbase" unicode="&#x201e;" horiz-adv-x="869" 
d="M82 197q4 68 41 107.5t96 39.5t95 -45t36 -101q0 -96 -87.5 -217.5t-209.5 -213.5t-233 -111q94 60 195 206t106 240q-39 39 -39 95zM437 197q5 67 42 106.5t96 39.5t95 -45t36 -101q0 -96 -87.5 -217.5t-209.5 -213.5t-233 -111q94 60 195 206.5t106 239.5
q-40 39 -40 96z" />
    <glyph glyph-name="bullet" unicode="&#x2022;" 
d="M311 689q101 0 159 -41.5t78 -105.5q13 -41 13 -84q0 -26 -5 -53q-13 -72 -54 -136.5t-104.5 -105t-144.5 -41.5q-88 1 -140 41.5t-71 105.5q-12 42 -12 87q0 24 3 49q10 72 46 136.5t95 106t137 41.5z" />
    <glyph glyph-name="ellipsis" unicode="&#x2026;" horiz-adv-x="2048" 
d="M196 -19q-56 10 -88 55q-26 38 -26 85q0 10 1 21q10 61 53 96q37 29 82 29q9 0 18 -1q57 -9 89 -55q26 -36 26 -82q0 -12 -2 -24q-9 -60 -53 -95q-36 -30 -83 -30q-8 0 -17 1zM879 -19q-56 10 -88 55q-26 38 -26 85q0 10 1 21q10 61 53 96q37 29 82 29q9 0 18 -1
q57 -9 89 -55q26 -36 26 -82q0 -12 -2 -24q-9 -60 -53 -95q-36 -30 -83 -30q-8 0 -17 1zM1562 -19q-56 10 -88 55q-26 38 -26 85q0 10 1 21q10 61 53 96q37 29 82 29q9 0 18 -1q57 -9 89 -55q26 -36 26 -82q0 -12 -2 -24q-9 -60 -53 -95q-36 -30 -83 -30q-8 0 -17 1z" />
    <glyph glyph-name="guilsinglleft" unicode="&#x2039;" horiz-adv-x="562" 
d="M358 86q-30 43 -83.5 102t-117 106t-118.5 47q-9 13 -9 32q0 12 4 28q11 44 39 80q93 0 171 30t136.5 73.5t93.5 86t42 69.5q16 -34 16 -65q0 -58 -48 -104t-116 -79t-133.5 -53t-103.5 -27q26 -2 69.5 -17.5t89 -43.5t77 -69t31.5 -95q0 -36 -13 -64t-27 -37z" />
    <glyph glyph-name="guilsinglright" unicode="&#x203a;" horiz-adv-x="562" 
d="M204 740q30 -43 83.5 -102t117 -106t118.5 -47q9 -13 9 -32q0 -12 -4 -28q-11 -44 -39 -80q-93 0 -171 -30t-136.5 -73.5t-93.5 -86t-42 -69.5q-16 34 -16 65q0 58 48 104t116 79t133.5 53t103.5 27q-26 2 -69.5 17.5t-89 43.5t-77 69t-31.5 95q0 36 13 64t27 37z" />
    <glyph glyph-name="fraction" unicode="&#x2044;" horiz-adv-x="374" 
d="M465 1365q35 12 72 12q8 0 16 -1q40 -3 55 -24l-419 -948l-180 -413q-33 -11 -68 -11q-10 0 -20 1q-40 3 -55 24l419 947z" />
    <glyph glyph-name="fraction" unicode="&#x2215;" horiz-adv-x="374" 
d="M465 1365q35 12 72 12q8 0 16 -1q40 -3 55 -24l-419 -948l-180 -413q-33 -11 -68 -11q-10 0 -20 1q-40 3 -55 24l419 947z" />
    <glyph glyph-name="franc" unicode="&#x20a3;" horiz-adv-x="1185" 
d="M1024 1167q-47 43 -126.5 72t-175.5 39q-46 5 -91 5q-51 0 -101 -6q-97 -12 -177.5 -48t-130 -100.5t-49.5 -161.5q0 -70 40 -109t96 -39q0 -50 -15.5 -78.5t-39 -40.5t-48.5 -12q-79 0 -127.5 68.5t-48.5 166.5q0 80 39 166t124 160t224 120.5t339 46.5q148 0 230 9
t119 19t45 15q4 2 5 2q0 -37 -20 -103.5t-49.5 -122.5t-61.5 -68zM891 548h-215q-24 -122 -53 -239q106 1 118 1q5 -11 5 -29q0 -11 -2 -25q-8 -41 -27 -73q-41 0 -128 -1q-26 -90 -53 -170q-76 -32 -150 -32q-32 0 -58.5 8t-40.5 24q27 76 53 169q-49 0 -79.5 -0.5
t-32.5 -0.5q-6 12 -6 29q0 12 3 26q7 41 26 73h121q28 116 51 239q-65 0 -106.5 -0.5t-44.5 -0.5q-6 11 -6 28q0 12 3 27q8 40 26 73h150q49 300 49 512q45 46 127 57q20 3 38 3q55 0 94 -28q0 -240 -53 -543q90 0 149 0.5t65 0.5q6 -11 6 -28q0 -12 -3 -27q-8 -40 -26 -73z
" />
    <glyph glyph-name="lira" unicode="&#x20a4;" horiz-adv-x="977" 
d="M601 -20q-83 0 -154 9t-131 20q-96 18 -166 18t-120 -47q0 28 13 73.5t44 84.5t85 54l18 4q37 66 42 179q-70 -1 -115.5 -1h-49.5q-9 13 -9 32q0 12 4 28q12 44 39 80h135v94h-132q-8 12 -8 31q0 13 4 29q11 44 38 80h101q4 126 25.5 245t71.5 215.5t140.5 154
t235.5 57.5q89 0 140.5 -35t73.5 -92q21 -54 21 -118v-6q0 -67 -16.5 -134t-41.5 -122q-28 -27 -108 -31h-19q-69 0 -130 25q22 18 47 63.5t45 103.5t27 112q2 18 2 35q0 32 -9 56q-13 36 -56 36q-67 0 -106.5 -41.5t-59.5 -113t-26 -163.5t-6 -193q0 -27 -1 -54
q248 1 271 2q9 -13 9 -32q0 -13 -4 -28q-12 -44 -39 -80q-82 0 -246 -1q-5 -47 -14 -95q234 1 257 2q8 -12 8 -31q0 -13 -4 -29q-11 -44 -38 -80q-87 0 -262 -1q-35 -92 -99 -173q73 -7 143 -22q43 -9 86 -15.5t85 -6.5q110 0 182 55q0 -113 -50.5 -173t-172.5 -60z" />
    <glyph glyph-name="peseta" unicode="&#x20a7;" horiz-adv-x="1849" 
d="M1434 -2q31 0 49.5 46t18.5 88q0 64 -18 128q-82 -110 -82 -192q2 -70 32 -70zM999 866q-15 -71 -44 -138q-63 -148 -163 -239.5t-212 -91.5q-53 0 -112 21q-5 1 -9 3q-42 -249 -42 -418q-40 -45 -114 -57q-17 -3 -32 -3q-52 0 -87 28q0 231 88.5 620t88.5 535
q40 45 114 57q17 3 32 3q52 0 87 -28q0 -76 -89 -492q-18 -89 -33 -171h24q71 0 137 68.5t109 186t43 264.5q0 78 -23 143.5t-77 105t-143 39.5q-115 0 -204.5 -59.5t-146 -151.5t-76.5 -194q-9 -47 -9 -91q0 -52 12 -101q23 -90 95 -144q-3 -1 -5 -3q-19 -11 -38 -17.5
t-50 -6.5q-73 0 -113.5 59t-45.5 153q-1 14 -1 28q0 81 27 173q32 107 105.5 207t190.5 171q69 40 164 65.5t191 25.5q138 0 222 -51.5t121 -137t37 -186.5q0 -34 -3 -68q39 -6 77 -11l11 40q69 242 102 340q76 32 150 32q33 0 59 -8t40 -25q-45 -128 -114 -365l-7 -24
q83 4 158 19q-13 -43 -84 -67q-44 -16 -95 -26q-53 -187 -97 -368q-56 -230 -56 -312q0 -16 4 -31t20 -15q34 0 76.5 50t84.5 120t74 136q2 5 5 10q-15 61 -15 126q0 93 34.5 151.5t87 86t104.5 27.5q59 0 103.5 -30.5t44.5 -86.5q0 -41 -18 -74t-42 -33q14 28 14 62
q0 24 -11 44.5t-39 20.5q-23 0 -39.5 -18.5t-16.5 -59.5q0 -63 13.5 -120t31.5 -111q172 106 304 108q-133 -34 -293 -146q14 -43 24 -87q12 -53 12 -110q0 -141 -77.5 -225.5t-186.5 -84.5q-60 1 -93 36q-34 31 -37 95q0 136 141 272q-6 18 -11 36q-15 44 -27 90
q-19 -52 -46 -112q-38 -83 -88 -161.5t-109 -131t-121 -52.5q-63 0 -96 29.5t-45 70.5t-12 76q0 99 60 352q41 172 86 339q-22 -3 -38 -4q-14 8 -23 23z" />
    <glyph glyph-name="Euro" unicode="&#x20ac;" horiz-adv-x="1112" 
d="M1023 913q-28 -27 -108 -31h-19q-69 0 -130 25q26 21 51.5 67.5t45 104t26.5 110.5q4 24 4 44q0 26 -6 45q-10 36 -44 36q-74 0 -140 -76.5t-116.5 -201.5t-80.5 -274q146 0 239 0.5t103 0.5q9 -13 9 -32q0 -12 -4 -28q-11 -44 -38 -80h-331q-6 -48 -8 -95q138 0 225 0.5
t97 0.5q9 -13 9 -32q0 -13 -4 -28q-12 -44 -39 -80h-289q8 -90 37.5 -145.5t71.5 -81t87 -25.5q54 0 103 33.5t75 91.5q0 -71 -33.5 -136t-104.5 -105.5t-182 -40.5q-106 0 -173.5 54t-102 146t-39.5 208q-76 0 -123.5 -0.5t-51.5 -0.5q-9 13 -9 32q0 13 4 28q12 44 39 80
h143q4 47 10 95q-60 -1 -97 -1h-40q-8 12 -8 31q0 13 4 29q11 44 38 80h128q28 128 77.5 246t120 211.5t161 148t200.5 54.5q101 0 160 -34.5t85 -90.5t26.5 -123.5t-16 -135t-42.5 -124.5z" />
    <glyph glyph-name="minus" unicode="&#x2212;" horiz-adv-x="1111" 
d="M1005 493l-906 -2q-9 13 -9 32q0 12 4 28q11 44 39 80l906 2q8 -12 8 -31q0 -13 -4 -29q-11 -44 -38 -80z" />
    <glyph glyph-name="approxequal" unicode="&#x2248;" horiz-adv-x="1003" 
d="M973 672q-28 -139 -101 -187q-64 -44 -150 -44q-10 0 -21 1q-100 6 -211 31q-132 31 -253 32h-5q-119 0 -202 -85q24 143 105 194q74 46 175 46h20q113 -4 234 -27q129 -24 238 -25h3q107 0 168 64zM973 420q-28 -139 -101 -187q-64 -44 -150 -44q-10 0 -21 1
q-100 6 -211 31q-132 31 -253 32h-5q-119 0 -202 -85q24 143 105 194q74 46 175 46h20q113 -4 234 -27q129 -24 238 -25h3q107 0 168 64z" />
    <glyph glyph-name="lessequal" unicode="&#x2264;" horiz-adv-x="1070" 
d="M873 213q-29 9 -125 43l-248.5 88t-271.5 86.5t-190 37.5q-8 12 -8 31q0 13 4 29q11 44 38 80q111 0 243.5 28t262 68t234.5 79l165 63q50 20 55 21q8 -13 8 -31q0 -13 -4 -29q-11 -44 -38 -80q-81 -30 -272 -82.5l-383 -100.5q313 -95 483 -163q73 -28 81 -28
q9 -13 9 -33q0 -12 -4 -27q-12 -45 -39 -80zM815 2l-906 -2q-9 12 -9 31q0 13 4 29q11 44 39 80l906 2q8 -13 8 -31q0 -13 -4 -29q-11 -44 -38 -80z" />
    <glyph glyph-name="greaterequal" unicode="&#x2265;" horiz-adv-x="1070" 
d="M197 867q29 -9 125 -43l248.5 -88t271.5 -86.5t190 -37.5q8 -12 8 -31q0 -13 -4 -29q-11 -44 -38 -80q-111 0 -243.5 -28t-262 -68t-234.5 -79l-165 -63q-50 -20 -55 -21q-8 13 -8 31q0 13 4 29q11 44 38 80q81 30 272 82.5l383 100.5q-313 95 -483 163q-73 28 -81 28
q-9 13 -9 33q0 12 4 27q12 45 39 80zM892 2l-906 -2q-9 12 -9 31q0 13 4 29q11 44 39 80l906 2q8 -13 8 -31q0 -13 -4 -29q-11 -44 -38 -80z" />
    <glyph glyph-name="uniF001" unicode="&#xf001;" horiz-adv-x="812" 
d="M184 179q-5 -21 -15.5 -83.5l-24.5 -145.5l-34 -223q-21 -145 -21 -196q0 -13 2.5 -30.5t11.5 -31t29 -13.5q36 0 59.5 61t34.5 153q11 93 11 191q0 102 -13.5 189.5t-39.5 128.5zM708 978q-56 9 -88 55q-26 37 -26 85q0 10 1 21q10 60 53 95q37 30 84 30q8 0 16 -1
q57 -10 88 -55q26 -38 26 -85q0 -10 -1 -21q-10 -61 -53 -96q-36 -29 -81 -29q-9 0 -19 1zM375 319q-14 -16 -29 -31q-47 -48 -105 -81q28 -45 57 -133q23 -72 40 -159q21 -106 21 -211v-10q0 -133 -52 -224q-26 -42 -67 -65.5t-101 -23.5q-85 0 -135 38.5t-71.5 101
t-21.5 134.5q0 133 28 331q34 250 94 532q46 218 98 419q50 197 98 345q19 47 73 69.5t97 22.5q33 0 59.5 -8t39.5 -25q-45 -127 -85 -255q-58 -183 -107 -367q-60 -226 -109 -457q72 14 128 64q36 32 65 69q24 110 54 216q34 120 62 203q77 32 150 32q33 0 59.5 -8
t39.5 -24q-27 -75 -62 -189t-62.5 -231.5t-27.5 -195.5q0 -16 4 -31t20 -15q34 0 86.5 75t99.5 169.5t69 164.5q0 -21 -18.5 -86t-51.5 -148t-79.5 -162t-102.5 -132t-119 -53t-96 29.5t-45 70.5t-12 76q0 70 17 163z" />
    <glyph glyph-name="uniF001" unicode="&#xfb01;" horiz-adv-x="812" 
d="M184 179q-5 -21 -15.5 -83.5l-24.5 -145.5l-34 -223q-21 -145 -21 -196q0 -13 2.5 -30.5t11.5 -31t29 -13.5q36 0 59.5 61t34.5 153q11 93 11 191q0 102 -13.5 189.5t-39.5 128.5zM708 978q-56 9 -88 55q-26 37 -26 85q0 10 1 21q10 60 53 95q37 30 84 30q8 0 16 -1
q57 -10 88 -55q26 -38 26 -85q0 -10 -1 -21q-10 -61 -53 -96q-36 -29 -81 -29q-9 0 -19 1zM375 319q-14 -16 -29 -31q-47 -48 -105 -81q28 -45 57 -133q23 -72 40 -159q21 -106 21 -211v-10q0 -133 -52 -224q-26 -42 -67 -65.5t-101 -23.5q-85 0 -135 38.5t-71.5 101
t-21.5 134.5q0 133 28 331q34 250 94 532q46 218 98 419q50 197 98 345q19 47 73 69.5t97 22.5q33 0 59.5 -8t39.5 -25q-45 -127 -85 -255q-58 -183 -107 -367q-60 -226 -109 -457q72 14 128 64q36 32 65 69q24 110 54 216q34 120 62 203q77 32 150 32q33 0 59.5 -8
t39.5 -24q-27 -75 -62 -189t-62.5 -231.5t-27.5 -195.5q0 -16 4 -31t20 -15q34 0 86.5 75t99.5 169.5t69 164.5q0 -21 -18.5 -86t-51.5 -148t-79.5 -162t-102.5 -132t-119 -53t-96 29.5t-45 70.5t-12 76q0 70 17 163z" />
    <glyph glyph-name="uniF002" unicode="&#xf002;" horiz-adv-x="828" 
d="M184 179q-5 -21 -15.5 -83.5l-24.5 -145.5l-34 -223q-21 -145 -21 -196q0 -13 2.5 -30.5t11.5 -31t29 -13.5q36 0 59.5 61t34.5 153q11 93 11 191q0 102 -13.5 189.5t-39.5 128.5zM376 320q-14 -16 -30 -32q-47 -48 -105 -81q28 -45 57 -133q23 -72 40 -159
q21 -106 21 -211v-10q0 -133 -52 -224q-26 -42 -67 -65.5t-101 -23.5q-85 0 -135 38.5t-71.5 101t-21.5 134.5q0 133 28 331q34 250 94 532q46 218 98 419q64 245 112 393q19 47 73 69.5t97 22.5q33 0 59.5 -8t39.5 -25q-45 -127 -85 -255q-72 -231 -121 -415
q-60 -226 -109 -457q72 14 128 64q36 32 65 69q11 57 28 124q59 248 127.5 483.5t103.5 339.5q76 32 150 32q33 0 59 -8t40 -25q-31 -88 -100.5 -320t-132 -477t-62.5 -346q1 -46 24 -46q25 0 63 50t77 120t70 136t45 103q0 -19 -20.5 -84t-56.5 -148.5t-83 -162.5
t-101.5 -132.5t-109.5 -53.5q-83 0 -121 60q-32 51 -32 116q0 63 18 164z" />
    <glyph glyph-name="uniF002" unicode="&#xfb02;" horiz-adv-x="828" 
d="M184 179q-5 -21 -15.5 -83.5l-24.5 -145.5l-34 -223q-21 -145 -21 -196q0 -13 2.5 -30.5t11.5 -31t29 -13.5q36 0 59.5 61t34.5 153q11 93 11 191q0 102 -13.5 189.5t-39.5 128.5zM376 320q-14 -16 -30 -32q-47 -48 -105 -81q28 -45 57 -133q23 -72 40 -159
q21 -106 21 -211v-10q0 -133 -52 -224q-26 -42 -67 -65.5t-101 -23.5q-85 0 -135 38.5t-71.5 101t-21.5 134.5q0 133 28 331q34 250 94 532q46 218 98 419q64 245 112 393q19 47 73 69.5t97 22.5q33 0 59.5 -8t39.5 -25q-45 -127 -85 -255q-72 -231 -121 -415
q-60 -226 -109 -457q72 14 128 64q36 32 65 69q11 57 28 124q59 248 127.5 483.5t103.5 339.5q76 32 150 32q33 0 59 -8t40 -25q-31 -88 -100.5 -320t-132 -477t-62.5 -346q1 -46 24 -46q25 0 63 50t77 120t70 136t45 103q0 -19 -20.5 -84t-56.5 -148.5t-83 -162.5
t-101.5 -132.5t-109.5 -53.5q-83 0 -121 60q-32 51 -32 116q0 63 18 164z" />
    <glyph glyph-name="uni2070" unicode="&#x2070;" horiz-adv-x="599" 
d="M435 849q1 22 1 41q0 57 -13 89q-12 33 -30 34h-8q-27 0 -47 -14q-28 -20 -48 -53.5t-34 -76.5t-21.5 -86.5t-9.5 -77.5q0 -48 5 -78q8 -38 21.5 -59t23.5 -21h5q24 0 46 22q31 30 54.5 78t37.5 102.5t17 99.5zM402 1159q91 -4 144 -85q42 -63 42 -172q0 -18 -1 -38
q-5 -77 -31.5 -156.5t-74.5 -146t-111 -106.5q-60 -39 -141 -39q-10 0 -20 1q-57 3 -101 35t-64.5 76.5t-29.5 91.5q-5 35 -5 66q0 11 1 22q12 206 115 330q100 122 255 122q11 0 22 -1z" />
    <glyph glyph-name="uni00B9" unicode="&#xb9;" horiz-adv-x="538" 
d="M364 1167q134 0 135 -59q-175 -538 -189 -707q-115 0 -186 36q0 92 138 533q-61 -35 -152 -38q-40 0 -67 22q-30 22 -30 104q70 -19 107 -19q54 0 106.5 21.5t137.5 106.5z" />
    <glyph glyph-name="uni00B2" unicode="&#xb2;" horiz-adv-x="600" 
d="M243 551q7 1 43 1q33 0 70 4q93 10 203 68q-24 -142 -117 -182q-78 -33 -180 -33h-25q-115 5 -242 40q0 27 3.5 45.5t14.5 38.5t35.5 35t53.5 15q65 57 123 119t93 130.5t35 155.5q0 20 -5.5 38.5t-13 27t-19.5 8.5q-22 0 -41.5 -20t-32 -54.5t-12.5 -70.5q0 -24 5 -67
q-65 0 -98 8t-54 29t-21 55q0 60 24 103t65.5 70.5t91 39.5t98.5 12q63 0 114 -26t80.5 -74t29.5 -116q0 -73 -32 -133t-81.5 -109t-105.5 -89q-53 -38 -102 -69z" />
    <glyph glyph-name="uni00B3" unicode="&#xb3;" horiz-adv-x="600" 
d="M4 578q29 24 91 27l13 1q51 0 128 -30q-41 -32 -60 -70.5t-19 -74.5q0 -27 10.5 -37.5t22.5 -10.5q17 0 42.5 14.5t46 44.5t20.5 78q0 56 -16.5 88t-41.5 50t-68 35q0 32 24 49.5t52.5 29t43.5 11.5q46 23 72.5 73.5t26.5 101.5q0 25 -3.5 51t-14 39.5t-32.5 13.5
q-19 0 -36 -15.5t-29 -45t-17 -64.5q-2 -16 -2 -32t6 -56q-91 7 -128.5 30.5t-37.5 63.5q0 68 27.5 112.5t70 69t89 33.5t86.5 9q50 0 99.5 -17.5t81 -58.5t31.5 -108q0 -83 -57 -161.5t-127 -103.5q49 -29 81.5 -82.5t32.5 -118.5q0 -56 -28 -101t-72.5 -75t-96.5 -46
t-100 -16q-61 0 -115.5 21.5t-89 66t-34.5 110.5q0 50 27 101z" />
    <glyph glyph-name="uni2074" unicode="&#x2074;" horiz-adv-x="600" 
d="M186 372l33 124q-39 2 -109 8q-77 7 -170 11v23q0 18 5 39q5 25 23.5 46.5t43.5 23.5q65 58 189.5 253t140.5 239q39 20 78 28.5t62 9.5h9q30 0 52 -8q37 -11 39 -40q-31 -91 -61.5 -212.5t-54.5 -226.5l-22 -92q42 3 119 103v-77q0 -37 -19 -63q-21 -29 -58 -43.5
t-65 -17.5l-8 -33q-16 -69 -24 -107q-5 -23 -9 -59q-151 2 -194 71zM160 627q37 -8 91 -14l54 216q-116 -178 -145 -202z" />
    <glyph glyph-name="uni2075" unicode="&#x2075;" horiz-adv-x="605" 
d="M573 1032q-48 -39 -114 -42q-78 0 -133 9l-40 -143q104 -8 170 -90.5t66 -195.5q0 -54 -18 -106.5t-55.5 -95t-93.5 -69t-129 -26.5q-87 0 -141 29t-77.5 74t-23.5 93q0 50 29 102q29 24 95 27h14q53 0 135 -29q-45 -33 -64.5 -71t-19.5 -74q0 -23 8 -34.5t30 -11.5
q29 0 51 26.5t35 73t13 94.5q0 53 -16.5 91t-56.5 58q-38 19 -154 21l122 425q112 -17 195 -17q103 0 237 29q-25 -115 -64 -147z" />
    <glyph glyph-name="uni2076" unicode="&#x2076;" horiz-adv-x="599" 
d="M276 587h4q8 0 16 7q13 13 23 37t16 52t8 52v22q0 45 -16 73q-18 29 -63 33h-25q-9 -22 -16 -53.5t-11 -81.5q-1 -8 -1 -17q0 -26 6 -51q10 -34 25.5 -53t33.5 -20zM292 976q26 5 54 5q78 -2 124 -39t70 -91q20 -45 20 -97q0 -11 -1 -22q-6 -71 -40 -130t-94 -92
q-53 -30 -121 -30q-11 0 -22 1q-88 6 -150.5 40.5t-93.5 101.5q-23 50 -23 121q0 18 1 37q8 99 52 182t106 149.5t127 115t117 79.5t77 43q7 4 11 6q22 10 46 10q5 0 11 -1l9 -1q34 -5 60 -21q29 -18 29 -43v-2q0 -13 -14 -21q-107 -61 -212.5 -148t-142.5 -153z" />
    <glyph glyph-name="uni2077" unicode="&#x2077;" horiz-adv-x="600" 
d="M170.5 904.5q-42.5 -61.5 -66.5 -158.5q-58 20 -58 114q0 32 7 70q9 56 32.5 108.5t63.5 90.5t114 38q38 -67 77 -68q122 0 232 55q27 0 40 -8q24 -16 24 -38q0 -4 -1 -7q-3 -28 -30 -37q-40 -37 -112.5 -208t-118 -318.5t-72.5 -255.5q-25 -7 -36 -7q-32 0 -68 22
q-47 28 -81 75q0 36 39 154t102 251q53 110 99 189q-33 -3 -61 -3q-45 0 -72 8q-11 -5 -53.5 -66.5z" />
    <glyph glyph-name="uni2078" unicode="&#x2078;" horiz-adv-x="600" 
d="M225 584q43 1 70 44.5t27 101.5q0 38 -12 72t-16 37q-12 -11 -38.5 -47.5t-43 -77.5t-16.5 -83q0 -26 9.5 -36.5t19.5 -10.5zM340 1006q15 9 37.5 40.5t32 66.5t9.5 67q0 45 -12.5 65t-23.5 20q-21 0 -40 -16.5t-32 -45.5t-13 -59q0 -53 16.5 -90.5t25.5 -47.5zM211 942
l-5 6q-22 29 -41.5 58t-32 62.5t-12.5 74.5q0 63 25.5 107t68 71t91.5 38.5t96 11.5q59 0 107.5 -21t77 -65t28.5 -109q0 -85 -57 -160.5t-125 -99.5q15 -12 45.5 -44t48 -69.5t17.5 -85.5q0 -67 -43 -121t-109 -85.5t-137 -31.5q-63 0 -121.5 22.5t-96 67t-37.5 108.5
q0 51 23 94.5t58.5 78t76 60.5t54.5 32z" />
    <glyph glyph-name="uni2079" unicode="&#x2079;" horiz-adv-x="598" 
d="M255 909q-1 -15 -1 -28q0 -32 6 -59q10 -33 36 -52q18 -14 51 -18q30 64 39 163q1 14 1 28q0 20 -2 40q-5 33 -17 52t-31 20h-4q-10 0 -19 -8q-17 -13 -29.5 -36.5t-20 -50.5t-9.5 -51zM292 645q-82 6 -137 41q-66 43 -94 106q-23 53 -23 104q0 9 1 18q6 67 36 115.5
t76.5 78.5t101.5 43q40 9 79 9q111 -1 163 -47.5t72 -112.5q15 -47 15 -102q0 -18 -1 -37q-8 -79 -42.5 -152.5t-84.5 -137t-104.5 -116.5t-104.5 -92t-85 -62.5t-45 -29.5q-22 -8 -45 -8h-9q-6 1 -11 1q-34 6 -59 21q-29 18 -29 43v3q0 11 13 21q205 120 317 293z" />
    <glyph glyph-name="uni207A" unicode="&#x207a;" horiz-adv-x="775" 
d="M342 785q17 80 51 218q43 18 79 19h3q37 0 62 -26q-46 -153 -60 -213h9q85 0 230 6q17 -23 17 -39q0 -10 -3 -21q-8 -30 -36 -64q-158 0 -243 3q-17 -78 -52 -220q-43 -17 -79 -18h-3q-37 0 -62 27q45 147 60 212h-11q-87 0 -227 -6q-18 23 -18 39q0 10 3 21q8 30 37 64
q160 0 243 -2z" />
    <glyph glyph-name="uni207B" unicode="&#x207b;" horiz-adv-x="775" 
d="M694 509l-618 -1q-17 22 -17 39q0 9 3 21q8 30 37 64l618 1q16 -22 16 -38q0 -10 -3 -22q-8 -30 -36 -64z" />
    <glyph glyph-name="uni207C" unicode="&#x207c;" horiz-adv-x="755" 
d="M696 626q-52 0 -146 -0.5t-198 -0.5h-179h-95q-17 22 -17 39q0 9 3 21q9 30 37 64h265t231.5 0.5t121.5 0.5q16 -22 16 -38q0 -10 -3 -22q-8 -30 -36 -64zM655 486q-52 0 -146 -0.5t-198 -0.5t-179 -0.5t-95 -0.5q-17 23 -17 39q0 10 3 21q8 30 37 64q130 0 265 0.5
t231 1t122 0.5q16 -23 16 -39q0 -10 -3 -21q-8 -30 -36 -64z" />
    <glyph glyph-name="uni207D" unicode="&#x207d;" horiz-adv-x="488" 
d="M371 548q-49 -68 -82 -94t-73 -26q-60 0 -94 34t-47 86q-13 50 -13 110q0 69 9.5 139t25.5 140q20 87 54.5 176.5t81.5 166.5t106.5 128.5t128.5 51.5q37 0 66 -15.5t43 -80.5q-53 21 -58 21q-26 0 -58 -40t-62.5 -110.5t-55 -153.5t-41.5 -161q-23 -109 -28 -223
q0 -68 16 -111q13 -38 81 -38z" />
    <glyph glyph-name="uni207E" unicode="&#x207e;" horiz-adv-x="475" 
d="M118 1340q49 68 82.5 94t72.5 26q60 0 93.5 -34t47 -85.5t13.5 -116.5q0 -62 -10 -132.5t-26 -139.5q-19 -87 -54 -177t-82 -167t-106 -128.5t-128 -51.5q-38 0 -67 16t-41 81q51 -21 56 -21q27 0 59 39.5t62.5 110t55 153.5t40.5 161q24 110 27 198q1 15 1 29
q0 66 -14 106q-14 39 -82 39z" />
    <glyph glyph-name="uni2080" unicode="&#x2080;" horiz-adv-x="599" 
d="M435 61q1 22 1 41q0 57 -13 89q-12 33 -30 34h-8q-27 0 -47 -14q-28 -20 -48 -53.5t-34 -76.5t-21.5 -86.5t-9.5 -77.5q0 -48 5 -78q8 -38 21.5 -59t23.5 -21h5q24 0 46 22q31 30 54.5 78t37.5 102.5t17 99.5zM402 371q91 -4 144 -85q42 -63 42 -172q0 -18 -1 -38
q-5 -77 -31.5 -156.5t-74.5 -146t-111 -106.5q-60 -39 -141 -39q-10 0 -20 1q-57 3 -101 35t-64.5 76.5t-29.5 91.5q-5 35 -5 66q0 11 1 22q12 206 115 330q100 122 255 122q11 0 22 -1z" />
    <glyph glyph-name="uni2081" unicode="&#x2081;" horiz-adv-x="538" 
d="M364 383q134 0 135 -59q-175 -538 -189 -707q-115 0 -186 36q0 92 138 533q-61 -35 -152 -38q-40 0 -67 22q-30 22 -30 104q70 -19 107 -19q54 0 106.5 21.5t137.5 106.5z" />
    <glyph glyph-name="uni2082" unicode="&#x2082;" horiz-adv-x="600" 
d="M243 -237q7 1 43 1q33 0 70 4q93 10 203 68q-24 -142 -117 -182q-78 -33 -180 -33h-25q-115 5 -242 40q0 27 3.5 45.5t14.5 38.5t35.5 35t53.5 15q65 57 123 119t93 130.5t35 155.5q0 20 -5.5 38.5t-13 27t-19.5 8.5q-22 0 -41.5 -20t-32 -54.5t-12.5 -70.5q0 -24 5 -67
q-65 0 -98 8t-54 29t-21 55q0 60 24 103t65.5 70.5t91 39.5t98.5 12q63 0 114 -26t80.5 -74t29.5 -116q0 -73 -32 -133t-81.5 -109t-105.5 -89q-53 -38 -102 -69z" />
    <glyph glyph-name="uni2083" unicode="&#x2083;" horiz-adv-x="600" 
d="M4 -145q29 24 91 27l13 1q51 0 128 -30q-41 -32 -60 -70.5t-19 -74.5q0 -27 10.5 -37.5t22.5 -10.5q17 0 42.5 14.5t46 44.5t20.5 78q0 56 -16.5 88t-41.5 50t-68 35q0 32 24 49.5t52.5 29t43.5 11.5q46 23 72.5 73.5t26.5 101.5q0 25 -3.5 51t-14 39.5t-32.5 13.5
q-19 0 -36 -15.5t-29 -45t-17 -64.5q-2 -16 -2 -32t6 -56q-91 7 -128.5 30.5t-37.5 63.5q0 68 27.5 112.5t70 69t89 33.5t86.5 9q50 0 99.5 -17.5t81 -58.5t31.5 -108q0 -83 -57 -161.5t-127 -103.5q49 -29 81.5 -82.5t32.5 -118.5q0 -56 -28 -101t-72.5 -75t-96.5 -46
t-100 -16q-61 0 -115.5 21.5t-89 66t-34.5 110.5q0 50 27 101z" />
    <glyph glyph-name="uni2084" unicode="&#x2084;" horiz-adv-x="600" 
d="M186 -367l33 124q-39 2 -109 8q-77 7 -170 11v23q0 18 5 39q5 25 23.5 46.5t43.5 23.5q65 58 189.5 253t140.5 239q39 20 78 28.5t62 9.5h9q30 0 52 -8q37 -11 39 -40q-31 -91 -61.5 -212.5t-54.5 -226.5l-22 -92q42 3 119 103v-77q0 -37 -19 -63q-21 -29 -58 -43.5
t-65 -17.5l-8 -33q-16 -69 -24 -107q-5 -23 -9 -59q-151 2 -194 71zM160 -112q37 -8 91 -14l54 216q-116 -178 -145 -202z" />
    <glyph glyph-name="uni2085" unicode="&#x2085;" horiz-adv-x="605" 
d="M573 306q-48 -39 -114 -42q-78 0 -133 9l-40 -143q104 -8 170 -90.5t66 -195.5q0 -54 -18 -106.5t-55.5 -95t-93.5 -69t-129 -26.5q-87 0 -141 29t-77.5 74t-23.5 93q0 50 29 102q29 24 95 27h14q53 0 135 -29q-45 -33 -64.5 -71t-19.5 -74q0 -23 8 -34.5t30 -11.5
q29 0 51 26.5t35 73t13 94.5q0 53 -16.5 91t-56.5 58q-38 19 -154 21l122 425q112 -17 195 -17q103 0 237 29q-25 -115 -64 -147z" />
    <glyph glyph-name="uni2086" unicode="&#x2086;" horiz-adv-x="599" 
d="M276 -336h4q8 0 16 7q13 13 23 37t16 52t8 52v22q0 45 -16 73q-18 29 -63 33h-25q-9 -22 -16 -53.5t-11 -81.5q-1 -8 -1 -17q0 -26 6 -51q10 -34 25.5 -53t33.5 -20zM292 53q26 5 54 5q78 -2 124 -39t70 -91q20 -45 20 -97q0 -11 -1 -22q-6 -71 -40 -130t-94 -92
q-53 -30 -121 -30q-11 0 -22 1q-88 6 -150.5 40.5t-93.5 101.5q-23 50 -23 121q0 18 1 37q8 99 52 182t106 149.5t127 115t117 79.5t77 43q7 4 11 6q22 10 46 10q5 0 11 -1l9 -1q34 -5 60 -21q29 -18 29 -43v-2q0 -13 -14 -21q-107 -61 -212.5 -148t-142.5 -153z" />
    <glyph glyph-name="uni2087" unicode="&#x2087;" horiz-adv-x="600" 
d="M170.5 183.5q-42.5 -61.5 -66.5 -158.5q-58 20 -58 114q0 32 7 70q9 56 32.5 108.5t63.5 90.5t114 38q38 -67 77 -68q122 0 232 55q27 0 40 -8q24 -16 24 -38q0 -4 -1 -7q-3 -28 -30 -37q-40 -37 -112.5 -208t-118 -318.5t-72.5 -255.5q-25 -7 -36 -7q-32 0 -68 22
q-47 28 -81 75q0 36 39 154t102 251q53 110 99 189q-33 -3 -61 -3q-45 0 -72 8q-11 -5 -53.5 -66.5z" />
    <glyph glyph-name="uni2088" unicode="&#x2088;" horiz-adv-x="600" 
d="M225 -341q43 1 70 44.5t27 101.5q0 38 -12 72t-16 37q-12 -11 -38.5 -47.5t-43 -77.5t-16.5 -83q0 -26 9.5 -36.5t19.5 -10.5zM340 81q15 9 37.5 40.5t32 66.5t9.5 67q0 45 -12.5 65t-23.5 20q-21 0 -40 -16.5t-32 -45.5t-13 -59q0 -53 16.5 -90.5t25.5 -47.5zM211 17
l-5 6q-22 29 -41.5 58t-32 62.5t-12.5 74.5q0 63 25.5 107t68 71t91.5 38.5t96 11.5q59 0 107.5 -21t77 -65t28.5 -109q0 -85 -57 -160.5t-125 -99.5q15 -12 45.5 -44t48 -69.5t17.5 -85.5q0 -67 -43 -121t-109 -85.5t-137 -31.5q-63 0 -121.5 22.5t-96 67t-37.5 108.5
q0 51 23 94.5t58.5 78t76 60.5t54.5 32z" />
    <glyph glyph-name="uni2089" unicode="&#x2089;" horiz-adv-x="598" 
d="M255 198q-1 -15 -1 -29q0 -32 6 -58q10 -34 36 -52q18 -15 51 -18q30 64 39 162q1 14 1 28q0 20 -2 40q-5 34 -17 52.5t-31 20.5h-4q-10 0 -19 -8q-17 -13 -29.5 -36.5t-20 -51t-9.5 -50.5zM292 -67q-82 6 -137 42q-66 42 -94 106q-23 53 -23 103q0 10 1 19q6 66 36 115
t76.5 79t101.5 42q40 9 79 9q111 -1 163 -47.5t72 -111.5q15 -47 15 -102q0 -19 -1 -38q-8 -79 -42.5 -152t-84.5 -137t-104.5 -117t-104.5 -92t-85 -62.5t-45 -28.5q-22 -9 -45 -9l-9 1q-6 0 -11 1q-34 5 -59 21q-29 18 -29 42v3q0 12 13 21q205 121 317 293z" />
    <glyph glyph-name="uni208A" unicode="&#x208a;" horiz-adv-x="775" 
d="M342 59q17 80 51 218q43 18 79 19h3q37 0 62 -26q-46 -153 -60 -213h9q85 0 230 6q17 -23 17 -39q0 -10 -3 -21q-8 -30 -36 -64q-158 0 -243 3q-17 -78 -52 -220q-43 -17 -79 -18h-3q-37 0 -62 27q45 147 60 212h-11q-87 0 -227 -6q-18 23 -18 39q0 10 3 21q8 30 37 64
q160 0 243 -2z" />
    <glyph glyph-name="uni208B" unicode="&#x208b;" horiz-adv-x="775" 
d="M694 -61l-618 -2q-17 23 -17 39q0 10 3 21q8 30 37 64l618 2q16 -23 16 -39q0 -10 -3 -21q-8 -30 -36 -64z" />
    <glyph glyph-name="uni208C" unicode="&#x208c;" horiz-adv-x="755" 
d="M696 9q-52 0 -146 -0.5t-198 -0.5h-179h-95q-17 22 -17 39q0 9 3 21q9 30 37 64h265t231.5 0.5t121.5 0.5q16 -22 16 -38q0 -10 -3 -22q-8 -30 -36 -64zM655 -131q-52 0 -146 -0.5t-198 -0.5t-179 -0.5t-95 -0.5q-17 23 -17 39q0 10 3 21q8 30 37 64q130 0 265 0.5t231 1
t122 0.5q16 -23 16 -39q0 -10 -3 -21q-8 -30 -36 -64z" />
    <glyph glyph-name="uni208D" unicode="&#x208d;" horiz-adv-x="488" 
d="M371 -507q-49 -68 -82 -93.5t-73 -25.5q-60 0 -94 34t-47 86q-13 49 -13 110q0 68 9.5 138t25.5 140q20 87 54.5 176.5t81.5 167t106.5 128.5t128.5 51q37 0 66 -15.5t43 -80.5q-53 21 -58 21q-26 0 -58 -39.5t-62.5 -110t-55 -153.5t-41.5 -161q-23 -110 -28 -223
q0 -69 16 -111q13 -39 81 -39z" />
    <glyph glyph-name="uni208E" unicode="&#x208e;" horiz-adv-x="475" 
d="M118 285q49 68 82.5 94t72.5 26q60 0 93.5 -34t47 -85.5t13.5 -115.5q0 -63 -10 -133t-26 -140q-19 -87 -54 -176.5t-82 -167t-106 -129t-128 -51.5q-38 0 -67 16.5t-41 80.5q51 -21 56 -21q27 0 59 39.5t62.5 110.5t55 153.5t40.5 160.5q24 110 27 198q1 15 1 29
q0 66 -14 106q-14 39 -82 39z" />
    <glyph glyph-name="uni0237" unicode="&#x237;" horiz-adv-x="421" 
d="M491 561q0 -84 -50.5 -198t-126.5 -219.5t-156 -172.5q-15 -76 -36 -158t-52.5 -158.5t-79 -138.5t-116 -99t-163.5 -37q-41 0 -79.5 13.5t-63 43t-24.5 78.5q0 65 28 117.5t73 96t99 80t108 68.5l68 43l23 118q47 259 90.5 475t62.5 268q34 49 120 59q19 2 36 2
q62 0 103 -28q-51 -146 -97 -356t-86 -416q115 102 191 240t128 279zM-95 -146l-26 -19q-48 -34 -98 -76t-84.5 -93t-34.5 -113q0 -25 10.5 -46.5t41.5 -21.5q41 0 72 40t54 98t38 116.5t24 99.5z" />
    <glyph glyph-name="uni02BB" unicode="&#x2bb;" horiz-adv-x="329" 
d="M289 1052q-3 -48 -29 -75.5t-67 -27.5q-42 0 -67 31.5t-25 70.5q0 67 61 152.5t146.5 149.5t163.5 78q-66 -42 -136.5 -144.5t-74.5 -167.5q28 -28 28 -67z" />
    <glyph glyph-name="uni02BC" unicode="&#x2bc;" horiz-adv-x="308" 
d="M142 1328q3 48 29 75.5t67 27.5q42 0 67 -31.5t25 -70.5q0 -68 -61 -153t-146.5 -149t-163.5 -78q66 42 136.5 144.5t74.5 167.5q-28 28 -28 67z" />
    <glyph glyph-name="uni02CA" unicode="&#x2ca;" horiz-adv-x="389" 
d="M288 1243q32 0 51.5 -20t19.5 -45q0 -70 -92 -152t-237 -118q3 21 23.5 74t54.5 113t80 104t100 44z" />
    <glyph glyph-name="uni02CB" unicode="&#x2cb;" horiz-adv-x="390" 
d="M101 1243q54 0 100 -44t80.5 -104t54.5 -113t24 -74q-145 36 -237.5 118t-92.5 152q0 25 19.5 45t51.5 20z" />
    <glyph glyph-name="uni02CD" unicode="&#x2cd;" horiz-adv-x="692" 
d="M662 -150q-1 -98 -64 -139h-568q2 86 72 139h560z" />
    <glyph glyph-name="uni02F7" unicode="&#x2f7;" horiz-adv-x="567" 
d="M536 -148q-8 -115 -43 -169.5t-102 -54.5q-31 0 -57 8t-51 18q-26 11 -54.5 20t-62.5 9q-39 0 -75 -21.5t-61 -71.5q10 89 34 140.5t58.5 73t73.5 21.5q33 0 62.5 -7.5t58.5 -17.5q28 -9 55.5 -16t57.5 -7q32 0 59.5 16.5t46.5 58.5z" />
    <glyph glyph-name="gravecomb" unicode="&#x300;" horiz-adv-x="0" 
d="M-629 1243q54 0 100 -44t80.5 -104t54.5 -113t24 -74q-145 36 -237.5 118t-92.5 152q0 25 19.5 45t51.5 20z" />
    <glyph glyph-name="acutecomb" unicode="&#x301;" horiz-adv-x="0" 
d="M-411 1243q32 0 51.5 -20t19.5 -45q0 -70 -92.5 -152t-237.5 -118q3 21 23.5 74t55 113t80 104t100.5 44z" />
    <glyph glyph-name="uni0302" unicode="&#x302;" horiz-adv-x="0" 
d="M-438 1221l-1 -7q0 -19 16 -47.5t38 -61.5q24 -37 44.5 -74t20.5 -65q-1 -68 -77 -74q-43 3 -62.5 55t-24 117t-4.5 99q-14 -1 -31 -27.5t-38 -66.5q-22 -41 -47.5 -82.5t-55 -70t-63.5 -28.5q-27 1 -47 20.5t-20 48.5q0 44 41 91t98.5 86.5t114 64t86.5 24.5q7 0 12 -2z
" />
    <glyph glyph-name="tildecomb" unicode="&#x303;" horiz-adv-x="0" 
d="M-253 1147q-9 -115 -43.5 -169.5t-102.5 -54.5q-30 0 -56 8t-52 18q-26 11 -54 20t-63 9q-39 0 -75 -21.5t-61 -71.5q10 89 34.5 140.5t58.5 73t73 21.5q33 0 62.5 -7.5t58.5 -17.5q28 -9 56 -16t57 -7q32 0 60 17t47 58z" />
    <glyph glyph-name="uni0304" unicode="&#x304;" horiz-adv-x="0" 
d="M-236 1068q-1 -98 -64 -139h-440q2 86 72 139h432z" />
    <glyph glyph-name="uni0305" unicode="&#x305;" horiz-adv-x="0" 
d="M1932 1518q-58 0 -203 -0.5t-304.5 -0.5t-275 -0.5t-123.5 -0.5q-9 13 -9 32q0 13 4 28q11 44 39 80q178 0 386 0.5t356 1t164 0.5q8 -12 8 -30q0 -13 -4 -30q-11 -44 -38 -80z" />
    <glyph glyph-name="uni0306" unicode="&#x306;" horiz-adv-x="0" 
d="M-649 1227q-10 -43 -10 -88q0 -64 19.5 -107.5t66.5 -43.5q59 2 88 68t29 175h4q38 0 72 -17q36 -18 38 -71q0 -68 -25 -115t-63.5 -75t-80 -41t-75.5 -13h-3q-57 0 -111 42q-56 44 -60 148q0 56 26.5 97t84.5 41z" />
    <glyph glyph-name="uni0307" unicode="&#x307;" horiz-adv-x="0" 
d="M-504 923q-52 8 -82 50q-24 35 -24 79q0 10 1 20q9 55 49 88q34 28 78 28q7 0 15 -1q53 -10 82 -51q24 -35 24 -79q0 -10 -1 -20q-10 -56 -49 -89q-34 -27 -76 -27q-8 0 -17 2z" />
    <glyph glyph-name="uni0308" unicode="&#x308;" horiz-adv-x="0" 
d="M-664 923q-52 8 -82 50q-24 35 -24 79q0 10 1 20q9 55 49 88q34 28 78 28q68 -3 97 -52q24 -35 24 -79q0 -10 -1 -20q-10 -56 -49 -89q-34 -27 -76 -27q-8 0 -17 2zM-362 922q-52 9 -82 51q-24 35 -24 79q0 9 1 20q9 55 49 88q34 27 78 27q68 -3 97 -51q24 -35 24 -79
q0 -10 -1 -20q-10 -56 -49 -89q-34 -27 -76 -27q-8 0 -17 1z" />
    <glyph glyph-name="uni0310" unicode="&#x310;" horiz-adv-x="0" 
d="M-956 1227q-10 -43 -10 -88q0 -64 19.5 -107.5t66.5 -43.5q59 2 88 68t29 175h4q38 0 72 -17q36 -18 38 -71q0 -68 -25 -115t-63.5 -75t-80 -41t-75.5 -13h-3q-57 0 -111 42q-56 44 -60 148q0 56 26.5 97t84.5 41zM-877 1233q-51 8 -81 50q-24 35 -24 79q0 10 1 20
q9 55 49 88q34 28 77 28q8 0 16 -1q52 -10 81 -51q24 -35 24 -79q0 -10 -1 -20q-9 -56 -49 -89q-33 -27 -75 -27q-9 0 -18 2z" />
    <glyph glyph-name="uni0315" unicode="&#x315;" horiz-adv-x="308" 
d="M233 1271q3 48 29 75.5t67 27.5q42 0 67 -31.5t25 -70.5q0 -68 -61 -153t-146.5 -149t-163.5 -78q66 42 136.5 144.5t74.5 167.5q-28 28 -28 67z" />
    <glyph glyph-name="dotbelowcomb" unicode="&#x323;" horiz-adv-x="0" 
d="M-492 -382q-27 13 -45 38q-23 32 -23 72q0 9 2 18q8 52 45 82q31 25 69 25q8 0 16 -1q48 -8 75 -47q22 -31 22 -70q0 -10 -1 -20q-8 -51 -45 -81q-32 -25 -72 -25q-23 0 -43 9z" />
    <glyph glyph-name="uni0324" unicode="&#x324;" horiz-adv-x="0" 
d="M-594 -413q-52 9 -82 51q-24 34 -24 79q0 9 1 20q10 55 49 88q34 27 78 27q68 -2 97 -52q24 -34 24 -78q0 -10 -1 -20q-9 -56 -49 -89q-33 -27 -76 -27q-8 0 -17 1zM-292 -413q-52 8 -82 51q-24 34 -24 79q0 9 1 19q10 56 49 88q34 28 78 28q68 -3 97 -52q24 -35 24 -78
q0 -10 -1 -20q-9 -57 -49 -89q-33 -27 -76 -27q-8 0 -17 1z" />
    <glyph glyph-name="uni0325" unicode="&#x325;" horiz-adv-x="0" 
d="M-397 -150q88 0 131 -41.5t48 -102.5q1 -10 1 -20q0 -51 -22 -101q-26 -61 -77.5 -101.5t-122.5 -42.5q-76 2 -115 42.5t-45 101.5q-1 12 -1 25q0 48 18 96q23 61 70 102.5t115 41.5zM-425 -491q46 0 71.5 43.5t28.5 99.5q1 11 1 21q0 43 -14 79q-18 43 -56 43
q-46 0 -72 -43.5t-30 -99.5q-1 -13 -1 -25q0 -41 13 -74q18 -44 59 -44z" />
    <glyph glyph-name="uni0326" unicode="&#x326;" horiz-adv-x="0" 
d="M-321 -246q3 44 33 70t77 26t76 -29.5t29 -66.5q0 -63 -70 -143.5t-168 -141.5t-186 -73q75 39 155.5 135.5t85.5 158.5q-32 26 -32 64z" />
    <glyph glyph-name="ordfeminine" unicode="&#xaa;" horiz-adv-x="503" 
d="M389 1033q0 -10 3 -19t13 -9q12 0 29 17t36 43q33 48 62 102.5t41 83.5q0 -15 -23 -75.5t-62 -128.5q-22 -39 -48 -71.5t-54.5 -53t-57.5 -20.5q-41 0 -63 17.5t-29.5 42.5t-7.5 46q0 37 9 88q-17 -42 -41 -82q-30 -51 -67 -83q-33 -29 -68 -29q-26 0 -44 8t-29 20
q-17 18 -22.5 40t-5.5 38q0 21 5.5 62.5t17.5 91.5q15 66 41 128q22 53 54 89q17 20 37 31.5t43 11.5q43 0 82 -19t68 -49q1 2 3 8l4 12q11 27 41.5 37.5t67.5 10.5q22 0 39 -5t27 -15q-12 -28 -25 -67q-18 -50 -36 -107q-19 -60 -30 -114q-10 -48 -10 -81zM296 1319
q-31 41 -58 41q-22 0 -42 -36q-23 -42 -40 -106q-12 -44 -20 -85q-14 -78 -14 -97q0 -11 2.5 -21t12.5 -10q13 0 30 24t35 61q27 54 51 112q32 83 43 117zM411 620q-29 0 -101.5 -0.5t-152.5 -0.5t-137.5 -0.5t-61.5 -0.5q-5 13 -5 32q0 12 2 28q6 44 20 80q89 0 193 0.5
t178 1t82 0.5q4 -12 4 -31q0 -13 -2 -29q-6 -44 -19 -80z" />
    <glyph glyph-name="ordmasculine" unicode="&#xba;" horiz-adv-x="399" 
d="M118 892q-56 0 -91 25t-51 63.5t-16 77.5q0 56 16.5 113t40.5 109q16 23 58 32q14 55 53.5 82.5t97.5 27.5q66 0 101.5 -48.5t35.5 -140.5q0 -35 -5 -73q38 6 67 26t44 55q0 -41 -31.5 -65t-82.5 -33q-13 -64 -44 -120q-32 -58 -81 -94.5t-112 -36.5zM144 1315
q27 -4 44 -16q-23 -32 -38 -71q41 -55 128 -67q6 41 6 77q0 43 -16.5 77t-58.5 34q-19 0 -34.5 -6.5t-30.5 -27.5zM136 1186q-14 -52 -14 -102q0 -14 3 -38t13.5 -43t33.5 -19q24 0 44.5 23t35.5 59q15 35 23 76q-80 8 -139 44zM340 610q-29 0 -101.5 -0.5t-152 -0.5
t-137.5 -0.5t-62 -0.5q-4 13 -4 32q0 13 2 28q5 44 19 80q89 0 193 0.5t178 1t82 0.5q4 -12 4 -30q0 -14 -2 -30q-5 -44 -19 -80z" />
    <glyph glyph-name="onequarter" unicode="&#xbc;" horiz-adv-x="1364" 
d="M364 1167q134 0 135 -59q-175 -538 -189 -707q-115 0 -186 36q0 92 138 533q-61 -35 -152 -38q-40 0 -67 22q-30 22 -30 104q70 -19 107 -19q54 0 106.5 21.5t137.5 106.5zM888 1365q35 12 72 12q8 0 16 -1q40 -3 55 -24l-419 -948l-180 -413q-34 -11 -68 -11
q-10 0 -20 1q-40 3 -55 24l419 947zM950 70l33 125q-39 2 -109 8q-77 7 -170 11v23q0 18 5 39q5 25 23.5 46.5t43.5 23.5q65 58 189.5 253t140.5 239q39 20 78 28.5t62 9.5h9q30 0 52 -8q37 -11 39 -41q-31 -90 -61.5 -211.5t-54.5 -226.5l-22 -92q41 3 119 103v-77
q0 -37 -19 -63q-21 -29 -58 -43.5t-65 -17.5l-8 -33q-17 -69 -24 -107q-5 -23 -9 -59q-152 2 -194 70zM924 326q37 -8 91 -14l54 215q-116 -177 -145 -201z" />
    <glyph glyph-name="onehalf" unicode="&#xbd;" horiz-adv-x="1383" 
d="M364 1167q134 0 135 -59q-175 -538 -189 -707q-115 0 -186 36q0 92 138 533q-61 -35 -152 -38q-40 0 -67 22q-30 22 -30 104q70 -19 107 -19q54 0 106.5 21.5t137.5 106.5zM892 1365q35 11 72 11h16q40 -3 55 -24l-419 -948l-180 -413q-34 -11 -68 -11q-10 0 -20 1
q-40 3 -55 24l419 947zM1025 143h44q33 0 70 4q93 10 203 68q-24 -142 -117 -182q-78 -33 -180 -33h-25q-115 5 -242 40q0 27 3.5 45.5t14.5 38.5t35.5 35t53.5 15q65 57 123 119t93 130.5t35 155.5q0 20 -5.5 38.5t-13 27t-19.5 8.5q-22 0 -41.5 -20t-32 -54.5t-12.5 -70.5
q0 -24 5 -67q-65 0 -98 8t-54 29t-21 55q0 60 24 103t65.5 70.5t91 39.5t98.5 12q63 0 114 -26t80.5 -74t29.5 -116q0 -73 -32 -133t-81.5 -109t-105.5 -89q-53 -38 -103 -68z" />
    <glyph glyph-name="threequarters" unicode="&#xbe;" horiz-adv-x="1464" 
d="M4 578q29 24 91 27l13 1q51 0 128 -30q-41 -32 -60 -70.5t-19 -74.5q0 -27 10.5 -37.5t22.5 -10.5q17 0 42.5 14.5t46 44.5t20.5 78q0 56 -16.5 88t-41.5 50t-68 35q0 32 24 49.5t52.5 29t43.5 11.5q46 23 72.5 73.5t26.5 101.5q0 25 -3.5 51t-14 39.5t-32.5 13.5
q-19 0 -36 -15.5t-29 -45t-17 -64.5q-2 -16 -2 -32t6 -56q-91 7 -128.5 30.5t-37.5 63.5q0 68 27.5 112.5t70 69t89 33.5t86.5 9q50 0 99.5 -17.5t81 -58.5t31.5 -108q0 -83 -57 -161.5t-127 -103.5q49 -29 81.5 -82.5t32.5 -118.5q0 -56 -28 -101t-72.5 -75t-96.5 -46
t-100 -16q-61 0 -115.5 21.5t-89 66t-34.5 110.5q0 50 27 101zM1041 1365q35 11 88 11q40 -3 55 -24l-419 -948l-180 -413q-34 -11 -68 -11q-10 0 -20 1q-40 3 -55 24l419 947zM1050 71l33 124q-39 2 -109 8q-77 7 -170 11v23q0 19 5 39q5 26 23.5 47.5t43.5 22.5
q66 59 190 254t140 238q39 20 78 29t62 9h9q30 0 52 -7q37 -12 39 -41q-31 -90 -61.5 -211.5t-54.5 -227.5q-15 -64 -21 -92q41 3 118 103v-76q0 -38 -19 -64q-21 -28 -58 -43t-65 -18l-7 -32q-17 -70 -25 -107q-5 -24 -9 -60q-151 3 -194 71zM1024 327q38 -8 91 -15l54 216
q-116 -178 -145 -201z" />
    <glyph glyph-name="Amacron" unicode="&#x100;" horiz-adv-x="1227" 
d="M704 735l-34 -87l-67.5 -174.5t-81 -178.5t-97.5 -158.5t-116 -114t-138 -42.5q-71 0 -117.5 29.5t-69.5 80t-23 114.5q0 73 24.5 154.5t76.5 159t132 140.5t190.5 101.5t253.5 38.5l21 51q34 86 79 184t104 186t134.5 145t171.5 57q53 0 83 -17.5t42 -45.5
q11 -27 11 -59v-5q-6 -87 -32 -159q-47 -152 -99.5 -339.5t-91 -354t-38.5 -243.5q0 -16 6.5 -31t31.5 -15t64.5 50t81 120t74.5 136t47 103q0 -19 -20.5 -84t-57.5 -148.5t-87 -163t-109 -132.5t-123 -53q-62 0 -95 29t-45 70.5t-12 76.5q0 80 31 231q29 141 71 303
q-88 39 -176 45zM365.5 687.5q-117.5 -54.5 -190 -167t-72.5 -213.5q0 -36 9 -65.5t32.5 -47t64.5 -17.5q74 0 132.5 49t104 124.5t80 159.5t59.5 156l29 76q-131 0 -248.5 -54.5zM724 786q82 -13 170 -40q90 333 154 533q-57 0 -110.5 -66.5t-106.5 -178t-107 -248.5z
M1468 1650q-1 -98 -64 -139h-440q2 87 72 139h432z" />
    <glyph glyph-name="amacron" unicode="&#x101;" horiz-adv-x="820" 
d="M611 198q0 -16 4 -31t20 -15q18 0 43.5 28t54.5 72q50 80 94 170.5t63 138.5q0 -25 -35 -125.5t-94 -213.5q-34 -65 -73.5 -119.5t-82.5 -88.5t-87 -34q-62 0 -95 29.5t-45 70.5t-12 76q0 63 14 147q-26 -70 -62 -136q-45 -85 -102 -139q-49 -48 -103 -48q-39 0 -66 13
t-44 33q-25 31 -34 67.5t-9 62.5q0 36 8.5 105t26.5 153q23 109 62 212q34 89 82 149q26 33 56.5 52t65.5 19q65 0 124 -31.5t103 -81.5q1 4 4 13.5t7 20.5q16 45 62 62t103 17q33 0 59 -8t40 -24q-17 -47 -38 -113q-27 -83 -54 -178q-28 -99 -45 -190q-15 -79 -15 -135z
M470 675q-47 68 -88 68q-34 0 -63 -59q-36 -71 -61 -177q-19 -73 -31 -142q-21 -130 -21 -162q0 -18 4 -34.5t19 -16.5q19 0 45 39.5t54 101.5q40 90 76 188q49 137 66 194zM763 1068q-1 -98 -64 -139h-440q2 86 72 139h432z" />
    <glyph glyph-name="Abreve" unicode="&#x102;" horiz-adv-x="1227" 
d="M704 735l-34 -87l-67.5 -174.5t-81 -178.5t-97.5 -158.5t-116 -114t-138 -42.5q-71 0 -117.5 29.5t-69.5 80t-23 114.5q0 73 24.5 154.5t76.5 159t132 140.5t190.5 101.5t253.5 38.5l21 51q34 86 79 184t104 186t134.5 145t171.5 57q53 0 83 -17.5t42 -45.5
q11 -27 11 -59v-5q-6 -87 -32 -159q-47 -152 -99.5 -339.5t-91 -354t-38.5 -243.5q0 -16 6.5 -31t31.5 -15t64.5 50t81 120t74.5 136t47 103q0 -19 -20.5 -84t-57.5 -148.5t-87 -163t-109 -132.5t-123 -53q-62 0 -95 29t-45 70.5t-12 76.5q0 80 31 231q29 141 71 303
q-88 39 -176 45zM365.5 687.5q-117.5 -54.5 -190 -167t-72.5 -213.5q0 -36 9 -65.5t32.5 -47t64.5 -17.5q74 0 132.5 49t104 124.5t80 159.5t59.5 156l29 76q-131 0 -248.5 -54.5zM724 786q82 -13 170 -40q90 333 154 533q-57 0 -110.5 -66.5t-106.5 -178t-107 -248.5z
M1093 1809q-10 -43 -10 -88q0 -64 19.5 -107.5t66.5 -43.5q59 2 88 68t29 175h4q37 0 72 -17q36 -18 38 -71q0 -68 -25 -115t-63.5 -75t-80 -41t-75.5 -13h-3q-58 0 -111 42q-56 44 -60 148q0 56 26.5 97t84.5 41z" />
    <glyph glyph-name="abreve" unicode="&#x103;" horiz-adv-x="820" 
d="M611 198q0 -16 4 -31t20 -15q18 0 43.5 28t54.5 72q50 80 94 170.5t63 138.5q0 -25 -35 -125.5t-94 -213.5q-34 -65 -73.5 -119.5t-82.5 -88.5t-87 -34q-62 0 -95 29.5t-45 70.5t-12 76q0 63 14 147q-26 -70 -62 -136q-45 -85 -102 -139q-49 -48 -103 -48q-39 0 -66 13
t-44 33q-25 31 -34 67.5t-9 62.5q0 36 8.5 105t26.5 153q23 109 62 212q34 89 82 149q26 33 56.5 52t65.5 19q65 0 124 -31.5t103 -81.5q1 4 4 13.5t7 20.5q16 45 62 62t103 17q33 0 59 -8t40 -24q-17 -47 -38 -113q-27 -83 -54 -178q-28 -99 -45 -190q-15 -79 -15 -135z
M470 675q-47 68 -88 68q-34 0 -63 -59q-36 -71 -61 -177q-19 -73 -31 -142q-21 -130 -21 -162q0 -18 4 -34.5t19 -16.5q19 0 45 39.5t54 101.5q40 90 76 188q49 137 66 194zM429 1227q-10 -43 -10 -88q0 -64 19.5 -107.5t66.5 -43.5q59 2 88 68t29 175h4q38 0 72 -17
q36 -18 38 -71q0 -68 -25 -115t-63.5 -75t-80 -41t-75.5 -13h-3q-57 0 -111 42q-56 44 -60 148q0 56 26.5 97t84.5 41z" />
    <glyph glyph-name="Aogonek" unicode="&#x104;" horiz-adv-x="1227" 
d="M175.5 520.5q-72.5 -112.5 -72.5 -213.5q0 -36 9 -65.5t32.5 -47t64.5 -17.5q74 0 132.5 49t104 124.5t80 159.5t59.5 156l29 76q-131 0 -248.5 -54.5t-190 -167zM724 786q82 -13 170 -40q90 333 154 533q-57 0 -110.5 -66.5t-106.5 -178t-107 -248.5zM881 -14
q-28 7 -46 23q-33 29 -45 70.5t-12 76.5q0 80 31 231q29 141 71 303q-88 39 -176 45l-34 -87l-67.5 -174.5t-81 -178.5t-97.5 -158.5t-116 -114t-138 -42.5q-71 0 -117.5 29.5t-69.5 80t-23 114.5q0 73 24.5 154.5t76.5 159t132 140.5t190.5 101.5t253.5 38.5l21 51
q34 86 79 184t104 186t134.5 145t171.5 57q53 0 83 -17.5t42 -45.5q11 -27 11 -59v-5q-6 -87 -32 -159q-47 -152 -99.5 -339.5t-91 -354t-38.5 -243.5q0 -16 6.5 -31t31.5 -15t64.5 50t81 120t74.5 136t47 103q0 -19 -20.5 -84t-57.5 -148.5t-87 -163t-109 -132.5
q-18 -16 -36 -27q-67 -56 -125 -135q-69 -94 -73 -206q0 -39 14.5 -62t48.5 -23q37 0 70 20t55.5 46.5t31.5 46.5q-26 -94 -93 -144.5t-137 -50.5q-40 0 -77.5 17t-61 52.5t-23.5 90.5q0 72 41.5 139.5t102.5 121.5q44 39 90 67z" />
    <glyph glyph-name="aogonek" unicode="&#x105;" horiz-adv-x="820" 
d="M470 675q-47 68 -88 68q-34 0 -63 -59q-36 -71 -61 -177q-19 -73 -31 -142q-21 -130 -21 -162q0 -18 4 -34.5t19 -16.5q19 0 45 39.5t54 101.5q40 90 76 188q49 137 66 194zM461 -12q-22 8 -38 22q-33 29 -45 70t-12 76q0 63 14 147q-26 -70 -62 -136q-45 -85 -102 -139
q-49 -48 -103 -48q-39 0 -66 13t-44 33q-25 31 -34 67.5t-9 62.5q0 36 8.5 105t26.5 153q23 109 62 212q34 89 82 149q26 33 56.5 52t65.5 19q65 0 124 -31.5t103 -81.5q1 4 4 13.5t7 20.5q16 45 62 62t103 17q33 0 59 -8t40 -24q-17 -47 -38 -113q-27 -83 -54 -178
q-28 -99 -45 -190q-15 -79 -15 -135q0 -16 4 -31t20 -15q18 0 43.5 28t54.5 72q50 80 94 170.5t63 138.5q0 -25 -35 -125.5t-94 -213.5q-34 -65 -73.5 -119.5t-82.5 -88.5q-9 -7 -18 -13q-63 -54 -119 -130q-69 -94 -73 -206q0 -38 14.5 -61t48.5 -23q38 0 70.5 20t55.5 46
t31 47q-26 -95 -93 -145.5t-137 -50.5q-40 0 -77 17t-61 52.5t-24 91.5q0 72 41.5 139.5t102.5 120.5q46 41 94 69z" />
    <glyph glyph-name="Cacute" unicode="&#x106;" horiz-adv-x="767" 
d="M770 913q-28 -27 -108 -31h-19q-68 0 -129 25q25 21 50.5 67.5t45 104t27.5 110.5q3 24 3 44q0 25 -5 45q-10 36 -45 36q-75 0 -142 -79t-118 -207.5t-80.5 -282t-29.5 -302.5q0 -81 18 -150.5t57.5 -112.5t104.5 -43q76 0 143 36.5t124.5 97.5t107.5 136t92 154
q-10 -61 -41 -137t-82 -153.5t-120.5 -143.5t-156.5 -106.5t-191 -40.5q-112 0 -181.5 60.5t-102 162.5t-32.5 227q0 127 24.5 265t73 266.5t120.5 232.5t167 165.5t213 61.5q100 0 159 -34.5t85 -90.5t27 -123v-8q0 -64 -16 -127q-17 -68 -43 -125zM860 1825q33 0 52.5 -20
t19.5 -45q0 -70 -92.5 -152.5t-237.5 -117.5q3 21 23.5 74t55 113t80 104t99.5 44z" />
    <glyph glyph-name="cacute" unicode="&#x107;" 
d="M545 653q0 -50 -25 -113q-17 -15 -65 -18q-52 0 -89 15q19 51 30 101q9 42 9 73v11q-1 34 -18 36q-44 -4 -81 -83q-43 -92 -70 -209q-31 -143 -31 -191q0 -65 17 -99q23 -46 64 -46q42 0 82 19.5t77 53.5q80 74 137 176t78 182q0 -55 -30 -132t-86 -175
q-61 -109 -148 -189t-202 -85q-98 0 -169 73q-30 33 -49 88q-16 49 -16 116q0 75 32 211q29 119 83 224q42 80 113 122q54 32 128 32q87 0 156 -48q73 -52 73 -145zM680 1243q32 0 51.5 -20t19.5 -45q0 -70 -92.5 -152.5t-237.5 -117.5q4 21 24 74t54.5 113t80.5 104t100 44
z" />
    <glyph glyph-name="Ccircumflex" unicode="&#x108;" horiz-adv-x="767" 
d="M770 913q-28 -27 -108 -31h-19q-68 0 -129 25q25 21 50.5 67.5t45 104t27.5 110.5q3 24 3 44q0 25 -5 45q-10 36 -45 36q-75 0 -142 -79t-118 -207.5t-80.5 -282t-29.5 -302.5q0 -81 18 -150.5t57.5 -112.5t104.5 -43q76 0 143 36.5t124.5 97.5t107.5 136t92 154
q-10 -61 -41 -137t-82 -153.5t-120.5 -143.5t-156.5 -106.5t-191 -40.5q-112 0 -181.5 60.5t-102 162.5t-32.5 227q0 127 24.5 265t73 266.5t120.5 232.5t167 165.5t213 61.5q100 0 159 -34.5t85 -90.5t27 -123v-8q0 -64 -16 -127q-17 -68 -43 -125zM776 1803l-1 -6
q0 -19 16 -48t38 -61q24 -38 44.5 -75t20.5 -65q-1 -68 -77 -74q-43 3 -62.5 55t-24 117t-4.5 99q-14 -1 -31.5 -27.5t-38.5 -66.5q-21 -41 -46.5 -82.5t-55 -70t-63.5 -28.5q-27 1 -47 20.5t-20 48.5q0 45 40.5 91.5t98.5 86t114 64t87 24.5q7 0 12 -2z" />
    <glyph glyph-name="ccircumflex" unicode="&#x109;" 
d="M545 653q0 -50 -25 -113q-17 -15 -65 -18q-52 0 -89 15q19 51 30 101q9 42 9 73v11q-1 34 -18 36q-44 -4 -81 -83q-43 -92 -70 -209q-31 -143 -31 -191q0 -65 17 -99q23 -46 64 -46q42 0 82 19.5t77 53.5q80 74 137 176t78 182q0 -55 -30 -132t-86 -175
q-61 -109 -148 -189t-202 -85q-98 0 -169 73q-30 33 -49 88q-16 49 -16 116q0 75 32 211q29 119 83 224q42 80 113 122q54 32 128 32q87 0 156 -48q73 -52 73 -145zM524 1222l-1 -7q0 -19 16 -47.5t38 -61.5q24 -38 44.5 -74.5t20.5 -65.5q-1 -68 -77 -73q-43 3 -62.5 55
t-24 116.5t-4.5 99.5q-14 -1 -31 -28t-38 -67q-22 -41 -47.5 -82t-55 -70t-63.5 -29q-27 1 -47 20.5t-20 48.5q0 45 41 92t98.5 86t114 63.5t86.5 24.5q7 0 12 -1z" />
    <glyph glyph-name="Cdotaccent" unicode="&#x10a;" horiz-adv-x="767" 
d="M770 913q-28 -27 -108 -31h-19q-68 0 -129 25q25 21 50.5 67.5t45 104t27.5 110.5q3 24 3 44q0 25 -5 45q-10 36 -45 36q-75 0 -142 -79t-118 -207.5t-80.5 -282t-29.5 -302.5q0 -81 18 -150.5t57.5 -112.5t104.5 -43q76 0 143 36.5t124.5 97.5t107.5 136t92 154
q-10 -61 -41 -137t-82 -153.5t-120.5 -143.5t-156.5 -106.5t-191 -40.5q-112 0 -181.5 60.5t-102 162.5t-32.5 227q0 127 24.5 265t73 266.5t120.5 232.5t167 165.5t213 61.5q100 0 159 -34.5t85 -90.5t27 -123v-8q0 -64 -16 -127q-17 -68 -43 -125zM663 1504q-52 9 -81 51
q-25 34 -25 79q0 9 2 19q9 56 49 88q34 28 77 28q8 0 15 -1q53 -9 82 -51q24 -35 24 -78q0 -10 -1 -20q-9 -56 -49 -89q-33 -27 -75 -27q-9 0 -18 1z" />
    <glyph glyph-name="cdotaccent" unicode="&#x10b;" 
d="M545 653q0 -50 -25 -113q-17 -15 -65 -18q-52 0 -89 15q19 51 30 101q9 42 9 73v11q-1 34 -18 36q-44 -4 -81 -83q-43 -92 -70 -209q-31 -143 -31 -191q0 -65 17 -99q23 -46 64 -46q42 0 82 19.5t77 53.5q80 74 137 176t78 182q0 -55 -30 -132t-86 -175
q-61 -109 -148 -189t-202 -85q-98 0 -169 73q-30 33 -49 88q-16 49 -16 116q0 75 32 211q29 119 83 224q42 80 113 122q54 32 128 32q87 0 156 -48q73 -52 73 -145zM421 923q-52 8 -82 51q-24 34 -24 78q0 10 1 20q9 56 49 88q34 28 78 28q7 0 15 -1q53 -9 81 -51
q25 -35 25 -79q0 -9 -1 -19q-10 -57 -50 -89q-33 -27 -75 -27q-8 0 -17 1z" />
    <glyph glyph-name="Ccaron" unicode="&#x10c;" horiz-adv-x="767" 
d="M770 913q-28 -27 -108 -31h-19q-68 0 -129 25q25 21 50.5 67.5t45 104t27.5 110.5q3 24 3 44q0 25 -5 45q-10 36 -45 36q-75 0 -142 -79t-118 -207.5t-80.5 -282t-29.5 -302.5q0 -81 18 -150.5t57.5 -112.5t104.5 -43q76 0 143 36.5t124.5 97.5t107.5 136t92 154
q-10 -61 -41 -137t-82 -153.5t-120.5 -143.5t-156.5 -106.5t-191 -40.5q-112 0 -181.5 60.5t-102 162.5t-32.5 227q0 127 24.5 265t73 266.5t120.5 232.5t167 165.5t213 61.5q100 0 159 -34.5t85 -90.5t27 -123v-8q0 -64 -16 -127q-17 -68 -43 -125zM592 1472v7
q0 19 -16 47.5t-37 61.5q-25 37 -45 74t-20 66q1 68 76 73q44 -3 63.5 -55t24 -116.5t4.5 -99.5q13 1 30.5 28t38.5 67q22 40 47.5 81.5t55 70t63.5 28.5q27 0 47 -19.5t20 -48.5q0 -45 -41 -92t-99 -86.5t-114 -63.5t-86 -24q-7 0 -12 1z" />
    <glyph glyph-name="ccaron" unicode="&#x10d;" 
d="M545 653q0 -50 -25 -113q-17 -15 -65 -18q-52 0 -89 15q19 51 30 101q9 42 9 73v11q-1 34 -18 36q-44 -4 -81 -83q-43 -92 -70 -209q-31 -143 -31 -191q0 -65 17 -99q23 -46 64 -46q42 0 82 19.5t77 53.5q80 74 137 176t78 182q0 -55 -30 -132t-86 -175
q-61 -109 -148 -189t-202 -85q-98 0 -169 73q-30 33 -49 88q-16 49 -16 116q0 75 32 211q29 119 83 224q42 80 113 122q54 32 128 32q87 0 156 -48q73 -52 73 -145zM373 890l1 7q0 19 -16 47.5t-37 61.5q-25 37 -45 74t-20 65q0 68 76 74q44 -3 63.5 -55t23.5 -117t4 -99
q14 1 31.5 27.5t38.5 66.5q21 41 46.5 82.5t55.5 70t63 28.5q28 -1 47.5 -20.5t19.5 -48.5q0 -44 -40.5 -91t-98.5 -86.5t-114 -64t-87 -24.5q-7 0 -12 2z" />
    <glyph glyph-name="Dcaron" unicode="&#x10e;" horiz-adv-x="1230" 
d="M361 783q22 70 38 135q24 96 24 159v5q-2 65 -46 65q60 35 120 35q62 0 95 -29.5t45 -70.5t12 -76q0 -73 -31 -184l-2 -6h10q125 0 264 -29l1 33q0 82 -13 159q-14 92 -53 166.5t-109 119t-180 44.5q-76 0 -138.5 -27t-109.5 -72q-110 -113 -110 -252q0 -64 19.5 -108.5
t40.5 -69.5t29 -30q0 -1 1 -2q43 21 93 35zM600 761q-26 -83 -57 -168l-82 -214l-39 -101q-39 -92 -119 -101q-8 -1 -15 -1q-70 0 -128 66q7 19 29 72l68 172q39 103 78 217q-79 -37 -133 -88q-68 -65 -101 -139.5t-33 -140.5q0 -134 77 -198q67 -57 178 -57q90 0 189.5 46
t185.5 139q74 81 125 199t65 274q-139 23 -260 23h-28zM-40 312q0 115 63 225.5t195 186.5q-6 -2 -21.5 -4t-29.5 -2q-62 0 -104 30t-63.5 80.5t-21.5 112.5q0 85 44 177t135 167q75 62 183.5 99.5t253.5 37.5q209 0 340 -90.5t181 -249.5q30 -95 30 -209q0 -74 -13 -157
q164 -64 248 -155q-92 70 -254 121q-72 -335 -318 -538q-100 -81 -223 -125.5t-264 -44.5q-156 0 -257 84q-49 42 -76.5 106t-27.5 148zM553 1472v7q0 19 -16 47.5t-37 61.5q-25 37 -45 74t-20 65q1 68 76 74q44 -3 63.5 -55t24 -117t4.5 -99q14 1 31 27.5t38 66.5
q22 41 47.5 82.5t55 70t63.5 28.5q27 -1 47 -20.5t20 -48.5q0 -44 -41 -91t-99 -86.5t-114 -64t-86 -24.5q-7 0 -12 2z" />
    <glyph glyph-name="dcaron" unicode="&#x10f;" horiz-adv-x="1126" 
d="M664 1342q77 32 150 32q33 0 59.5 -8t39.5 -25q-19 -53 -57.5 -176.5l-83.5 -280.5q-72 -251 -121 -467q-33 -149 -33 -219q0 -13 3 -26q3 -20 21 -20q29 0 74 65q56 80 108 184.5t73 159.5q0 -27 -40 -139.5t-106 -231.5q-54 -98 -119 -159q-52 -51 -106 -51
q-36 0 -61.5 10.5t-43.5 27.5q-27 29 -37.5 67t-10.5 71q0 70 21 179q-18 -49 -49 -115q-33 -71 -75 -130q-35 -50 -75 -80t-82 -30q-38 0 -64 11.5t-43 30.5q-27 31 -36.5 69t-9.5 65q0 39 10 115t30 166q33 150 96 272q32 62 73.5 99.5t91.5 37.5q65 0 123.5 -31.5
t102.5 -81.5q52 196 101.5 363.5t75.5 245.5zM471 673q-48 70 -89 70q-25 0 -47.5 -33t-41.5 -85q-38 -108 -60 -232q-13 -68 -20 -120t-7 -70q0 -17 4 -34q3 -17 19 -17q19 0 47 44t58 111q45 97 82 200q41 113 55 166zM1051 1271q3 48 29 75.5t67 27.5q42 0 67 -31.5
t25 -70.5q0 -68 -61 -153t-146.5 -149t-163.5 -78q66 42 136.5 144.5t74.5 167.5q-28 28 -28 67z" />
    <glyph glyph-name="Dcroat" unicode="&#x110;" horiz-adv-x="1230" 
d="M16 798q-9 14 -16 31q-22 50 -22 112q0 85 44 177t135 167q75 62 183.5 99.5t253.5 37.5q209 0 340 -90.5t181 -249.5q30 -95 30 -209q0 -74 -13 -157q164 -64 248 -155q-92 70 -254 121q-72 -335 -318 -538q-100 -81 -223 -125.5t-264 -44.5q-156 0 -257 84
q-49 42 -76.5 106t-27.5 148q0 115 63 226q38 66 101 120h-158q-116 -1 -124 -1q-9 13 -9 32q0 13 4 28q11 44 39 80q75 0 140 1zM361 783q22 70 38 135q24 96 24 159v5q-2 65 -46 65q60 35 120 35q62 0 95 -29.5t45 -70.5t12 -76q0 -73 -31 -184l-2 -6h10q125 0 264 -29
l1 33q0 82 -13 159q-14 92 -53 166.5t-109 119t-180 44.5q-76 0 -138.5 -27t-109.5 -72q-110 -113 -110 -252q0 -64 19.5 -108.5t40.5 -69.5t29 -30q0 -1 1 -2q43 21 93 35zM600 761q-26 -83 -57 -168l-82 -214l-39 -101q-39 -92 -119 -101q-8 -1 -15 -1q-70 0 -128 66
q7 19 29 72l68 172q39 103 78 217q-79 -37 -133 -88q-68 -65 -101 -139.5t-33 -140.5q0 -134 77 -198q67 -57 178 -57q90 0 189.5 46t185.5 139q74 81 125 199t65 274q-139 23 -260 23h-28z" />
    <glyph glyph-name="dcroat" unicode="&#x111;" horiz-adv-x="818" 
d="M471 673q-48 70 -89 70q-25 0 -47.5 -33t-41.5 -85q-38 -108 -60 -232q-13 -68 -20 -120t-7 -70q0 -17 4 -34q3 -17 19 -17q19 0 47 44t58 111q45 97 82 200q41 113 55 166zM635 1251l29 91q77 32 150 32q33 0 59.5 -8t39.5 -25l-30 -89h90q8 -12 8 -31q0 -13 -4 -29
q-11 -44 -38 -80h-100l-67 -228q-72 -251 -121 -467q-33 -149 -33 -219q0 -13 3 -26q3 -20 21 -20q29 0 74 65q56 80 108 184.5t73 159.5q0 -27 -40 -139.5t-106 -231.5q-54 -98 -119 -159q-52 -51 -106 -51q-36 0 -61.5 10.5t-43.5 27.5q-27 29 -37.5 67t-10.5 71
q0 70 21 179q-18 -49 -49 -115q-33 -71 -75 -130q-35 -50 -75 -80t-82 -30q-38 0 -64 11.5t-43 30.5q-27 31 -36.5 69t-9.5 65q0 39 10 115t30 166q33 150 96 272q32 62 73.5 99.5t91.5 37.5q65 0 123.5 -31.5t102.5 -81.5q52 196 102 364l4 14l-320 -1q-9 13 -9 32
q0 12 4 28q11 44 39 80q169 0 328 1z" />
    <glyph glyph-name="Emacron" unicode="&#x112;" horiz-adv-x="741" 
d="M773 946q-27 -26 -101 -31h-18q-64 0 -125 25q95 133 95 266q0 44 -17.5 75.5t-59.5 31.5q-58 0 -107 -63t-79.5 -157t-30.5 -185q0 -78 36 -121q21 -26 59 -26q24 0 55 11q5 1 10 1q19 0 31 -23q15 -30 15 -72q-88 0 -161.5 -56t-118 -138.5t-44.5 -161.5
q0 -64 27 -104.5t70 -60.5t91 -20q76 0 138.5 36.5t115.5 97.5t99 136t88 154q-10 -61 -38.5 -137t-75.5 -153.5t-113 -143.5t-150.5 -106.5t-187.5 -40.5q-85 0 -156.5 34t-115.5 96t-44 144q0 95 51.5 182.5t130.5 154t166 102.5q-37 8 -81 38t-78 88.5t-34 157.5
q0 76 24.5 154.5t75 144t129 105.5t187.5 40q129 0 213 -71.5t84 -185.5q0 -60 -18.5 -120.5t-36.5 -97.5zM826 1650q-1 -98 -64 -139h-440q2 86 72 139h432z" />
    <glyph glyph-name="emacron" unicode="&#x113;" 
d="M545 653q0 -64 -34 -128q-29 -55 -76 -93q-58 -48 -130 -48q-45 0 -79 36q-21 -105 -21 -145q0 -60 14 -94q24 -51 67 -51q64 0 120 40q54 37 100 96q40 52 73 112q52 96 81 183q0 -59 -58 -201q-30 -69 -73 -138q-59 -96 -139 -164q-86 -74 -190 -78h-5q-98 0 -170 73
q-30 33 -47.5 83.5t-17.5 120.5q0 80 35 226q29 111 80 209q29 54 72 92q66 62 169 62q75 0 141 -37q39 -24 63.5 -63t24.5 -93zM405 713v4q0 41 -18 41q-20 0 -38.5 -18.5t-35.5 -50.5q-27 -51 -49 -121q-17 -55 -30 -110q20 -16 38 -16q35 0 65 44q30 42 46 97
q22 84 22 130zM627 1068q-1 -98 -64 -139h-440q2 86 72 139h432z" />
    <glyph glyph-name="Ebreve" unicode="&#x114;" horiz-adv-x="741" 
d="M773 946q-27 -26 -101 -31h-18q-64 0 -125 25q95 133 95 266q0 44 -17.5 75.5t-59.5 31.5q-58 0 -107 -63t-79.5 -157t-30.5 -185q0 -78 36 -121q21 -26 59 -26q24 0 55 11q5 1 10 1q19 0 31 -23q15 -30 15 -72q-88 0 -161.5 -56t-118 -138.5t-44.5 -161.5
q0 -64 27 -104.5t70 -60.5t91 -20q76 0 138.5 36.5t115.5 97.5t99 136t88 154q-10 -61 -38.5 -137t-75.5 -153.5t-113 -143.5t-150.5 -106.5t-187.5 -40.5q-85 0 -156.5 34t-115.5 96t-44 144q0 95 51.5 182.5t130.5 154t166 102.5q-37 8 -81 38t-78 88.5t-34 157.5
q0 76 24.5 154.5t75 144t129 105.5t187.5 40q129 0 213 -71.5t84 -185.5q0 -60 -18.5 -120.5t-36.5 -97.5zM541 1809q-10 -43 -10 -88q0 -64 19.5 -107.5t66.5 -43.5q59 2 88 68t29 175h4q38 0 72 -17q36 -18 38 -71q0 -68 -25 -115t-63.5 -75t-80 -41t-75.5 -13h-3
q-57 0 -111 42q-56 44 -60 148q0 56 26.5 97t84.5 41z" />
    <glyph glyph-name="ebreve" unicode="&#x115;" 
d="M545 653q0 -64 -34 -128q-29 -55 -76 -93q-58 -48 -130 -48q-45 0 -79 36q-21 -105 -21 -145q0 -60 14 -94q24 -51 67 -51q64 0 120 40q54 37 100 96q40 52 73 112q52 96 81 183q0 -59 -58 -201q-30 -69 -73 -138q-59 -96 -139 -164q-86 -74 -190 -78h-5q-98 0 -170 73
q-30 33 -47.5 83.5t-17.5 120.5q0 80 35 226q29 111 80 209q29 54 72 92q66 62 169 62q75 0 141 -37q39 -24 63.5 -63t24.5 -93zM405 713v4q0 41 -18 41q-20 0 -38.5 -18.5t-35.5 -50.5q-27 -51 -49 -121q-17 -55 -30 -110q20 -16 38 -16q35 0 65 44q30 42 46 97
q22 84 22 130zM306 1227q-10 -43 -10 -88q0 -64 19.5 -107.5t66.5 -43.5q59 2 88 68t29 175h4q38 0 72 -17q36 -18 38 -71q0 -68 -25 -115t-63.5 -75t-80 -41t-75.5 -13h-3q-57 0 -111 42q-56 44 -60 148q0 56 26.5 97t84.5 41z" />
    <glyph glyph-name="Edotaccent" unicode="&#x116;" horiz-adv-x="741" 
d="M773 946q-27 -26 -101 -31h-18q-64 0 -125 25q95 133 95 266q0 44 -17.5 75.5t-59.5 31.5q-58 0 -107 -63t-79.5 -157t-30.5 -185q0 -78 36 -121q21 -26 59 -26q24 0 55 11q5 1 10 1q19 0 31 -23q15 -30 15 -72q-88 0 -161.5 -56t-118 -138.5t-44.5 -161.5
q0 -64 27 -104.5t70 -60.5t91 -20q76 0 138.5 36.5t115.5 97.5t99 136t88 154q-10 -61 -38.5 -137t-75.5 -153.5t-113 -143.5t-150.5 -106.5t-187.5 -40.5q-85 0 -156.5 34t-115.5 96t-44 144q0 95 51.5 182.5t130.5 154t166 102.5q-37 8 -81 38t-78 88.5t-34 157.5
q0 76 24.5 154.5t75 144t129 105.5t187.5 40q129 0 213 -71.5t84 -185.5q0 -60 -18.5 -120.5t-36.5 -97.5zM570 1504q-52 9 -82 51q-24 35 -24 79q0 10 1 20q9 55 49 88q34 27 78 27h15q53 -10 81 -51q25 -35 25 -79q0 -10 -2 -20q-9 -56 -49 -89q-33 -27 -75 -27
q-9 0 -17 1z" />
    <glyph glyph-name="edotaccent" unicode="&#x117;" 
d="M545 653q0 -64 -34 -128q-29 -55 -76 -93q-58 -48 -130 -48q-45 0 -79 36q-21 -105 -21 -145q0 -60 14 -94q24 -51 67 -51q64 0 120 40q54 37 100 96q40 52 73 112q52 96 81 183q0 -59 -58 -201q-30 -69 -73 -138q-59 -96 -139 -164q-86 -74 -190 -78h-5q-98 0 -170 73
q-30 33 -47.5 83.5t-17.5 120.5q0 80 35 226q29 111 80 209q29 54 72 92q66 62 169 62q75 0 141 -37q39 -24 63.5 -63t24.5 -93zM405 713v4q0 41 -18 41q-20 0 -38.5 -18.5t-35.5 -50.5q-27 -51 -49 -121q-17 -55 -30 -110q20 -16 38 -16q35 0 65 44q30 42 46 97
q22 84 22 130zM415 923q-52 8 -82 51q-24 34 -24 78q0 10 1 20q9 56 49 88q34 28 78 28q7 0 15 -1q53 -9 81 -51q25 -35 25 -79q0 -9 -2 -19q-9 -57 -49 -89q-33 -27 -75 -27q-9 0 -17 1z" />
    <glyph glyph-name="Eogonek" unicode="&#x118;" horiz-adv-x="741" 
d="M301 -19q-12 -1 -25 -1q-85 0 -156.5 34t-115.5 96t-44 144q0 95 51.5 182.5t130.5 154t166 102.5q-37 8 -81 38t-78 88.5t-34 157.5q0 76 24.5 154.5t75 144t129 105.5t187.5 40q129 0 213 -71.5t84 -185.5q0 -60 -18.5 -120.5t-36.5 -97.5q-27 -26 -101 -31h-18
q-64 0 -125 25q95 133 95 266q0 44 -17.5 75.5t-59.5 31.5q-58 0 -107 -63t-79.5 -157t-30.5 -185q0 -78 36 -121q21 -26 59 -26q24 0 55 11q5 1 10 1q19 0 31 -23q15 -30 15 -72q-88 0 -161.5 -56t-118 -138.5t-44.5 -161.5q0 -64 27 -104.5t70 -60.5t91 -20
q76 0 138.5 36.5t115.5 97.5t99 136t88 154q-10 -61 -38.5 -137t-75.5 -153.5t-113 -143.5q-65 -65 -149 -106q-77 -60 -143 -150q-69 -94 -74 -206q0 -38 15 -61t48 -23q38 0 70.5 20t55.5 46t32 47q-27 -95 -94 -145.5t-137 -50.5q-40 0 -77 17t-61 52.5t-24 91.5
q0 72 41.5 139.5t102.5 120.5q40 36 81 62z" />
    <glyph glyph-name="eogonek" unicode="&#x119;" 
d="M405 713v4q0 41 -18 41q-20 0 -38.5 -18.5t-35.5 -50.5q-27 -51 -49 -121q-17 -55 -30 -110q20 -16 38 -16q35 0 65 44q30 42 46 97q22 84 22 130zM176 -19q-86 6 -151 72q-30 33 -47.5 83.5t-17.5 120.5q0 80 35 226q29 111 80 209q29 54 72 92q66 62 169 62
q75 0 141 -37q39 -24 63.5 -63t24.5 -93q0 -64 -34 -128q-29 -55 -76 -93q-58 -48 -130 -48q-45 0 -79 36q-21 -105 -21 -145q0 -60 14 -94q24 -51 67 -51q64 0 120 40q54 37 100 96q40 52 73 112q52 96 81 183q0 -59 -58 -201q-30 -69 -73 -138q-59 -96 -139 -164
q-25 -22 -52 -37q-76 -60 -141 -149q-69 -94 -73 -206q0 -38 14.5 -61t48.5 -23q38 0 70.5 20t55 46t31.5 47q-26 -95 -93 -145.5t-137 -50.5q-40 0 -77 17t-61 52.5t-24 91.5q0 72 41.5 139.5t102.5 120.5q40 35 80 61z" />
    <glyph glyph-name="Ecaron" unicode="&#x11a;" horiz-adv-x="741" 
d="M773 946q-27 -26 -101 -31h-18q-64 0 -125 25q95 133 95 266q0 44 -17.5 75.5t-59.5 31.5q-58 0 -107 -63t-79.5 -157t-30.5 -185q0 -78 36 -121q21 -26 59 -26q24 0 55 11q5 1 10 1q19 0 31 -23q15 -30 15 -72q-88 0 -161.5 -56t-118 -138.5t-44.5 -161.5
q0 -64 27 -104.5t70 -60.5t91 -20q76 0 138.5 36.5t115.5 97.5t99 136t88 154q-10 -61 -38.5 -137t-75.5 -153.5t-113 -143.5t-150.5 -106.5t-187.5 -40.5q-85 0 -156.5 34t-115.5 96t-44 144q0 95 51.5 182.5t130.5 154t166 102.5q-37 8 -81 38t-78 88.5t-34 157.5
q0 76 24.5 154.5t75 144t129 105.5t187.5 40q129 0 213 -71.5t84 -185.5q0 -60 -18.5 -120.5t-36.5 -97.5zM547 1472l1 7q0 19 -16 47.5t-38 61.5q-24 37 -44.5 74t-20.5 66q1 68 77 73q43 -3 62.5 -55t24 -117t4.5 -99q14 1 31.5 27.5t38.5 66.5q21 41 46.5 82.5t55 70
t63.5 28.5q27 0 47 -20t20 -48q0 -45 -41 -92t-98.5 -86.5t-113.5 -64t-87 -24.5q-7 0 -12 2z" />
    <glyph glyph-name="ecaron" unicode="&#x11b;" 
d="M545 653q0 -64 -34 -128q-29 -55 -76 -93q-58 -48 -130 -48q-45 0 -79 36q-21 -105 -21 -145q0 -60 14 -94q24 -51 67 -51q64 0 120 40q54 37 100 96q40 52 73 112q52 96 81 183q0 -59 -58 -201q-30 -69 -73 -138q-59 -96 -139 -164q-86 -74 -190 -78h-5q-98 0 -170 73
q-30 33 -47.5 83.5t-17.5 120.5q0 80 35 226q29 111 80 209q29 54 72 92q66 62 169 62q75 0 141 -37q39 -24 63.5 -63t24.5 -93zM405 713v4q0 41 -18 41q-20 0 -38.5 -18.5t-35.5 -50.5q-27 -51 -49 -121q-17 -55 -30 -110q20 -16 38 -16q35 0 65 44q30 42 46 97
q22 84 22 130zM350 890l1 7q0 19 -16 47.5t-37 61.5q-25 37 -45 74t-20 66q0 68 76 73q44 -3 63.5 -55t23.5 -117t4 -99q14 1 31.5 27.5t38.5 66.5q21 41 46.5 82.5t55.5 70t63 28.5q28 -1 47.5 -20.5t19.5 -48.5q0 -44 -40.5 -91t-98.5 -86.5t-114 -64t-87 -24.5
q-7 0 -12 2z" />
    <glyph glyph-name="Gcircumflex" unicode="&#x11c;" horiz-adv-x="954" 
d="M-32 -423q0 136 123 267.5t371 252.5q18 90 35 224l6 46q-34 -59 -80.5 -121t-106.5 -106t-133 -44q-223 5 -223 407q0 116 29 243t83.5 247t131 216.5t172 154t206.5 57.5q101 0 160 -34.5t85 -90.5t26.5 -123.5t-16 -135t-42.5 -124.5q-28 -27 -108 -31h-19
q-69 0 -130 25q32 23 59.5 70.5t46 104.5t24.5 110q1 15 1 29q0 33 -8 58q-12 35 -46 35q-72 0 -134.5 -57t-112.5 -150t-85.5 -204.5t-54.5 -222.5t-19 -204q0 -76 14 -121.5t36 -65.5t45 -20q38 0 75 37t69 92.5t57.5 114t40.5 104.5q7 26 15 45q34 49 120 59q18 2 35 2
q61 0 104 -29q-26 -105 -49 -228l-51 -257l144 66l190 85q-77 -48 -175 -103l-169 -93q-31 -142 -71 -276q-26 -87 -61.5 -174t-86.5 -161q-56 -83 -137 -134t-197 -51q-82 0 -135.5 57t-53.5 152zM425 -61l22 91q-66 -35 -131 -81t-119.5 -102.5t-88 -123.5t-33.5 -143
q0 -42 16.5 -68t54.5 -26q56 0 102 52t81 127q36 77 60.5 152t35.5 122zM777 1803l-1 -6q0 -20 16 -48.5t37 -60.5q25 -38 45 -75t20 -65q-1 -68 -76 -74q-44 3 -63.5 55t-24 117t-4.5 99q-13 -1 -30.5 -27.5t-38.5 -66.5q-22 -41 -47.5 -82.5t-55 -70t-62.5 -28.5
q-28 1 -48 20.5t-20 48.5q0 44 41 91t99 86.5t114 64t87 24.5q6 0 12 -2z" />
    <glyph glyph-name="gcircumflex" unicode="&#x11d;" horiz-adv-x="817" 
d="M-12 227q0 47 13.5 136.5t42.5 187.5q38 132 106 222q28 34 60.5 53.5t71.5 19.5q61 0 116.5 -28t98.5 -74q7 22 13 37q34 49 120 59q18 2 35 2q62 0 104 -28q-34 -98 -64 -250l-28 -141l-43 -214l176 77l97 43q-5 -39 -284 -172q-31 -138 -70 -269q-26 -87 -61.5 -174
t-86.5 -161q-56 -82 -137 -133.5t-196 -51.5q-82 0 -136 57t-54 152q0 156 163 307q120 110 331 213q17 83 41 233l12 72q-48 -131 -120 -238q-36 -51 -78.5 -82t-90.5 -31q-34 0 -58.5 10t-41.5 26q-31 31 -41.5 71.5t-10.5 68.5zM483 686q-44 57 -81 57q-25 0 -47.5 -29
t-40.5 -76q-30 -77 -50 -167q-15 -68 -23 -122.5t-8 -74.5q0 -18 4.5 -34.5t19.5 -16.5q20 0 47.5 41.5t56.5 104.5q40 85 73 173q39 104 49 144zM339 -61l22 91q-72 -38 -143 -89.5t-127 -116.5q-46 -53 -74 -114t-28 -130q0 -42 17 -68t55 -26q55 0 101 52t81 127
q37 77 61 152t35 122zM618 1222l-1 -7q0 -19 16 -47.5t37 -61.5q25 -38 45.5 -75t20.5 -65q-1 -68 -77 -73q-43 3 -62.5 54.5t-24 116.5t-4.5 99q-14 -1 -31.5 -27.5t-38.5 -66.5q-21 -41 -46.5 -82t-55 -70t-63.5 -29q-27 1 -47 20.5t-20 48.5q0 45 40.5 92t98.5 86
t114 63.5t87 24.5q7 0 12 -1z" />
    <glyph glyph-name="Gbreve" unicode="&#x11e;" horiz-adv-x="954" 
d="M-32 -423q0 136 123 267.5t371 252.5q18 90 35 224l6 46q-34 -59 -80.5 -121t-106.5 -106t-133 -44q-223 5 -223 407q0 116 29 243t83.5 247t131 216.5t172 154t206.5 57.5q101 0 160 -34.5t85 -90.5t26.5 -123.5t-16 -135t-42.5 -124.5q-28 -27 -108 -31h-19
q-69 0 -130 25q32 23 59.5 70.5t46 104.5t24.5 110q1 15 1 29q0 33 -8 58q-12 35 -46 35q-72 0 -134.5 -57t-112.5 -150t-85.5 -204.5t-54.5 -222.5t-19 -204q0 -76 14 -121.5t36 -65.5t45 -20q38 0 75 37t69 92.5t57.5 114t40.5 104.5q7 26 15 45q34 49 120 59q18 2 35 2
q61 0 104 -29q-26 -105 -49 -228l-51 -257l144 66l190 85q-77 -48 -175 -103l-169 -93q-31 -142 -71 -276q-26 -87 -61.5 -174t-86.5 -161q-56 -83 -137 -134t-197 -51q-82 0 -135.5 57t-53.5 152zM425 -61l22 91q-66 -35 -131 -81t-119.5 -102.5t-88 -123.5t-33.5 -143
q0 -42 16.5 -68t54.5 -26q56 0 102 52t81 127q36 77 60.5 152t35.5 122zM567 1809q-10 -43 -10 -88q0 -64 19.5 -107.5t66.5 -43.5q59 2 88 68t29 175h4q37 0 72 -17q36 -18 38 -71q0 -68 -25 -115t-63.5 -75t-80 -41t-75.5 -13h-3q-58 0 -111 42q-56 44 -60 148
q0 56 26.5 97t84.5 41z" />
    <glyph glyph-name="gbreve" unicode="&#x11f;" horiz-adv-x="817" 
d="M-12 227q0 47 13.5 136.5t42.5 187.5q38 132 106 222q28 34 60.5 53.5t71.5 19.5q61 0 116.5 -28t98.5 -74q7 22 13 37q34 49 120 59q18 2 35 2q62 0 104 -28q-34 -98 -64 -250l-28 -141l-43 -214l176 77l97 43q-5 -39 -284 -172q-31 -138 -70 -269q-26 -87 -61.5 -174
t-86.5 -161q-56 -82 -137 -133.5t-196 -51.5q-82 0 -136 57t-54 152q0 156 163 307q120 110 331 213q17 83 41 233l12 72q-48 -131 -120 -238q-36 -51 -78.5 -82t-90.5 -31q-34 0 -58.5 10t-41.5 26q-31 31 -41.5 71.5t-10.5 68.5zM483 686q-44 57 -81 57q-25 0 -47.5 -29
t-40.5 -76q-30 -77 -50 -167q-15 -68 -23 -122.5t-8 -74.5q0 -18 4.5 -34.5t19.5 -16.5q20 0 47.5 41.5t56.5 104.5q40 85 73 173q39 104 49 144zM339 -61l22 91q-72 -38 -143 -89.5t-127 -116.5q-46 -53 -74 -114t-28 -130q0 -42 17 -68t55 -26q55 0 101 52t81 127
q37 77 61 152t35 122zM449 1227q-10 -43 -10 -88q0 -64 19.5 -107.5t66.5 -43.5q59 2 88 68t29 175h4q38 0 72 -17q36 -18 38 -71q0 -68 -25 -115t-63.5 -75t-80 -41t-75.5 -13h-3q-57 0 -111 42q-56 44 -60 148q0 56 26.5 97t84.5 41z" />
    <glyph glyph-name="Gdotaccent" unicode="&#x120;" horiz-adv-x="954" 
d="M-32 -423q0 136 123 267.5t371 252.5q18 90 35 224l6 46q-34 -59 -80.5 -121t-106.5 -106t-133 -44q-223 5 -223 407q0 116 29 243t83.5 247t131 216.5t172 154t206.5 57.5q101 0 160 -34.5t85 -90.5t26.5 -123.5t-16 -135t-42.5 -124.5q-28 -27 -108 -31h-19
q-69 0 -130 25q32 23 59.5 70.5t46 104.5t24.5 110q1 15 1 29q0 33 -8 58q-12 35 -46 35q-72 0 -134.5 -57t-112.5 -150t-85.5 -204.5t-54.5 -222.5t-19 -204q0 -76 14 -121.5t36 -65.5t45 -20q38 0 75 37t69 92.5t57.5 114t40.5 104.5q7 26 15 45q34 49 120 59q18 2 35 2
q61 0 104 -29q-26 -105 -49 -228l-51 -257l144 66l190 85q-77 -48 -175 -103l-169 -93q-31 -142 -71 -276q-26 -87 -61.5 -174t-86.5 -161q-56 -83 -137 -134t-197 -51q-82 0 -135.5 57t-53.5 152zM425 -61l22 91q-66 -35 -131 -81t-119.5 -102.5t-88 -123.5t-33.5 -143
q0 -42 16.5 -68t54.5 -26q56 0 102 52t81 127q36 77 60.5 152t35.5 122zM660 1504q-52 9 -82 51q-24 34 -24 79q0 9 1 19q9 56 49 88q34 28 78 28q7 0 15 -1q53 -9 82 -51q24 -35 24 -78q0 -10 -1 -20q-10 -56 -49 -89q-34 -27 -76 -27q-8 0 -17 1z" />
    <glyph glyph-name="gdotaccent" unicode="&#x121;" horiz-adv-x="817" 
d="M-12 227q0 47 13.5 136.5t42.5 187.5q38 132 106 222q28 34 60.5 53.5t71.5 19.5q61 0 116.5 -28t98.5 -74q7 22 13 37q34 49 120 59q18 2 35 2q62 0 104 -28q-34 -98 -64 -250l-28 -141l-43 -214l176 77l97 43q-5 -39 -284 -172q-31 -138 -70 -269q-26 -87 -61.5 -174
t-86.5 -161q-56 -82 -137 -133.5t-196 -51.5q-82 0 -136 57t-54 152q0 156 163 307q120 110 331 213q17 83 41 233l12 72q-48 -131 -120 -238q-36 -51 -78.5 -82t-90.5 -31q-34 0 -58.5 10t-41.5 26q-31 31 -41.5 71.5t-10.5 68.5zM483 686q-44 57 -81 57q-25 0 -47.5 -29
t-40.5 -76q-30 -77 -50 -167q-15 -68 -23 -122.5t-8 -74.5q0 -18 4.5 -34.5t19.5 -16.5q20 0 47.5 41.5t56.5 104.5q40 85 73 173q39 104 49 144zM339 -61l22 91q-72 -38 -143 -89.5t-127 -116.5q-46 -53 -74 -114t-28 -130q0 -42 17 -68t55 -26q55 0 101 52t81 127
q37 77 61 152t35 122zM500 922q-52 9 -81 51q-25 35 -25 79q0 9 2 20q9 55 49 88q34 27 77 27h15q53 -10 82 -51q24 -35 24 -79q0 -10 -1 -20q-9 -56 -49 -89q-33 -27 -75 -27q-9 0 -18 1z" />
    </font>
</defs>
</svg>
